<?xml version="1.0" encoding="utf-8"?>
<!-- Generator: Adobe Illustrator 25.0.0, SVG Export Plug-In . SVG Version: 6.00 Build 0)  -->
<svg version="1.1" id="レイヤー_1" xmlns="http://www.w3.org/2000/svg" xmlns:xlink="http://www.w3.org/1999/xlink" x="0px"
	 y="0px" viewBox="0 0 300 60" style="enable-background:new 0 0 300 60;" xml:space="preserve">
<style type="text/css">
	.st0{fill:#FFFFFF;}
</style>
<g>
	<g>
		<path class="st0" d="M7.8,2c0.4,0.2,0.8,0.5,1.1,0.8c0.4,0.6,0.6,1.7,0.6,3.5v18.5c0,0.7,0,1.2,0,1.7s-0.1,0.8-0.2,1.1
			c-0.1,0.3-0.2,0.6-0.4,0.8c-0.2,0.2-0.4,0.4-0.7,0.5C8,29,7.8,29.1,7.7,29.1l0.1,0.1h2.9V1.9H7.9L7.8,2z M14.1,28.9
			c-0.3-0.1-0.5-0.3-0.7-0.5c-0.2-0.2-0.3-0.5-0.4-0.8c-0.1-0.3-0.1-0.7-0.2-1.1c0-0.4,0-1,0-1.7V6.3c0-1.7,0.1-2.8,0.6-3.5
			c0.3-0.4,0.6-0.6,1.1-0.8l-0.1-0.1h-2.7v27.3h2.9l0.1-0.1C14.4,29.1,14.2,29,14.1,28.9z"/>
		<path class="st0" d="M26.5,2c0.1,0.1,0.3,0.1,0.5,0.2c0.3,0.2,0.5,0.3,0.7,0.5C27.9,3,28,3.2,28.1,3.5c0.1,0.3,0.1,0.7,0.2,1.1
			s0,1,0,1.7v18.5c0,1.7-0.1,2.8-0.6,3.5c-0.3,0.4-0.6,0.6-1,0.8l0.1,0.1h2.7V1.9h-2.9L26.5,2z M30.4,1.9v27.3h2.9l0.1-0.1
			c-0.1,0-0.3-0.1-0.4-0.2c-0.3-0.1-0.5-0.3-0.7-0.5c-0.2-0.2-0.3-0.5-0.4-0.8c-0.1-0.3-0.1-0.7-0.2-1.1c0-0.4,0-1,0-1.7v-9.1
			c0-0.1,0.1-0.3,0.3-0.3h12.7v-1H31.9c-0.1,0-0.3-0.1-0.3-0.3V2.7c0-0.2,0.1-0.3,0.3-0.3h9.4c0.8,0,2,0,2.6,0.1
			c0.6,0.1,1.2,0.3,1.7,0.6c0.5,0.3,0.9,0.8,1.2,1.4C47,5,47.2,5.4,47.4,5.8l0.2-0.2l-0.2-3.6l-0.2-0.2L30.4,1.9L30.4,1.9z"/>
		<path class="st0" d="M102.2,26.3c-1.5-2.2-2.2-4.7-2.2-7.6c0-1.1,0.1-2.3,0.4-3.4c0.3-1.1,0.6-2.2,1.1-3.1c0.5-1,1-1.9,1.7-2.7
			c0.4-0.5,0.8-0.9,1.2-1.3c-0.8,0.5-1.5,1.1-2.2,1.8c-0.7,0.8-1.4,1.6-1.9,2.6c-0.5,0.9-0.9,1.9-1.2,3s-0.4,2.1-0.4,3.2
			c0,2.8,0.8,5.1,2.5,7.2c0.9,1.1,1.9,1.9,3.1,2.6C103.4,27.9,102.8,27.1,102.2,26.3z M114.6,19.9c0,0,0.1,0,0.1,0
			c0.2,0.1,0.4,0.2,0.5,0.3c0.2,0.1,0.3,0.4,0.4,0.6s0.2,0.6,0.2,0.9c0.1,0.4,0.1,0.9,0.1,1.4V28l-0.1,0l-0.1,0
			c-1.5,0.9-3.2,1.3-4.9,1.3c-1.2,0-2.4-0.3-3.5-0.9c-1.1-0.6-2.1-1.4-2.9-2.4s-1.5-2.2-1.9-3.6c-0.5-1.4-0.7-3-0.7-4.6
			c0-1.5,0.2-2.9,0.6-4.2s1-2.4,1.7-3.4c0.8-1,1.7-1.7,2.8-2.3c1.1-0.6,2.3-0.8,3.7-0.8c0,0,0,0,0,0c1.9,0,3.5,0.5,4.8,1.5
			c0.9,0.6,1.6,1.6,2.2,2.7l0.1-0.1V7.6l-0.1-0.1c0,0.1-0.1,0.1-0.1,0.2c-0.2,0.2-0.5,0.4-0.8,0.4h0c-0.2,0-0.3,0-0.6-0.1
			c-0.2-0.1-0.5-0.2-0.8-0.3c-0.7-0.2-1.2-0.4-1.6-0.6s-0.8-0.2-1.2-0.3s-0.7-0.1-1.1-0.2c-0.3,0-0.7,0-1.2,0s-0.9,0-1.3,0.1
			c-1.3,0.2-2.4,0.6-3.4,1.3c-0.7,0.5-1.4,1.1-2,1.9c-0.6,0.8-1.1,1.6-1.6,2.6s-0.8,1.9-1,3c-0.2,1-0.4,2.1-0.4,3.2
			c0,2.8,0.7,5.2,2.1,7.2c1.8,2.6,4.2,4,7.4,4.1c0.2,0,0.5,0,0.7,0c0.8,0,1.5,0,2.2-0.1s1.3-0.2,2-0.4c0.6-0.2,1.3-0.4,1.9-0.6h0
			v-9.2L114.6,19.9L114.6,19.9z M119.7,19.8h-2v8.8c0.3-0.1,0.7-0.3,1-0.5v-4.9c0-0.7,0-1.3,0.1-1.8c0.1-0.5,0.2-0.8,0.4-1.1
			C119.4,20.1,119.5,20,119.7,19.8L119.7,19.8z"/>
		<path class="st0" d="M55.8,7.5c0.3,0.2,0.6,0.4,0.8,0.7c0.3,0.5,0.5,1.4,0.5,2.8v14.8c0,0.5,0,1,0,1.3S57,27.7,57,28
			c-0.1,0.2-0.2,0.5-0.3,0.6c-0.2,0.1-0.3,0.3-0.5,0.4c-0.1,0.1-0.2,0.1-0.4,0.2l0.1,0.1h2.4V7.4L55.8,7.5L55.8,7.5z M61,29
			c-0.2-0.1-0.4-0.2-0.5-0.4c-0.2-0.2-0.3-0.4-0.3-0.6C60,27.7,60,27.4,60,27.1s0-0.8,0-1.3V10.9c0-1.4,0.1-2.3,0.5-2.8
			c0.2-0.3,0.5-0.5,0.8-0.7l-0.1-0.1h-2.2v21.9h2.4l0.1-0.1C61.2,29.1,61.1,29.1,61,29z"/>
		<path class="st0" d="M70.6,7.4L70.6,7.4c0.2,0.2,0.4,0.2,0.5,0.3c0.2,0.1,0.5,0.2,0.7,0.4c0.2,0.2,0.4,0.4,0.7,0.6
			c0.1,0.1,0.5,0.6,1,1.1v16c0,1.3-0.1,2.1-0.4,2.6c-0.2,0.3-0.5,0.6-0.9,0.7l0.1,0.1h3.5l0.1-0.1c-0.3-0.1-0.5-0.3-0.7-0.5
			c-0.4-0.5-0.5-1.4-0.5-2.8V11.2l15.7,19.2v-1.7L73,7.4H70.6z M91.4,7.4h-3.2l-0.1,0.1c0.2,0.1,0.3,0.2,0.5,0.4
			C88.8,8.1,89,8.5,89.1,9c0.1,0.5,0.2,1.1,0.2,1.9v13.5l-13.9-17H74l16.4,20.1V10.8c0-0.8,0.1-1.4,0.2-1.9s0.3-0.9,0.5-1.1
			C91.2,7.7,91.3,7.6,91.4,7.4L91.4,7.4z"/>
	</g>
	<g>
		<path class="st0" d="M22.5,40.7c-0.1,0.1-0.2,0.2-0.4,0.2c-0.1,0-0.1,0-0.2,0c-1.6,1.6-3.9,3.5-5.9,5c0.2,0.1,0.4,0.2,0.5,0.2
			c0,0.1-0.2,0.2-0.5,0.3v11.2h-1.5V46.8c-2.2,1.6-5.1,3.2-7.9,4.6c-0.2-0.3-0.6-0.8-0.9-1.1c5.7-2.6,11.9-7.1,15.2-10.7L22.5,40.7z
			"/>
		<path class="st0" d="M42.7,42c-0.1,0.1-0.2,0.2-0.3,0.2c-1.6,7.9-5.7,12.5-12.5,14.9c-0.2-0.3-0.7-0.9-1-1.2
			c6.4-2.1,10.4-6.7,11.6-13H27v-1.4h14.1l0.3-0.2L42.7,42z"/>
		<path class="st0" d="M63.1,40.7c-0.1,0.1-0.2,0.2-0.4,0.2c-0.1,0-0.1,0-0.2,0c-1.6,1.6-3.9,3.5-5.9,5c0.2,0.1,0.4,0.2,0.5,0.2
			c0,0.1-0.2,0.2-0.5,0.3v11.2h-1.5V46.8c-2.2,1.6-5.1,3.2-7.9,4.6c-0.2-0.3-0.6-0.8-0.9-1.1c5.7-2.6,11.9-7.1,15.2-10.7L63.1,40.7z
			"/>
		<path class="st0" d="M68.2,41.1c2.2,0.7,4.7,1.8,6.2,2.8l-0.8,1.3c-1.5-1.1-3.9-2.2-6.1-2.9L68.2,41.1z M68.1,55.5
			c7.4-2.3,12.3-6.4,14.8-12.2c0.4,0.3,0.9,0.6,1.3,0.8c-2.6,5.7-7.7,10.1-14.7,12.5c0,0.2-0.2,0.4-0.3,0.5L68.1,55.5z"/>
		<path class="st0" d="M102.7,43.5c-0.1,0.1-0.2,0.2-0.3,0.3c-2.2,6.9-5.6,11-11.2,13.9c-0.2-0.3-0.6-0.8-1.1-1.1
			c5.3-2.6,8.7-6.6,10.4-12.2h-7.3c-1.2,1.9-2.7,3.6-4.6,5.1c-0.3-0.3-0.8-0.7-1.2-0.9c2.8-2.1,5.2-5.4,6.6-9.1l1.9,0.5
			c-0.1,0.2-0.3,0.3-0.6,0.3c-0.4,0.9-0.9,1.9-1.4,2.8h7.2l0.2-0.1L102.7,43.5z M100.2,38.8c1,0.8,2.1,2.1,2.7,3l-0.8,0.7
			c-0.6-1-1.8-2.2-2.7-3L100.2,38.8z M103.2,38.2c1,0.8,2.1,2,2.7,3l-0.8,0.6c-0.6-0.9-1.7-2.1-2.7-2.9L103.2,38.2z"/>
		<path class="st0" d="M123.3,55.2c0.8,0,3.1-0.1,4.4-0.3c0,0.5,0,1,0.1,1.5c-1.4,0.2-3.4,0.2-4.3,0.2h-5.2c-3.1,0-4.7-1.4-4.7-4.3
			V40.2l2,0.1c0,0.2-0.2,0.3-0.6,0.4v6.8c3.2-1,7.6-2.7,10.3-4.1l1.1,1.4c-0.1,0-0.2,0.1-0.2,0.1c-0.1,0-0.2,0-0.3-0.1
			c-2.5,1.3-7.2,3-10.8,4.1v3.5c0,2.1,1,2.9,3.2,2.9L123.3,55.2L123.3,55.2z M125.3,39.6c1,0.8,2,2.1,2.6,3l-0.8,0.6
			c-0.6-0.9-1.7-2.3-2.5-3L125.3,39.6z M127.8,38.3c0.9,0.8,2,2.1,2.6,3l-0.8,0.6c-0.6-0.9-1.7-2.2-2.5-3L127.8,38.3z"/>
		<path class="st0" d="M146.8,55.2v1.2h-13.6v-1.2h8.1c0.3-2,0.9-6,1.1-8h-7.6V46h8L143,46l1,0.5c0,0.1-0.1,0.2-0.2,0.2
			c-0.3,2.1-0.9,6.5-1.2,8.6H146.8z"/>
		<path class="st0" d="M149,47.3h15.6v1.5h-14.9c-0.1,0.2-0.4,0.3-0.6,0.4L149,47.3z"/>
		<path class="st0" d="M184.5,47.6h-7l0.4,0.1c0,0.1-0.2,0.2-0.4,0.2c-0.6,3.9-2,7.3-6.4,9.5c-0.2-0.3-0.8-0.8-1.1-1
			c4.3-2.1,5.5-5,6-8.8h-8.1v-1.4h16.7L184.5,47.6L184.5,47.6z M182.5,41.7h-12.8v-1.4h12.8V41.7z"/>
		<path class="st0" d="M199.9,45.2c-0.1,0.1-0.2,0.1-0.3,0.1c-0.1,0-0.2,0-0.3,0c-1.3,1.3-2.9,2.6-4.4,3.7c0.3,0.1,0.4,0.1,0.4,0.2
			c0,0.1-0.2,0.2-0.3,0.2v8.7h-1.2v-8.3c-1.7,1.2-4.4,2.8-6.6,3.8c-0.2-0.2-0.5-0.7-0.7-0.9c3.4-1.6,8.6-4.6,12.1-8.4L199.9,45.2z"
			/>
		<path class="st0" d="M204.9,47.3h15.6v1.5h-14.9c-0.1,0.2-0.4,0.3-0.6,0.4L204.9,47.3z"/>
		<path class="st0" d="M228.8,48.7c0-2.7,0.7-4.7,2.1-6.2s3.3-2.3,5.5-2.3c1.5,0,2.8,0.3,4,1.1c1.2,0.7,2.1,1.7,2.7,3
			c0.6,1.3,0.9,2.7,0.9,4.3c0,1.6-0.3,3.1-1,4.4c-0.7,1.3-1.6,2.2-2.8,2.9c-1.2,0.7-2.5,1-3.9,1c-1.5,0-2.9-0.4-4-1.1
			c-1.2-0.7-2.1-1.7-2.7-3C229.1,51.4,228.8,50.1,228.8,48.7z M230.9,48.7c0,1.9,0.5,3.5,1.6,4.6s2.3,1.7,3.9,1.7
			c1.6,0,2.9-0.6,3.9-1.7s1.6-2.7,1.6-4.8c0-1.3-0.2-2.4-0.7-3.4s-1.1-1.7-1.9-2.3c-0.9-0.5-1.8-0.8-2.9-0.8c-1.5,0-2.8,0.5-3.9,1.5
			C231.5,44.6,230.9,46.3,230.9,48.7z"/>
		<path class="st0" d="M247.1,56.5V44.9h1.8v1.7c0.9-1.3,2.1-1.9,3.7-1.9c0.7,0,1.3,0.1,1.9,0.4s1,0.6,1.3,1
			c0.3,0.4,0.5,0.9,0.6,1.5c0.1,0.4,0.1,1,0.1,1.9v7.1h-2v-7.1c0-0.8-0.1-1.4-0.2-1.8c-0.1-0.4-0.4-0.7-0.8-1s-0.9-0.4-1.4-0.4
			c-0.8,0-1.6,0.3-2.2,0.8s-0.9,1.5-0.9,3v6.3L247.1,56.5L247.1,56.5z"/>
		<path class="st0" d="M260.1,56.5v-16h2v16H260.1z"/>
		<path class="st0" d="M265.7,42.7v-2.3h2v2.3H265.7z M265.7,56.5V44.9h2v11.6H265.7z"/>
		<path class="st0" d="M271.2,56.5V44.9h1.8v1.7c0.9-1.3,2.1-1.9,3.7-1.9c0.7,0,1.3,0.1,1.9,0.4s1,0.6,1.3,1s0.5,0.9,0.6,1.5
			c0.1,0.4,0.1,1,0.1,1.9v7.1h-2v-7.1c0-0.8-0.1-1.4-0.2-1.8c-0.1-0.4-0.4-0.7-0.8-1c-0.4-0.2-0.9-0.4-1.4-0.4
			c-0.8,0-1.6,0.3-2.2,0.8c-0.6,0.5-0.9,1.5-0.9,3v6.3L271.2,56.5L271.2,56.5z"/>
		<path class="st0" d="M292.1,52.7l2,0.2c-0.3,1.2-0.9,2.1-1.8,2.8c-0.9,0.7-2,1-3.3,1c-1.7,0-3-0.5-4-1.6c-1-1-1.5-2.5-1.5-4.4
			c0-2,0.5-3.5,1.5-4.5c1-1.1,2.3-1.6,3.9-1.6c1.5,0,2.8,0.5,3.8,1.6c1,1.1,1.5,2.5,1.5,4.5c0,0.1,0,0.3,0,0.5h-8.6
			c0.1,1.3,0.4,2.2,1.1,2.9s1.5,1,2.4,1c0.7,0,1.3-0.2,1.9-0.6C291.4,54.2,291.9,53.6,292.1,52.7z M285.7,49.5h6.5
			c-0.1-1-0.3-1.7-0.7-2.2c-0.6-0.8-1.4-1.1-2.4-1.1c-0.9,0-1.7,0.3-2.3,0.9C286.1,47.7,285.8,48.5,285.7,49.5z"/>
	</g>
</g>
</svg>
