<?xml version="1.0" encoding="utf-8"?>
<!-- Generator: Adobe Illustrator 24.1.3, SVG Export Plug-In . SVG Version: 6.00 Build 0)  -->
<svg version="1.1" id="レイヤー_1" xmlns="http://www.w3.org/2000/svg" xmlns:xlink="http://www.w3.org/1999/xlink" x="0px"
	 y="0px" viewBox="0 0 300 60" style="enable-background:new 0 0 300 60;" xml:space="preserve">
<style type="text/css">
	.st0{fill:#231815;}
	.st1{fill:#717071;}
</style>
<g>
	<g>
		<path class="st0" d="M7.82,2.02C8.24,2.21,8.6,2.48,8.88,2.84C9.31,3.48,9.45,4.58,9.46,6.3v18.54c0,0.67-0.01,1.22-0.04,1.66
			c-0.03,0.44-0.08,0.81-0.18,1.13C9.14,27.94,9,28.2,8.8,28.41c-0.18,0.19-0.41,0.36-0.67,0.51c-0.16,0.08-0.32,0.16-0.47,0.22
			l0.1,0.11h2.9V1.92H7.93L7.82,2.02z M14.05,28.92c-0.26-0.15-0.49-0.32-0.67-0.51c-0.2-0.21-0.34-0.48-0.44-0.79
			c-0.1-0.32-0.15-0.69-0.18-1.13c-0.03-0.44-0.04-0.99-0.04-1.66l0-18.54c0.01-1.72,0.15-2.82,0.58-3.46
			c0.27-0.36,0.63-0.63,1.05-0.82l-0.11-0.11h-2.73v27.33h2.9l0.1-0.11C14.37,29.08,14.21,29.01,14.05,28.92z"/>
		<path class="st0" d="M26.54,2.02c0.15,0.06,0.31,0.14,0.45,0.22c0.26,0.15,0.49,0.32,0.67,0.51c0.2,0.21,0.34,0.48,0.44,0.78
			c0.1,0.31,0.15,0.69,0.18,1.13c0.03,0.44,0.04,0.99,0.04,1.66v18.54c-0.01,1.72-0.15,2.82-0.58,3.46
			c-0.28,0.36-0.63,0.63-1.05,0.82l0.11,0.11h2.74V1.92h-2.89L26.54,2.02z M30.39,1.92v27.33h2.86l0.1-0.11
			c-0.14-0.05-0.27-0.12-0.41-0.19c-0.28-0.15-0.51-0.31-0.7-0.49c-0.21-0.21-0.34-0.48-0.43-0.79c-0.09-0.31-0.14-0.68-0.17-1.12
			c-0.02-0.44-0.04-0.99-0.04-1.68v-9.11c0-0.15,0.12-0.26,0.26-0.26h12.69v-1.04H31.87c-0.14,0-0.26-0.12-0.26-0.27V2.74
			c0-0.15,0.12-0.27,0.26-0.27h9.39c0.84,0,1.99,0.04,2.62,0.14c0.64,0.1,1.22,0.31,1.7,0.64c0.49,0.33,0.91,0.8,1.25,1.39
			c0.19,0.33,0.37,0.72,0.54,1.17l0.17-0.16l-0.16-3.56l-0.17-0.18H30.39z"/>
		<path class="st0" d="M102.22,26.32c-1.47-2.18-2.2-4.73-2.2-7.63c0-1.14,0.13-2.26,0.39-3.37c0.26-1.1,0.62-2.15,1.09-3.14
			c0.47-0.99,1.02-1.89,1.67-2.72c0.36-0.46,0.75-0.88,1.15-1.26c-0.78,0.49-1.51,1.08-2.18,1.78c-0.74,0.77-1.38,1.63-1.91,2.56
			c-0.54,0.93-0.95,1.92-1.25,2.96c-0.3,1.04-0.45,2.1-0.45,3.18c0,2.75,0.84,5.13,2.51,7.19c0.87,1.06,1.88,1.92,3.05,2.58
			C103.4,27.85,102.77,27.14,102.22,26.32z M114.63,19.86c0.04,0.02,0.08,0.03,0.11,0.05c0.19,0.1,0.36,0.21,0.51,0.33
			c0.18,0.15,0.32,0.35,0.42,0.6c0.1,0.25,0.17,0.56,0.21,0.93c0.05,0.37,0.06,0.85,0.06,1.44v4.83l-0.05,0.03l-0.09,0.05
			c-1.53,0.87-3.15,1.3-4.86,1.3c-1.24,0-2.43-0.28-3.53-0.85c-1.11-0.56-2.07-1.35-2.89-2.36c-0.82-1.01-1.47-2.22-1.95-3.62
			c-0.48-1.41-0.72-2.96-0.72-4.65c0-1.51,0.2-2.92,0.6-4.22c0.4-1.3,0.97-2.44,1.73-3.4c0.76-0.97,1.7-1.72,2.8-2.27
			c1.11-0.55,2.35-0.82,3.71-0.81c0.01,0,0.02,0,0.02,0c1.86,0,3.46,0.49,4.78,1.48c0.87,0.65,1.6,1.56,2.2,2.72l0.09-0.1V7.55
			l-0.08-0.08c-0.03,0.07-0.07,0.13-0.11,0.19c-0.18,0.25-0.46,0.41-0.76,0.41h-0.01c-0.15,0-0.33-0.03-0.55-0.09
			c-0.23-0.06-0.5-0.15-0.82-0.27c-0.65-0.24-1.2-0.44-1.64-0.58c-0.44-0.14-0.84-0.25-1.2-0.32c-0.36-0.07-0.71-0.12-1.05-0.15
			c-0.34-0.03-0.74-0.04-1.18-0.04c-0.44,0-0.86,0.02-1.28,0.06c-1.27,0.18-2.38,0.62-3.36,1.32c-0.72,0.52-1.38,1.15-1.99,1.93
			c-0.61,0.78-1.14,1.64-1.58,2.58c-0.44,0.94-0.79,1.94-1.04,2.99c-0.25,1.04-0.37,2.11-0.37,3.19c0,2.78,0.69,5.16,2.07,7.22
			c1.75,2.59,4.15,3.95,7.41,4.13c0.23,0,0.46,0.01,0.69,0.01c0.77,0,1.49-0.04,2.17-0.12c0.68-0.08,1.33-0.2,1.97-0.36
			c0.63-0.16,1.26-0.37,1.87-0.62c0,0,0.01,0,0.01,0v-9.16h-2.24L114.63,19.86z M119.66,19.77h-1.96v8.83
			c0.33-0.15,0.66-0.32,0.99-0.5l0-4.89c0-0.71,0.04-1.28,0.13-1.75c0.09-0.46,0.22-0.84,0.42-1.13c0.14-0.2,0.31-0.36,0.51-0.47
			L119.66,19.77z"/>
		<path class="st0" d="M55.84,7.47c0.34,0.15,0.62,0.37,0.84,0.66c0.35,0.51,0.46,1.39,0.46,2.77v14.83c0,0.54-0.01,0.98-0.03,1.33
			c-0.02,0.35-0.07,0.65-0.14,0.9c-0.08,0.25-0.19,0.46-0.35,0.63c-0.15,0.15-0.33,0.29-0.54,0.41c-0.13,0.07-0.25,0.12-0.38,0.17
			l0.08,0.08h2.36V7.38h-2.22L55.84,7.47z M60.98,28.99c-0.21-0.12-0.39-0.25-0.54-0.41c-0.16-0.17-0.27-0.38-0.35-0.63
			c-0.08-0.25-0.12-0.55-0.14-0.9c-0.02-0.35-0.03-0.79-0.03-1.33l0-14.83c0.01-1.37,0.12-2.26,0.47-2.77
			c0.22-0.29,0.5-0.5,0.84-0.65l-0.09-0.09h-2.22v21.87h2.36l0.08-0.08C61.24,29.12,61.11,29.06,60.98,28.99z"/>
		<path class="st0" d="M70.62,7.38l-0.08,0.08c0.23,0.08,0.44,0.16,0.62,0.23c0.25,0.1,0.49,0.24,0.72,0.4
			c0.22,0.16,0.45,0.36,0.69,0.61c0.14,0.14,0.52,0.59,0.98,1.13v15.99c-0.01,1.31-0.1,2.15-0.42,2.61
			c-0.22,0.32-0.52,0.56-0.88,0.72l0.09,0.09h3.49l0.09-0.09c-0.28-0.12-0.52-0.3-0.73-0.52c-0.41-0.49-0.53-1.39-0.54-2.82V11.17
			l15.73,19.19v-1.7L73.02,7.38H70.62z M91.43,7.38h-3.21l-0.09,0.09c0.17,0.09,0.33,0.21,0.46,0.37c0.25,0.28,0.41,0.66,0.52,1.14
			c0.11,0.48,0.16,1.09,0.16,1.85v13.53L75.42,7.38h-1.44l16.39,20.1V10.83c0-0.76,0.05-1.38,0.16-1.85
			c0.11-0.47,0.28-0.85,0.52-1.14c0.13-0.15,0.29-0.27,0.46-0.37L91.43,7.38z"/>
	</g>
	<g>
		<path class="st1" d="M22.55,40.72c-0.08,0.1-0.21,0.17-0.39,0.17c-0.06,0-0.12,0-0.21-0.02c-1.6,1.62-3.91,3.51-5.92,4.97
			c0.17,0.06,0.42,0.19,0.5,0.23c-0.04,0.12-0.23,0.25-0.46,0.27v11.16h-1.52V46.81c-2.2,1.56-5.07,3.24-7.92,4.63
			c-0.21-0.33-0.58-0.85-0.87-1.14c5.67-2.62,11.89-7.07,15.23-10.74L22.55,40.72z"/>
		<path class="st1" d="M42.72,42.05c-0.06,0.1-0.15,0.19-0.27,0.23c-1.64,7.88-5.71,12.55-12.51,14.94
			c-0.23-0.35-0.69-0.91-0.96-1.21c6.44-2.1,10.39-6.73,11.64-13.03H27.04V41.6h14.13l0.29-0.19L42.72,42.05z"/>
		<path class="st1" d="M63.07,40.72c-0.08,0.1-0.21,0.17-0.39,0.17c-0.06,0-0.12,0-0.21-0.02c-1.6,1.62-3.91,3.51-5.92,4.97
			c0.17,0.06,0.42,0.19,0.5,0.23c-0.04,0.12-0.23,0.25-0.46,0.27v11.16h-1.52V46.81c-2.2,1.56-5.07,3.24-7.92,4.63
			c-0.21-0.33-0.58-0.85-0.87-1.14c5.67-2.62,11.89-7.07,15.23-10.74L63.07,40.72z"/>
		<path class="st1" d="M68.16,41.08c2.16,0.69,4.65,1.77,6.19,2.83l-0.79,1.31c-1.5-1.06-3.95-2.16-6.07-2.89L68.16,41.08z
			 M68.08,55.48c7.38-2.29,12.28-6.42,14.78-12.18c0.44,0.35,0.91,0.62,1.35,0.85c-2.6,5.69-7.67,10.12-14.71,12.47
			c-0.02,0.19-0.15,0.39-0.29,0.48L68.08,55.48z"/>
		<path class="st1" d="M102.74,43.53c-0.08,0.12-0.19,0.23-0.31,0.31c-2.2,6.88-5.61,11.03-11.24,13.9
			c-0.23-0.35-0.64-0.83-1.06-1.14c5.34-2.6,8.69-6.59,10.45-12.24h-7.34c-1.21,1.87-2.74,3.62-4.59,5.07
			c-0.27-0.29-0.77-0.69-1.16-0.94c2.83-2.12,5.17-5.4,6.59-9.1l1.95,0.54c-0.06,0.21-0.31,0.29-0.58,0.27
			c-0.42,0.94-0.89,1.93-1.37,2.76h7.23l0.25-0.12L102.74,43.53z M100.16,38.75c0.98,0.79,2.12,2.06,2.72,2.95l-0.77,0.67
			c-0.62-0.96-1.75-2.18-2.68-2.95L100.16,38.75z M103.17,38.15c0.98,0.79,2.12,2.04,2.72,2.95l-0.77,0.64
			c-0.62-0.94-1.7-2.14-2.68-2.93L103.17,38.15z"/>
		<path class="st1" d="M123.31,55.25c0.83-0.02,3.05-0.1,4.36-0.31c0.02,0.46,0.04,1.04,0.08,1.5c-1.37,0.15-3.45,0.23-4.3,0.23
			h-5.2c-3.14,0-4.65-1.37-4.65-4.34V40.2l2.04,0.12c-0.04,0.21-0.19,0.33-0.56,0.37v6.77c3.18-1,7.61-2.66,10.31-4.11l1.06,1.43
			c-0.06,0.04-0.17,0.06-0.25,0.06c-0.1,0-0.19-0.02-0.29-0.06c-2.51,1.27-7.25,3.01-10.83,4.09v3.47c0,2.1,1.02,2.89,3.16,2.89
			H123.31z M125.26,39.6c0.96,0.85,1.99,2.14,2.58,3.05l-0.79,0.6c-0.58-0.91-1.66-2.27-2.54-3.05L125.26,39.6z M127.82,38.35
			c0.94,0.85,2,2.12,2.58,3.03l-0.79,0.6c-0.58-0.91-1.68-2.24-2.54-3.03L127.82,38.35z"/>
		<path class="st1" d="M146.83,55.23v1.16H133.2v-1.16h8.13c0.32-2.02,0.86-5.99,1.06-8.03h-7.61v-1.16h8.01l0.24-0.08l0.98,0.48
			c-0.02,0.08-0.12,0.16-0.24,0.18c-0.26,2.1-0.9,6.47-1.24,8.61H146.83z"/>
		<path class="st1" d="M148.97,47.35h15.62v1.48h-14.91c-0.11,0.21-0.36,0.35-0.6,0.39L148.97,47.35z"/>
		<path class="st1" d="M184.53,47.56h-7.02l0.35,0.1c-0.04,0.12-0.19,0.23-0.42,0.25c-0.56,3.87-1.97,7.31-6.42,9.5
			c-0.25-0.27-0.77-0.77-1.12-1.04c4.32-2.08,5.53-4.99,6.01-8.81h-8.08v-1.39h16.71V47.56z M182.47,41.7h-12.76v-1.39h12.76V41.7z"
			/>
		<path class="st1" d="M199.95,45.22c-0.08,0.1-0.2,0.14-0.34,0.14c-0.1,0-0.18-0.02-0.28-0.04c-1.28,1.28-2.92,2.64-4.4,3.7
			c0.26,0.1,0.38,0.14,0.44,0.18c-0.04,0.08-0.18,0.18-0.34,0.22v8.67h-1.22v-8.33c-1.7,1.2-4.42,2.78-6.57,3.82
			c-0.16-0.24-0.48-0.72-0.72-0.94c3.44-1.58,8.59-4.6,12.05-8.39L199.95,45.22z"/>
		<path class="st1" d="M204.87,47.35h15.62v1.48h-14.91c-0.11,0.21-0.36,0.35-0.6,0.39L204.87,47.35z"/>
		<path class="st1" d="M228.77,48.67c0-2.66,0.71-4.74,2.14-6.24c1.43-1.5,3.27-2.26,5.53-2.26c1.48,0,2.81,0.35,4,1.06
			c1.19,0.71,2.09,1.69,2.72,2.96c0.62,1.26,0.93,2.7,0.93,4.3c0,1.62-0.33,3.08-0.98,4.36c-0.66,1.28-1.58,2.25-2.79,2.91
			c-1.2,0.66-2.5,0.99-3.89,0.99c-1.51,0-2.86-0.36-4.04-1.09c-1.19-0.73-2.09-1.72-2.7-2.98
			C229.07,51.41,228.77,50.07,228.77,48.67z M230.95,48.7c0,1.93,0.52,3.45,1.56,4.56c1.04,1.11,2.34,1.67,3.91,1.67
			c1.6,0,2.91-0.56,3.94-1.68c1.03-1.12,1.55-2.71,1.55-4.78c0-1.3-0.22-2.44-0.66-3.41c-0.44-0.97-1.09-1.73-1.93-2.26
			c-0.85-0.54-1.8-0.8-2.86-0.8c-1.5,0-2.79,0.52-3.87,1.55C231.49,44.57,230.95,46.29,230.95,48.7z"/>
		<path class="st1" d="M247.13,56.47v-11.6h1.77v1.65c0.85-1.27,2.08-1.91,3.69-1.91c0.7,0,1.34,0.13,1.93,0.38
			c0.59,0.25,1.03,0.58,1.32,0.99c0.29,0.41,0.5,0.89,0.61,1.45c0.07,0.36,0.11,1,0.11,1.91v7.14h-1.97v-7.06
			c0-0.8-0.08-1.4-0.23-1.8c-0.15-0.4-0.42-0.71-0.81-0.95c-0.39-0.24-0.85-0.36-1.37-0.36c-0.84,0-1.56,0.27-2.17,0.8
			c-0.61,0.53-0.91,1.54-0.91,3.03v6.34H247.13z"/>
		<path class="st1" d="M260.09,56.47V40.45h1.97v16.02H260.09z"/>
		<path class="st1" d="M265.68,42.71v-2.26h1.97v2.26H265.68z M265.68,56.47v-11.6h1.97v11.6H265.68z"/>
		<path class="st1" d="M271.2,56.47v-11.6h1.77v1.65c0.85-1.27,2.08-1.91,3.69-1.91c0.7,0,1.34,0.13,1.93,0.38
			c0.59,0.25,1.03,0.58,1.32,0.99c0.29,0.41,0.5,0.89,0.61,1.45c0.07,0.36,0.11,1,0.11,1.91v7.14h-1.97v-7.06
			c0-0.8-0.08-1.4-0.23-1.8c-0.15-0.4-0.42-0.71-0.81-0.95c-0.39-0.24-0.85-0.36-1.37-0.36c-0.84,0-1.56,0.27-2.17,0.8
			c-0.61,0.53-0.91,1.54-0.91,3.03v6.34H271.2z"/>
		<path class="st1" d="M292.15,52.73l2.03,0.25c-0.32,1.19-0.91,2.11-1.78,2.76c-0.87,0.66-1.97,0.98-3.32,0.98
			c-1.7,0-3.04-0.52-4.04-1.57c-0.99-1.05-1.49-2.51-1.49-4.4c0-1.95,0.5-3.47,1.51-4.55c1.01-1.08,2.31-1.62,3.91-1.62
			c1.55,0,2.82,0.53,3.8,1.58c0.98,1.06,1.48,2.54,1.48,4.46c0,0.12,0,0.29-0.01,0.52h-8.65c0.07,1.27,0.43,2.25,1.08,2.93
			c0.65,0.68,1.46,1.02,2.43,1.02c0.72,0,1.34-0.19,1.85-0.57C291.44,54.17,291.85,53.56,292.15,52.73z M285.69,49.55h6.48
			c-0.09-0.98-0.34-1.71-0.74-2.2c-0.63-0.76-1.44-1.14-2.44-1.14c-0.9,0-1.66,0.3-2.28,0.91
			C286.09,47.73,285.75,48.54,285.69,49.55z"/>
	</g>
</g>
</svg>
