<?xml version="1.0" encoding="utf-8"?>
<!-- Generator: Adobe Illustrator 24.3.0, SVG Export Plug-In . SVG Version: 6.00 Build 0)  -->
<svg version="1.1" id="Layer_1" xmlns="http://www.w3.org/2000/svg" xmlns:xlink="http://www.w3.org/1999/xlink" x="0px" y="0px"
	 viewBox="0 0 100 100" style="enable-background:new 0 0 100 100;" xml:space="preserve">
<style type="text/css">
	.st0{fill:#FFFFFF;}
	.st1{fill:#231F20;}
	.st2{enable-background:new    ;}
	.st3{clip-path:url(#SVGID_2_);enable-background:new    ;}
	.st4{fill:#121011;}
	.st5{fill:#131111;}
	.st6{fill:#141112;}
	.st7{fill:#141213;}
	.st8{fill:#151313;}
	.st9{fill:#161314;}
	.st10{fill:#161414;}
	.st11{fill:#171415;}
	.st12{fill:#181516;}
	.st13{fill:#191616;}
	.st14{fill:#191617;}
	.st15{fill:#1A1718;}
	.st16{fill:#1B1818;}
	.st17{fill:#1B1819;}
	.st18{fill:#1C191A;}
	.st19{fill:#1D191A;}
	.st20{fill:#1D1A1B;}
	.st21{fill:#1E1B1C;}
	.st22{fill:#1F1B1C;}
	.st23{fill:#201C1D;}
	.st24{fill:#201D1D;}
	.st25{fill:#211D1E;}
	.st26{fill:#221E1F;}
	.st27{clip-path:url(#SVGID_4_);enable-background:new    ;}
	.st28{fill:#3D3A3B;}
	.st29{fill:#484546;}
	.st30{fill:#514E4E;}
	.st31{fill:#585556;}
	.st32{fill:#5E5B5C;}
	.st33{fill:#646162;}
	.st34{fill:#696667;}
	.st35{fill:#6E6B6C;}
	.st36{clip-path:url(#SVGID_6_);enable-background:new    ;}
	.st37{clip-path:url(#SVGID_8_);enable-background:new    ;}
	.st38{clip-path:url(#SVGID_10_);enable-background:new    ;}
	.st39{clip-path:url(#SVGID_12_);enable-background:new    ;}
	.st40{clip-path:url(#SVGID_14_);enable-background:new    ;}
	.st41{clip-path:url(#SVGID_16_);enable-background:new    ;}
	.st42{fill:#141212;}
	.st43{clip-path:url(#SVGID_18_);enable-background:new    ;}
	.st44{clip-path:url(#SVGID_20_);enable-background:new    ;}
	.st45{clip-path:url(#SVGID_22_);enable-background:new    ;}
	.st46{clip-path:url(#SVGID_24_);enable-background:new    ;}
	.st47{clip-path:url(#SVGID_26_);enable-background:new    ;}
	.st48{clip-path:url(#SVGID_28_);enable-background:new    ;}
	.st49{clip-path:url(#SVGID_30_);enable-background:new    ;}
	.st50{clip-path:url(#SVGID_32_);enable-background:new    ;}
</style>
<rect x="0.2" y="0.4" class="st0" width="99.6" height="99.1"/>
<path class="st1" d="M13.8,45.6c0.2,0.5,1.8,0.5,2.2,0.4c-2.6,0.5,0.4,3,0.4,4.1c0,0.6-0.4,1-0.6,1.5c-0.9,2,1,3.6,2.3,4.9
	c-2.6-1.4-3.8-2.7-4.1-5.7c0.3,2.9,1,7.3,5.1,6.7c1.2-0.2,1.2-1.5,1.9-2.2c1-0.9,1.9,0.2,1,1.1c-0.7,0.6-1.7,0.8-2.3,1.6
	c-0.6,0.7-1.1,2.1-0.7,3.1c0.6,1.1,2.1,0.9,3.2,0.8c1.4-0.1,2.2,0.4,3.4,1.3c0.8,0.7,1.8,0.9,2.7,0.9c2.2,0.2,3.6,0.7,4.2,3
	c0.7,2.8,0,5.2-0.9,7.8c-1.3,3.7-0.4,7.8,2.8,10.1c-0.9-1.3-2.2-3.3-2-4.9c0.1-1.1,0.4-2.9,1.1-3.8c3,3.8,3.9,9.4,3.7,14.1
	c0,0.4-0.1,0.8-0.4,1.2c-0.3,0.4-1.1,1.5-0.6,1.7c3.2,1.6,3.3-6.4,6.1-5.4c1.4,0.5,0.2,2.4,1.1,2.8c1.1,0.5,2.7-1.2,3.3-2
	c0.8-1.2,1.8-2.6,3.4-1.9c1.3,0.6,2.1,2.3,3.8,2.2c3.1-0.1,1.4-2.8,0.4-4.1c-0.9-1.2-1.6-3.2-1.2-4.7c0.4-1.9,1.5-1.2,2.9-1.2
	c0.6,0,1.9-0.4,1.5-1.2c-0.3-0.6-1.3-0.4-1.7-1c-0.6-1.1,1-2.7,1.2-3.8c0.5-2.5-1.9-3.5-3.2-5c-0.4-0.4-0.7-1-1.1-1.4
	c-0.8-1.1-3.2-2-2.7-3.6c0.2-0.5,0.9-1.1,1.5-0.9c0.7,0.4,0.6,1.6,0.4,2.2c0.2-1.6-0.1-2.9-1-4.2c-1.1-1.5-1.1-3.5-2.4-4.9
	c-1.9-2.4-5.2-2.8-7.6-4.5c-1.3-1-2.7-1.9-3.8-3.2c-1.1-1.3-1.3-3.2-2-4.7c-0.6-1.2-1.7-2.2-2.4-3.4c-1.1-1.9-0.6-4.1-0.9-6.2
	c-0.3-2-1.1-4.3,0-6.3c1.1-2.2,4.2-2.6,6.4-3.2c0.2,0.9,1.1,1.1,1.9,1c0,0.8,1.5,0.8,2,0.9c1.2,0.2,1.9,0,2.8-0.9
	c0.1,0.4,0.1,0.7,0.1,1.1c0.9-0.6,2,0.4,3,0.5c1.2,0.2,1.8-0.4,2-1.4c0.1,0.4,0.4,1.3,0.8,1.6c0.5,0.4,1.1-0.1,1.7-0.3
	c0.8-0.2,2.4-0.2,2.3,1c0.4-0.4,0.6-0.7,1.1-1.1c-0.4,1.6,2.9,0.8,3.5,1c2.7,1.1,0,6.6-0.5,8.4c-1,2.9-0.7,6.2-2.6,8.7
	c-0.9,1.3-2.1,2.3-2.6,3.9c-0.5,1.5-0.5,3.3,0.2,4.8c0.7,1.6,0.8,3.3,1.2,4.9c0.4,1.5,1.1,2.9,2,4.2c0.6,1.1,1.5,2,1.8,3.2
	c0.4,2.2,0.7,4.5,1.4,6.7c0.8,2.4,1.8,3.3,3.9,4.5c-0.7-0.4-2,0.6-2.3,1.1c-0.3,0.6-0.1,1.3,0.4,1.8c1,0.8,2.7,0.8,4,1
	c0.5,0.1,1.7,0.3,2,0.7c0.4,0.7-0.4,1.1-1.1,1.2c-0.9,0.2-1.8,0.1-2.6,0.3c0.9,1.4,3.4-0.4,4.5,0.3c1.6,1.1-1.8,1.8-2.3,1.9
	c1.3-0.4,3.2-0.4,3.5,1.2c0.2,0.8-0.1,1.6,0,2.4c0.1,0.9,0.5,1.7,1,2.5c-0.2-0.7-0.7-2.6,0.1-3.2c1.1-0.7,1.7,1.3,1.8,2
	c0.7-1.2,1.2-1.7,2.7-1.2c1.9,0.6,2.2,1.6,1.3,3.3c0.4-0.9,1.1-1.9,1.7-2.6c0.4-0.4,0.4-0.5,0.9-0.4c0.5,0.1,1.1,1,0.9,1.5
	c0.2-0.5,0.8-1,1.1-1.4c0.3-0.4,0.4-1,0.6-1.4c0.3-0.6,0.5-1.2,1.3-1.4c0.5-0.1,1.2,0.3,1.3,0.8c0.2,1.1-1.6,1.6-2.4,1.6
	c2.6,1.9,5.4-1.9,2.6-3.4c-1.1-0.6-2-1.2-2.5-2.5c-0.4-0.9-0.5-1.9-0.9-2.8c-0.4-0.9-0.9-1.8-0.9-2.8c0-0.9,0.4-2.4,1.3-2.8
	c0.8-0.4,1.1,0.4,1.1,1c0.2,1.1-0.2,2.1-0.7,3c1.7-1.2,2.7-2.4,2.2-4.7c-0.5-2.1-1-4.7-3-5.9c-1-0.5-2.1-0.5-3.2-1
	c-0.4-0.2-1.3-0.5-1.1-1.1c0.3-0.9,3.6,0.5,4.1,0.8c-2.3-1.4-4.7-1.8-7.1-2.6c-0.5-0.2,1.2-1.5,1.4-1.6c0.8-0.5,1.8-1,2.6-1.4
	c1.9-0.8,3.9-1.2,5.8-2c-2.6,0.4-5,1.7-7.6,1.8c1,0,1.9-2.6,2.1-3.4c0.6-2.6-1.1-3.8-3.1-5.1c0.3,0.2,2.3-3.5,2.5-3.9
	c0.4-1,0.9-2.2,0.6-3.3c-0.4-2-1.9-3.6-2.9-5.4c-1.4-2.5-4-4.3-4.9-7.1c-0.6-1.9-0.6-4-1-5.9c-0.4-1.9-1.5-3.4-2.4-5.2
	c-1.2-2.4-2.2-5-3.9-7.1c-2.6-3.2-7.1-4.4-10.7-6c-5.1-2.3-11.8-1.9-17,0.1c-2.6,1-4.6,2.3-6.2,4.5c-1.4,1.9-2.6,4.1-4.1,5.9
	c-1.2,1.4-2.8,2.3-4.1,3.7c-1.4,1.7-2.4,3.8-2.5,6c0.1-1.4,1.1-2.7,1.9-3.9c0.8-1.1,2-1.6,2.9-2.6c-1.4,1.6-2.2,3.9-3.4,5.6
	c-1.1,1.6-2.3,3-2.2,4.9c0.1,1.4,0.7,2.8,0.7,4.2c0,1.6-1.1,2.7-1.5,4.1c-0.4,1.1-0.1,2.6-1.2,3.3C15.8,44.4,13.4,44.6,13.8,45.6z
	 M75.9,45.6c-0.2,0.2-1.7,0.9-1.7,0.9c0-0.4,0.9-4.1,1.1-3.9C76.1,43.4,76.8,44.6,75.9,45.6z M74.2,51.1c-0.2,0.1-0.4,0.2-0.6,0.2
	c-0.4,0-0.9-0.4-0.8-0.9c0.1-0.5,1.1-0.9,1.5-1.1c0,0,1.8-0.5,1.5-0.1C75.6,49.9,74.9,50.6,74.2,51.1z M74.1,55.1
	c2,0,3.5,1.9,2.6,3.7c-0.3,0.4-0.5,0.8-0.9,1.1c-0.2,0.2-0.5,0.4-0.7,0.4c0.1-1.1,0.3-2.2-0.1-3.3C74.7,56.5,74,55.9,74.1,55.1z
	 M76.6,68.1c-1.2-0.2-2.5-0.3-3.6,0.1c0.5-0.2,0.7-0.8,1.3-0.9c0.6-0.1,1.3,0.1,1.9,0.1c1,0,2.5-0.1,3,1
	C78.3,68.3,77.4,68.2,76.6,68.1z M74.8,68.8c0.5,0,1.5,0.3,1,0.9c-0.4,0.5-1.9,0.4-2.6,0.1c-0.1,0-0.2-0.1-0.3-0.1
	C71.7,68.8,74.3,68.7,74.8,68.8z M73.8,46.9c0.3-0.1,2.9-0.3,2.9-0.3c-0.1,0.2-0.2,0.4-0.4,0.4c-1.1,0.8-2.5,1.1-3.7,1.8
	C72.1,47.8,72.8,47.2,73.8,46.9z M71.7,37.4c1.2,0.4,2.8,1.5,3.3,2.7c0.1,0.2-2-0.4-2.2-0.5c-0.4-0.3-0.8-0.6-1-1.1
	C71.7,38.5,71.5,37.3,71.7,37.4z M53.6,68.3c0.7,1,1.9,2.2,2.2,3.4c0.1,0.5,0,1.1-0.2,1.7c0,0,0,0,0,0.1c-0.9-0.4-1.4-1.2-1.7-2.2
	c-0.2-0.4-0.3-1-0.3-1.5C53.5,69.4,53.6,68.4,53.6,68.3z M46.8,80.6l1,0.4c1.3,0.4,3.8,0.6,3.9,2.5c-1-0.3-1.6-1.4-2.7-1.6
	c-0.2,0-0.4-0.1-0.5-0.2C47.6,81.4,47.4,80.8,46.8,80.6z M46.4,56.2v-1.1c0,0.3,0.6,0.4,0.7,0.6c0.3,0.3,0.4,0.6,0.6,1.1
	c0.4,1.1,0.3,2.3,0.2,3.4c0,0.4-0.1,3.8,0.4,3.8C45.3,63.8,46.4,58.2,46.4,56.2z M20.8,40.8c0,0.9-0.7,1.8-1.3,2.3
	c-0.5,0.4-1.1,0.7-1.5,1.3c0.1-0.4,0.2-1.1,0.5-1.4c0.3-0.3,1.1-1.4,1.5-1.7C20.1,41.1,20.5,40.9,20.8,40.8z M17.9,52.8
	c0.9-0.5,2.5,0.2,2.6,1.2c0,1.1-1.5,2-2.5,1.5c-0.1,0-0.1-0.1-0.2-0.1C17.1,54.9,17,53.4,17.9,52.8z M17.4,50.4
	c0.2,0.9,0,1.7-0.4,2.5c-0.2,0.4-0.5,0.8-0.7,1.2c-0.1-0.4-0.3-0.9-0.3-1.3c0-0.3,0.3-1.8,0.3-1.8C16.7,50.8,16.9,50.5,17.4,50.4z
	 M16.1,46.1c0.4,0.3,0.8,1,0.5,1.4l-0.1,0.1c-0.3,0.2-0.7,0.2-0.9-0.1C15.4,47.1,15.9,46.4,16.1,46.1z"/>
<g>
	<g>
		<g class="st2">
			<g class="st2">
				<defs>
					<path id="SVGID_1_" class="st2" d="M2.2,97.7l95.9,0c0,0,0.4,0.4,1,1l-97.9,0C1.8,98.1,2.2,97.7,2.2,97.7z"/>
				</defs>
				<clipPath id="SVGID_2_">
					<use xlink:href="#SVGID_1_"  style="overflow:visible;"/>
				</clipPath>
				<g class="st3">
					<path class="st4" d="M98.1,97.7H2.2c0,0,0,0,0,0L98.1,97.7C98.1,97.7,98.1,97.7,98.1,97.7"/>
					<path class="st5" d="M98.2,97.7h-96c0,0,0,0,0,0L98.2,97.7C98.2,97.7,98.2,97.7,98.2,97.7"/>
					<path class="st6" d="M98.2,97.7h-96c0,0,0,0,0,0L98.2,97.7C98.2,97.7,98.2,97.7,98.2,97.7"/>
					<path class="st7" d="M98.2,97.7H2.1c0,0,0,0,0,0L98.2,97.7C98.2,97.8,98.2,97.8,98.2,97.7"/>
					<path class="st8" d="M98.2,97.8H2.1c0,0,0,0,0,0L98.2,97.8C98.2,97.8,98.2,97.8,98.2,97.8"/>
					<path class="st9" d="M98.2,97.8H2.1c0,0,0,0,0,0L98.2,97.8C98.3,97.8,98.3,97.8,98.2,97.8"/>
					<path class="st10" d="M98.3,97.8H2.1c0,0,0,0,0,0L98.3,97.8C98.3,97.8,98.3,97.8,98.3,97.8"/>
					<path class="st11" d="M98.3,97.8H2c0,0,0,0,0,0L98.3,97.8C98.3,97.9,98.3,97.8,98.3,97.8"/>
					<path class="st12" d="M98.3,97.9H2c0,0,0,0,0,0L98.3,97.9C98.4,97.9,98.3,97.9,98.3,97.9"/>
					<path class="st13" d="M98.4,97.9H2c0,0,0,0,0,0L98.4,97.9C98.4,97.9,98.4,97.9,98.4,97.9"/>
					<path class="st14" d="M98.4,97.9H1.9c0,0,0,0,0,0L98.4,97.9C98.4,98,98.4,98,98.4,97.9"/>
					<path class="st15" d="M98.5,98H1.9c0,0,0,0-0.1,0.1L98.5,98C98.5,98,98.5,98,98.5,98"/>
					<path class="st16" d="M98.5,98H1.8c0,0,0,0-0.1,0.1L98.5,98C98.5,98.1,98.5,98.1,98.5,98"/>
					<path class="st17" d="M98.6,98.1H1.8c0,0,0,0-0.1,0.1L98.6,98.1C98.6,98.1,98.6,98.1,98.6,98.1"/>
					<path class="st18" d="M98.6,98.2H1.7c0,0,0,0-0.1,0.1L98.6,98.2C98.7,98.2,98.6,98.2,98.6,98.2"/>
					<path class="st19" d="M98.7,98.2h-97c0,0,0,0-0.1,0.1L98.7,98.2C98.7,98.3,98.7,98.2,98.7,98.2"/>
					<path class="st20" d="M98.7,98.3H1.6c0,0,0,0-0.1,0.1L98.7,98.3C98.8,98.3,98.8,98.3,98.7,98.3"/>
					<path class="st21" d="M98.8,98.3H1.5c0,0,0,0-0.1,0.1L98.8,98.3C98.8,98.4,98.8,98.4,98.8,98.3"/>
					<path class="st22" d="M98.9,98.4H1.5c0,0,0,0-0.1,0.1L98.9,98.4C98.9,98.4,98.9,98.4,98.9,98.4"/>
					<path class="st23" d="M98.9,98.4H1.4c0,0,0,0-0.1,0.1L98.9,98.4C99,98.5,98.9,98.5,98.9,98.4"/>
					<path class="st24" d="M99,98.5H1.4c0,0,0,0,0,0L99,98.5C99,98.5,99,98.5,99,98.5"/>
					<path class="st25" d="M99,98.5H1.3c0,0,0,0,0,0L99,98.5C99.1,98.6,99,98.6,99,98.5"/>
					<path class="st26" d="M99.1,98.6H1.3c0,0,0,0,0,0L99.1,98.6C99.1,98.6,99.1,98.6,99.1,98.6"/>
					<path class="st26" d="M99.1,98.6H1.2c0,0,0,0,0,0L99.1,98.6C99.1,98.7,99.1,98.7,99.1,98.6"/>
				</g>
			</g>
			<g class="st2">
				<defs>
					<path id="SVGID_3_" class="st2" d="M99.1,98.7l-97.9,0c0,0,0.4-0.5,1-1l95.9,0C98.7,98.2,99.1,98.7,99.1,98.7z"/>
				</defs>
				<clipPath id="SVGID_4_">
					<use xlink:href="#SVGID_3_"  style="overflow:visible;"/>
				</clipPath>
				<g class="st27">
					<polyline class="st7" points="1.2,98.7 99.1,98.7 99.1,98.7 1.2,98.7 1.2,98.7 					"/>
					<polyline class="st8" points="1.2,98.7 99.1,98.7 99.1,98.7 1.2,98.7 1.2,98.7 					"/>
					<polyline class="st9" points="1.2,98.7 99.1,98.7 99.1,98.7 1.2,98.7 1.2,98.7 					"/>
					<polyline class="st10" points="1.2,98.7 99.1,98.7 99.1,98.7 1.2,98.7 1.2,98.7 					"/>
					<polyline class="st11" points="1.2,98.7 99.1,98.7 99.1,98.7 1.2,98.7 1.2,98.7 					"/>
					<polyline class="st12" points="1.2,98.7 99.1,98.7 99.1,98.7 1.2,98.7 1.2,98.7 					"/>
					<polyline class="st13" points="1.2,98.7 99.1,98.7 99.1,98.7 1.2,98.7 1.2,98.7 					"/>
					<polyline class="st14" points="1.2,98.7 99.1,98.7 99.1,98.7 1.2,98.7 1.2,98.7 					"/>
					<polyline class="st15" points="1.2,98.7 99.1,98.7 99.1,98.7 1.2,98.7 1.2,98.7 					"/>
					<polyline class="st16" points="1.2,98.7 99.1,98.7 99.1,98.6 1.2,98.6 1.2,98.7 					"/>
					<polyline class="st17" points="1.2,98.6 99.1,98.6 99.1,98.6 1.2,98.6 1.2,98.6 					"/>
					<polyline class="st18" points="1.2,98.6 99.1,98.6 99.1,98.6 1.2,98.6 1.2,98.6 					"/>
					<polyline class="st19" points="1.2,98.6 99.1,98.6 99.1,98.6 1.3,98.6 1.2,98.6 					"/>
					<path class="st20" d="M1.3,98.6h97.8c0,0,0,0,0,0L1.3,98.6C1.3,98.6,1.3,98.6,1.3,98.6"/>
					<path class="st21" d="M1.3,98.6h97.8c0,0,0,0,0,0L1.3,98.6C1.3,98.6,1.3,98.6,1.3,98.6"/>
					<path class="st22" d="M1.3,98.6h97.8c0,0,0,0,0,0L1.3,98.6C1.3,98.6,1.3,98.6,1.3,98.6"/>
					<path class="st23" d="M1.3,98.6H99c0,0,0,0,0,0L1.3,98.6C1.3,98.6,1.3,98.6,1.3,98.6"/>
					<path class="st24" d="M1.3,98.6H99c0,0,0,0,0,0L1.3,98.6C1.3,98.5,1.3,98.6,1.3,98.6"/>
					<path class="st25" d="M1.3,98.5H99c0,0,0,0,0,0L1.3,98.5C1.3,98.5,1.3,98.5,1.3,98.5"/>
					<path class="st26" d="M1.4,98.5H99c0,0,0,0,0,0L1.4,98.5C1.4,98.5,1.4,98.5,1.4,98.5"/>
					<path class="st26" d="M1.4,98.5H99c0,0,0,0,0,0L1.4,98.5C1.4,98.5,1.4,98.5,1.4,98.5"/>
					<path class="st1" d="M1.4,98.5h97.6c0,0,0,0,0,0L1.4,98.5C1.4,98.5,1.4,98.5,1.4,98.5"/>
					<path class="st28" d="M1.4,98.5h97.5c0,0,0,0,0,0L1.4,98.5C1.4,98.5,1.4,98.5,1.4,98.5"/>
					<path class="st29" d="M1.4,98.4h97.5c0,0,0,0,0,0L1.4,98.4C1.4,98.4,1.4,98.4,1.4,98.4"/>
					<path class="st30" d="M1.4,98.4h97.4c0,0,0,0,0,0L1.4,98.4C1.5,98.4,1.5,98.4,1.4,98.4"/>
					<path class="st31" d="M1.5,98.4h97.4c0,0,0,0,0,0L1.5,98.4C1.5,98.4,1.5,98.4,1.5,98.4"/>
					<path class="st32" d="M1.5,98.4h97.3c0,0,0,0,0,0L1.5,98.4C1.5,98.4,1.5,98.4,1.5,98.4"/>
					<path class="st33" d="M1.5,98.3h97.3c0,0,0,0,0,0L1.5,98.3C1.5,98.3,1.5,98.3,1.5,98.3"/>
					<path class="st34" d="M1.6,98.3h97.2c0,0,0,0-0.1-0.1L1.6,98.3C1.6,98.3,1.6,98.3,1.6,98.3"/>
					<path class="st35" d="M1.6,98.3h97.1c0,0-0.1-0.1-0.1-0.1H1.8C1.7,98.2,1.7,98.2,1.6,98.3"/>
					<path class="st34" d="M1.8,98.1h96.8c0,0-0.1-0.1-0.1-0.1L1.8,98.1C1.8,98.1,1.8,98.1,1.8,98.1"/>
					<path class="st33" d="M1.8,98h96.7c0,0,0,0-0.1-0.1L1.8,98C1.9,98,1.8,98,1.8,98"/>
					<path class="st32" d="M1.9,98h96.6c0,0,0,0-0.1-0.1L1.9,98C1.9,97.9,1.9,98,1.9,98"/>
					<path class="st31" d="M1.9,97.9h96.5c0,0,0,0,0,0L1.9,97.9C2,97.9,2,97.9,1.9,97.9"/>
					<path class="st30" d="M2,97.9h96.4c0,0,0,0,0,0L2,97.9C2,97.8,2,97.9,2,97.9"/>
					<path class="st29" d="M2,97.8h96.3c0,0,0,0,0,0L2,97.8C2.1,97.8,2.1,97.8,2,97.8"/>
					<path class="st28" d="M2.1,97.8h96.2c0,0,0,0,0,0L2.1,97.8C2.1,97.8,2.1,97.8,2.1,97.8"/>
					<path class="st1" d="M2.1,97.7h96.1c0,0,0,0,0,0L2.1,97.7C2.2,97.7,2.1,97.7,2.1,97.7"/>
					<path class="st26" d="M2.2,97.7h96c0,0,0,0,0,0L2.2,97.7C2.2,97.7,2.2,97.7,2.2,97.7"/>
				</g>
			</g>
			<g class="st2">
				<defs>
					<path id="SVGID_5_" class="st2" d="M98.1,97.7l0-95.9c0,0,0.4-0.5,1-1l0,97.9C98.6,98.1,98.1,97.7,98.1,97.7z"/>
				</defs>
				<clipPath id="SVGID_6_">
					<use xlink:href="#SVGID_5_"  style="overflow:visible;"/>
				</clipPath>
				<g class="st36">
					<polyline class="st7" points="98.1,1.8 98.1,97.7 98.1,97.7 98.1,1.8 98.1,1.8 					"/>
					<polyline class="st8" points="98.1,1.8 98.1,97.7 98.1,97.7 98.1,1.8 98.1,1.8 					"/>
					<polyline class="st9" points="98.1,1.8 98.1,97.7 98.1,97.7 98.1,1.8 98.1,1.8 					"/>
					<polyline class="st10" points="98.1,1.8 98.1,97.7 98.1,97.7 98.1,1.8 98.1,1.8 					"/>
					<polyline class="st11" points="98.1,1.8 98.1,97.7 98.1,97.7 98.1,1.8 98.1,1.8 					"/>
					<polyline class="st12" points="98.1,1.8 98.1,97.7 98.1,97.7 98.1,1.8 98.1,1.8 					"/>
					<polyline class="st13" points="98.1,1.8 98.1,97.7 98.1,97.7 98.1,1.8 98.1,1.8 					"/>
					<polyline class="st14" points="98.1,1.8 98.1,97.7 98.1,97.7 98.1,1.8 98.1,1.8 					"/>
					<polyline class="st15" points="98.1,1.8 98.1,97.7 98.1,97.7 98.1,1.8 98.1,1.8 					"/>
					<polyline class="st16" points="98.1,1.8 98.1,97.7 98.1,97.7 98.1,1.8 98.1,1.8 					"/>
					<polyline class="st17" points="98.1,1.8 98.1,97.7 98.2,97.7 98.2,1.8 98.1,1.8 					"/>
					<polyline class="st18" points="98.2,1.8 98.2,97.7 98.2,97.7 98.2,1.8 98.2,1.8 					"/>
					<polyline class="st19" points="98.2,1.8 98.2,97.7 98.2,97.7 98.2,1.8 98.2,1.8 					"/>
					<polyline class="st20" points="98.2,1.8 98.2,97.7 98.2,97.7 98.2,1.8 98.2,1.8 					"/>
					<path class="st21" d="M98.2,1.8v96c0,0,0,0,0,0L98.2,1.8C98.2,1.8,98.2,1.8,98.2,1.8"/>
					<path class="st22" d="M98.2,1.7v96c0,0,0,0,0,0L98.2,1.7C98.2,1.7,98.2,1.7,98.2,1.7"/>
					<path class="st23" d="M98.2,1.7v96c0,0,0,0,0,0L98.2,1.7C98.2,1.7,98.2,1.7,98.2,1.7"/>
					<path class="st24" d="M98.2,1.7v96c0,0,0,0,0,0L98.2,1.7C98.2,1.7,98.2,1.7,98.2,1.7"/>
					<path class="st25" d="M98.2,1.7v96.1c0,0,0,0,0,0L98.2,1.7C98.3,1.7,98.2,1.7,98.2,1.7"/>
					<path class="st26" d="M98.3,1.7v96.1c0,0,0,0,0,0L98.3,1.7C98.3,1.7,98.3,1.7,98.3,1.7"/>
					<path class="st26" d="M98.3,1.7v96.2c0,0,0,0,0,0L98.3,1.7C98.3,1.6,98.3,1.6,98.3,1.7"/>
					<path class="st1" d="M98.3,1.6v96.2c0,0,0,0,0,0L98.3,1.6C98.3,1.6,98.3,1.6,98.3,1.6"/>
					<path class="st28" d="M98.3,1.6v96.2c0,0,0,0,0,0L98.3,1.6C98.3,1.6,98.3,1.6,98.3,1.6"/>
					<path class="st29" d="M98.3,1.6v96.3c0,0,0,0,0,0L98.3,1.6C98.3,1.6,98.3,1.6,98.3,1.6"/>
					<path class="st30" d="M98.4,1.6v96.3c0,0,0,0,0,0L98.4,1.6C98.4,1.6,98.4,1.6,98.4,1.6"/>
					<path class="st31" d="M98.4,1.6v96.4c0,0,0,0,0,0L98.4,1.6C98.4,1.5,98.4,1.5,98.4,1.6"/>
					<path class="st32" d="M98.4,1.5v96.4c0,0,0,0,0,0L98.4,1.5C98.4,1.5,98.4,1.5,98.4,1.5"/>
					<path class="st33" d="M98.4,1.5V98c0,0,0,0,0,0L98.4,1.5C98.4,1.5,98.4,1.5,98.4,1.5"/>
					<path class="st34" d="M98.5,1.5V98c0,0,0,0,0,0L98.5,1.5C98.5,1.4,98.5,1.5,98.5,1.5"/>
					<path class="st35" d="M98.5,1.4V98c0.1,0.1,0.1,0.1,0.2,0.2v-97C98.6,1.3,98.6,1.4,98.5,1.4"/>
					<path class="st34" d="M98.7,1.2v97c0,0,0,0,0.1,0.1L98.7,1.2C98.7,1.2,98.7,1.2,98.7,1.2"/>
					<path class="st33" d="M98.8,1.2v97.1c0,0,0,0,0.1,0.1L98.8,1.2C98.8,1.1,98.8,1.1,98.8,1.2"/>
					<path class="st32" d="M98.8,1.1v97.3c0,0,0,0,0,0L98.8,1.1C98.9,1.1,98.8,1.1,98.8,1.1"/>
					<path class="st31" d="M98.9,1.1v97.4c0,0,0,0,0,0L98.9,1.1C98.9,1,98.9,1,98.9,1.1"/>
					<path class="st30" d="M98.9,1v97.4c0,0,0,0,0,0L98.9,1C98.9,1,98.9,1,98.9,1"/>
					<path class="st29" d="M99,1v97.5c0,0,0,0,0,0L99,1C99,0.9,99,0.9,99,1"/>
					<path class="st28" d="M99,0.9v97.6c0,0,0,0,0,0L99,0.9C99,0.9,99,0.9,99,0.9"/>
					<path class="st1" d="M99.1,0.9v97.7c0,0,0,0,0,0L99.1,0.9C99.1,0.8,99.1,0.9,99.1,0.9"/>
					<path class="st26" d="M99.1,0.8v97.8c0,0,0,0,0,0L99.1,0.8C99.1,0.8,99.1,0.8,99.1,0.8"/>
				</g>
			</g>
			<g class="st2">
				<defs>
					<path id="SVGID_7_" class="st2" d="M1.2,98.7l0-97.9c0,0,0.4,0.4,1,1l0,95.9C1.7,98.2,1.2,98.7,1.2,98.7z"/>
				</defs>
				<clipPath id="SVGID_8_">
					<use xlink:href="#SVGID_7_"  style="overflow:visible;"/>
				</clipPath>
				<g class="st37">
					<polyline class="st7" points="1.2,0.8 1.2,98.7 1.2,98.7 1.2,0.8 1.2,0.8 					"/>
					<polyline class="st8" points="1.2,0.8 1.2,98.7 1.2,98.7 1.2,0.8 1.2,0.8 					"/>
					<polyline class="st9" points="1.2,0.8 1.2,98.7 1.2,98.7 1.2,0.8 1.2,0.8 					"/>
					<polyline class="st10" points="1.2,0.8 1.2,98.7 1.2,98.7 1.2,0.8 1.2,0.8 					"/>
					<polyline class="st11" points="1.2,0.8 1.2,98.7 1.2,98.7 1.2,0.8 1.2,0.8 					"/>
					<polyline class="st12" points="1.2,0.8 1.2,98.7 1.2,98.7 1.2,0.8 1.2,0.8 					"/>
					<polyline class="st13" points="1.2,0.8 1.2,98.7 1.2,98.7 1.2,0.8 1.2,0.8 					"/>
					<polyline class="st14" points="1.2,0.8 1.2,98.7 1.2,98.7 1.2,0.8 1.2,0.8 					"/>
					<polyline class="st15" points="1.2,0.8 1.2,98.7 1.2,98.7 1.2,0.8 1.2,0.8 					"/>
					<polyline class="st16" points="1.2,0.8 1.2,98.7 1.2,98.7 1.2,0.8 1.2,0.8 					"/>
					<polyline class="st17" points="1.2,0.8 1.2,98.7 1.2,98.6 1.2,0.8 1.2,0.8 					"/>
					<polyline class="st18" points="1.2,0.8 1.2,98.6 1.2,98.6 1.2,0.8 1.2,0.8 					"/>
					<polyline class="st19" points="1.2,0.8 1.2,98.6 1.2,98.6 1.2,0.8 1.2,0.8 					"/>
					<polyline class="st20" points="1.2,0.8 1.2,98.6 1.3,98.6 1.3,0.9 1.2,0.8 					"/>
					<path class="st21" d="M1.3,0.9v97.8c0,0,0,0,0,0L1.3,0.9C1.3,0.9,1.3,0.9,1.3,0.9"/>
					<path class="st22" d="M1.3,0.9v97.7c0,0,0,0,0,0L1.3,0.9C1.3,0.9,1.3,0.9,1.3,0.9"/>
					<path class="st23" d="M1.3,0.9v97.7c0,0,0,0,0,0L1.3,0.9C1.3,0.9,1.3,0.9,1.3,0.9"/>
					<path class="st24" d="M1.3,0.9v97.7c0,0,0,0,0,0L1.3,0.9C1.3,0.9,1.3,0.9,1.3,0.9"/>
					<path class="st25" d="M1.3,0.9v97.6c0,0,0,0,0,0L1.3,0.9C1.3,0.9,1.3,0.9,1.3,0.9"/>
					<path class="st26" d="M1.3,0.9v97.6c0,0,0,0,0,0L1.3,0.9C1.3,0.9,1.3,0.9,1.3,0.9"/>
					<path class="st26" d="M1.4,1v97.6c0,0,0,0,0,0L1.4,1C1.4,1,1.4,1,1.4,1"/>
					<path class="st1" d="M1.4,1v97.5c0,0,0,0,0,0L1.4,1C1.4,1,1.4,1,1.4,1"/>
					<path class="st28" d="M1.4,1v97.5c0,0,0,0,0,0L1.4,1C1.4,1,1.4,1,1.4,1"/>
					<path class="st29" d="M1.4,1v97.4c0,0,0,0,0,0L1.4,1C1.4,1,1.4,1,1.4,1"/>
					<path class="st30" d="M1.4,1v97.4c0,0,0,0,0,0L1.4,1C1.4,1,1.4,1,1.4,1"/>
					<path class="st31" d="M1.5,1.1v97.4c0,0,0,0,0,0L1.5,1.1C1.5,1.1,1.5,1.1,1.5,1.1"/>
					<path class="st32" d="M1.5,1.1v97.3c0,0,0,0,0,0L1.5,1.1C1.5,1.1,1.5,1.1,1.5,1.1"/>
					<path class="st33" d="M1.5,1.1v97.3c0,0,0,0,0,0L1.5,1.1C1.5,1.1,1.5,1.1,1.5,1.1"/>
					<path class="st34" d="M1.5,1.1v97.2c0,0,0,0,0,0L1.5,1.1C1.6,1.2,1.6,1.1,1.5,1.1"/>
					<path class="st35" d="M1.6,1.2v97.1c0.1-0.1,0.1-0.1,0.2-0.2V1.4C1.7,1.3,1.6,1.2,1.6,1.2"/>
					<path class="st34" d="M1.8,1.4v96.7c0,0,0,0,0.1-0.1L1.8,1.4C1.8,1.4,1.8,1.4,1.8,1.4"/>
					<path class="st33" d="M1.8,1.4V98c0,0,0,0,0.1-0.1L1.8,1.4C1.9,1.5,1.9,1.5,1.8,1.4"/>
					<path class="st32" d="M1.9,1.5V98c0,0,0,0,0,0L1.9,1.5C1.9,1.5,1.9,1.5,1.9,1.5"/>
					<path class="st31" d="M2,1.5v96.4c0,0,0,0,0,0L2,1.5C2,1.6,2,1.6,2,1.5"/>
					<path class="st30" d="M2,1.6v96.3c0,0,0,0,0,0L2,1.6C2,1.6,2,1.6,2,1.6"/>
					<path class="st29" d="M2,1.6v96.2c0,0,0,0,0,0L2,1.6C2.1,1.7,2.1,1.6,2,1.6"/>
					<path class="st28" d="M2.1,1.7v96.1c0,0,0,0,0,0L2.1,1.7C2.1,1.7,2.1,1.7,2.1,1.7"/>
					<path class="st1" d="M2.1,1.7v96c0,0,0,0,0,0L2.1,1.7C2.2,1.8,2.1,1.7,2.1,1.7"/>
					<path class="st26" d="M2.2,1.8v95.9c0,0,0,0,0,0L2.2,1.8C2.2,1.8,2.2,1.8,2.2,1.8"/>
				</g>
			</g>
			<g class="st2">
				<defs>
					<path id="SVGID_9_" class="st2" d="M99.1,0.8l0,97.9c0,0-0.4-0.5-1-1l0-95.9C98.7,1.2,99.1,0.8,99.1,0.8z"/>
				</defs>
				<clipPath id="SVGID_10_">
					<use xlink:href="#SVGID_9_"  style="overflow:visible;"/>
				</clipPath>
				<g class="st38">
					<path class="st4" d="M99.1,98.7V0.8c0,0,0,0,0,0L99.1,98.7C99.1,98.7,99.1,98.7,99.1,98.7"/>
					<path class="st5" d="M99.1,98.6V0.9c0,0,0,0,0,0L99.1,98.6C99.1,98.6,99.1,98.6,99.1,98.6"/>
					<path class="st6" d="M99.1,98.6V0.9c0,0,0,0,0,0L99.1,98.6C99,98.6,99.1,98.6,99.1,98.6"/>
					<path class="st7" d="M99,98.6V0.9c0,0,0,0,0,0L99,98.6C99,98.6,99,98.6,99,98.6"/>
					<path class="st8" d="M99,98.6V0.9c0,0,0,0,0,0L99,98.6C99,98.5,99,98.6,99,98.6"/>
					<path class="st9" d="M99,98.5V0.9c0,0,0,0,0,0L99,98.5C99,98.5,99,98.5,99,98.5"/>
					<path class="st10" d="M99,98.5V1c0,0,0,0,0,0L99,98.5C99,98.5,99,98.5,99,98.5"/>
					<path class="st11" d="M98.9,98.5V1c0,0,0,0,0,0L98.9,98.5C98.9,98.5,98.9,98.5,98.9,98.5"/>
					<path class="st12" d="M98.9,98.4V1c0,0,0,0,0,0L98.9,98.4C98.9,98.4,98.9,98.4,98.9,98.4"/>
					<path class="st13" d="M98.9,98.4V1.1c0,0,0,0,0,0L98.9,98.4C98.8,98.4,98.9,98.4,98.9,98.4"/>
					<path class="st14" d="M98.8,98.4V1.1c0,0,0,0,0,0L98.8,98.4C98.8,98.3,98.8,98.4,98.8,98.4"/>
					<path class="st15" d="M98.8,98.3V1.1c0,0,0,0-0.1,0.1L98.8,98.3C98.7,98.3,98.8,98.3,98.8,98.3"/>
					<path class="st16" d="M98.7,98.3V1.2c0,0,0,0-0.1,0.1L98.7,98.3C98.7,98.2,98.7,98.2,98.7,98.3"/>
					<path class="st17" d="M98.7,98.2V1.3c0,0,0,0-0.1,0.1L98.7,98.2C98.6,98.2,98.7,98.2,98.7,98.2"/>
					<path class="st18" d="M98.6,98.1V1.3c0,0,0,0-0.1,0.1L98.6,98.1C98.6,98.1,98.6,98.1,98.6,98.1"/>
					<path class="st19" d="M98.6,98.1V1.4c0,0,0,0-0.1,0.1L98.6,98.1C98.5,98,98.5,98.1,98.6,98.1"/>
					<path class="st20" d="M98.5,98V1.4c0,0,0,0-0.1,0.1L98.5,98C98.5,98,98.5,98,98.5,98"/>
					<path class="st21" d="M98.4,98V1.5c0,0,0,0-0.1,0.1L98.4,98C98.4,97.9,98.4,98,98.4,98"/>
					<path class="st22" d="M98.4,97.9V1.5c0,0,0,0-0.1,0.1L98.4,97.9C98.3,97.9,98.4,97.9,98.4,97.9"/>
					<path class="st23" d="M98.3,97.9V1.6c0,0,0,0-0.1,0.1L98.3,97.9C98.3,97.8,98.3,97.8,98.3,97.9"/>
					<path class="st24" d="M98.3,97.8V1.6c0,0,0,0,0,0L98.3,97.8C98.3,97.8,98.3,97.8,98.3,97.8"/>
					<path class="st25" d="M98.2,97.8V1.7c0,0,0,0,0,0L98.2,97.8C98.2,97.7,98.2,97.8,98.2,97.8"/>
					<path class="st26" d="M98.2,97.7v-96c0,0,0,0,0,0L98.2,97.7C98.2,97.7,98.2,97.7,98.2,97.7"/>
					<path class="st26" d="M98.1,97.7V1.8c0,0,0,0,0,0L98.1,97.7C98.1,97.7,98.1,97.7,98.1,97.7"/>
				</g>
			</g>
			<g class="st2">
				<defs>
					<path id="SVGID_11_" class="st2" d="M98.1,1.8l-95.9,0c0,0-0.4-0.5-1-1l97.9,0C98.6,1.3,98.1,1.8,98.1,1.8z"/>
				</defs>
				<clipPath id="SVGID_12_">
					<use xlink:href="#SVGID_11_"  style="overflow:visible;"/>
				</clipPath>
				<g class="st39">
					<polyline class="st7" points="2.2,1.8 98.1,1.8 98.1,1.8 2.2,1.8 2.2,1.8 					"/>
					<polyline class="st8" points="2.2,1.8 98.1,1.8 98.1,1.8 2.2,1.8 2.2,1.8 					"/>
					<polyline class="st9" points="2.2,1.8 98.1,1.8 98.1,1.8 2.2,1.8 2.2,1.8 					"/>
					<polyline class="st10" points="2.2,1.8 98.1,1.8 98.1,1.8 2.2,1.8 2.2,1.8 					"/>
					<polyline class="st11" points="2.2,1.8 98.1,1.8 98.1,1.8 2.2,1.8 2.2,1.8 					"/>
					<polyline class="st12" points="2.2,1.8 98.1,1.8 98.1,1.8 2.2,1.8 2.2,1.8 					"/>
					<polyline class="st13" points="2.2,1.8 98.1,1.8 98.1,1.8 2.2,1.8 2.2,1.8 					"/>
					<polyline class="st14" points="2.2,1.8 98.1,1.8 98.1,1.8 2.2,1.8 2.2,1.8 					"/>
					<polyline class="st15" points="2.2,1.8 98.1,1.8 98.1,1.8 2.2,1.8 2.2,1.8 					"/>
					<polyline class="st16" points="2.2,1.8 98.1,1.8 98.2,1.8 2.2,1.8 2.2,1.8 					"/>
					<polyline class="st17" points="2.2,1.8 98.2,1.8 98.2,1.8 2.2,1.8 2.2,1.8 					"/>
					<polyline class="st18" points="2.2,1.8 98.2,1.8 98.2,1.8 2.2,1.8 2.2,1.8 					"/>
					<polyline class="st19" points="2.2,1.8 98.2,1.8 98.2,1.8 2.2,1.8 2.2,1.8 					"/>
					<path class="st20" d="M2.2,1.8h96c0,0,0,0,0,0L2.2,1.8C2.2,1.8,2.2,1.8,2.2,1.8"/>
					<path class="st21" d="M2.1,1.7h96c0,0,0,0,0,0L2.1,1.7C2.1,1.7,2.1,1.7,2.1,1.7"/>
					<path class="st22" d="M2.1,1.7h96.1c0,0,0,0,0,0L2.1,1.7C2.1,1.7,2.1,1.7,2.1,1.7"/>
					<path class="st23" d="M2.1,1.7h96.1c0,0,0,0,0,0L2.1,1.7C2.1,1.7,2.1,1.7,2.1,1.7"/>
					<path class="st24" d="M2.1,1.7h96.1c0,0,0,0,0,0L2.1,1.7C2.1,1.7,2.1,1.7,2.1,1.7"/>
					<path class="st25" d="M2.1,1.7h96.2c0,0,0,0,0,0L2.1,1.7C2.1,1.7,2.1,1.7,2.1,1.7"/>
					<path class="st26" d="M2.1,1.7h96.2c0,0,0,0,0,0L2.1,1.7C2,1.6,2.1,1.7,2.1,1.7"/>
					<path class="st26" d="M2,1.6h96.2c0,0,0,0,0,0L2,1.6C2,1.6,2,1.6,2,1.6"/>
					<path class="st1" d="M2,1.6h96.3c0,0,0,0,0,0L2,1.6C2,1.6,2,1.6,2,1.6"/>
					<path class="st28" d="M2,1.6h96.3c0,0,0,0,0,0L2,1.6C2,1.6,2,1.6,2,1.6"/>
					<path class="st29" d="M2,1.6h96.4c0,0,0,0,0,0L2,1.6C2,1.6,2,1.6,2,1.6"/>
					<path class="st30" d="M2,1.6h96.4c0,0,0,0,0,0L2,1.6C2,1.5,2,1.6,2,1.6"/>
					<path class="st31" d="M1.9,1.5h96.4c0,0,0,0,0,0L1.9,1.5C1.9,1.5,1.9,1.5,1.9,1.5"/>
					<path class="st32" d="M1.9,1.5h96.5c0,0,0,0,0,0L1.9,1.5C1.9,1.5,1.9,1.5,1.9,1.5"/>
					<path class="st33" d="M1.9,1.5h96.6c0,0,0,0,0,0L1.9,1.5C1.9,1.5,1.9,1.5,1.9,1.5"/>
					<path class="st34" d="M1.9,1.4h96.6c0,0,0,0,0.1-0.1L1.9,1.4C1.8,1.4,1.8,1.4,1.9,1.4"/>
					<path class="st35" d="M1.8,1.4h96.7c0,0,0.1-0.1,0.1-0.1h-97C1.7,1.3,1.8,1.3,1.8,1.4"/>
					<path class="st34" d="M1.7,1.3h97c0,0,0.1-0.1,0.1-0.1L1.7,1.3C1.6,1.2,1.6,1.2,1.7,1.3"/>
					<path class="st33" d="M1.6,1.2h97.2c0,0,0,0,0.1-0.1L1.6,1.2C1.5,1.1,1.6,1.2,1.6,1.2"/>
					<path class="st32" d="M1.5,1.1h97.3c0,0,0,0,0.1-0.1L1.5,1.1C1.5,1.1,1.5,1.1,1.5,1.1"/>
					<path class="st31" d="M1.5,1.1h97.4c0,0,0,0,0,0L1.5,1.1C1.4,1,1.5,1,1.5,1.1"/>
					<path class="st30" d="M1.4,1h97.5c0,0,0,0,0,0L1.4,1C1.4,1,1.4,1,1.4,1"/>
					<path class="st29" d="M1.4,1H99c0,0,0,0,0,0L1.4,1C1.3,0.9,1.4,1,1.4,1"/>
					<path class="st28" d="M1.3,0.9H99c0,0,0,0,0,0L1.3,0.9C1.3,0.9,1.3,0.9,1.3,0.9"/>
					<path class="st1" d="M1.3,0.9H99c0,0,0,0,0,0L1.3,0.9C1.3,0.8,1.3,0.9,1.3,0.9"/>
					<path class="st26" d="M1.2,0.8h97.9c0,0,0,0,0,0L1.2,0.8C1.2,0.8,1.2,0.8,1.2,0.8"/>
				</g>
			</g>
			<g class="st2">
				<defs>
					<path id="SVGID_13_" class="st2" d="M2.2,1.8l0,95.9c0,0-0.4,0.4-1,1l0-97.9C1.8,1.3,2.2,1.8,2.2,1.8z"/>
				</defs>
				<clipPath id="SVGID_14_">
					<use xlink:href="#SVGID_13_"  style="overflow:visible;"/>
				</clipPath>
				<g class="st40">
					<path class="st4" d="M2.2,97.7V1.8c0,0,0,0,0-0.1L2.2,97.7C2.2,97.7,2.2,97.7,2.2,97.7"/>
					<path class="st5" d="M2.2,97.7v-96c0,0,0,0,0,0L2.2,97.7C2.1,97.7,2.2,97.7,2.2,97.7"/>
					<path class="st6" d="M2.1,97.7v-96c0,0,0,0,0,0L2.1,97.7C2.1,97.7,2.1,97.7,2.1,97.7"/>
					<path class="st7" d="M2.1,97.8v-96c0,0,0,0,0,0L2.1,97.8C2.1,97.8,2.1,97.8,2.1,97.8"/>
					<path class="st8" d="M2.1,97.8V1.7c0,0,0,0,0,0L2.1,97.8C2.1,97.8,2.1,97.8,2.1,97.8"/>
					<path class="st9" d="M2.1,97.8V1.7c0,0,0,0,0,0L2.1,97.8C2.1,97.8,2.1,97.8,2.1,97.8"/>
					<path class="st10" d="M2.1,97.8V1.6c0,0,0,0,0,0L2.1,97.8C2,97.8,2,97.8,2.1,97.8"/>
					<path class="st11" d="M2,97.9V1.6c0,0,0,0,0,0L2,97.9C2,97.9,2,97.9,2,97.9"/>
					<path class="st12" d="M2,97.9V1.6c0,0,0,0,0,0L2,97.9C2,97.9,2,97.9,2,97.9"/>
					<path class="st13" d="M2,97.9V1.5c0,0,0,0,0,0L2,97.9C1.9,97.9,1.9,97.9,2,97.9"/>
					<path class="st14" d="M1.9,98V1.5c0,0,0,0,0,0L1.9,98C1.9,98,1.9,98,1.9,98"/>
					<path class="st15" d="M1.9,98V1.5c0,0,0,0-0.1-0.1L1.9,98C1.8,98,1.8,98,1.9,98"/>
					<path class="st16" d="M1.8,98.1V1.4c0,0,0,0-0.1-0.1L1.8,98.1C1.8,98.1,1.8,98.1,1.8,98.1"/>
					<path class="st17" d="M1.7,98.1V1.3c0,0,0,0-0.1-0.1L1.7,98.1C1.7,98.2,1.7,98.1,1.7,98.1"/>
					<path class="st18" d="M1.7,98.2V1.3c0,0,0,0-0.1-0.1L1.7,98.2C1.7,98.2,1.7,98.2,1.7,98.2"/>
					<path class="st19" d="M1.6,98.2v-97c0,0,0,0-0.1-0.1L1.6,98.2C1.6,98.3,1.6,98.3,1.6,98.2"/>
					<path class="st20" d="M1.6,98.3V1.2c0,0,0,0-0.1-0.1L1.6,98.3C1.5,98.3,1.6,98.3,1.6,98.3"/>
					<path class="st21" d="M1.5,98.4V1.1c0,0,0,0-0.1-0.1L1.5,98.4C1.5,98.4,1.5,98.4,1.5,98.4"/>
					<path class="st22" d="M1.5,98.4V1.1c0,0,0,0-0.1-0.1L1.5,98.4C1.4,98.4,1.4,98.4,1.5,98.4"/>
					<path class="st23" d="M1.4,98.5V1c0,0,0,0-0.1-0.1L1.4,98.5C1.4,98.5,1.4,98.5,1.4,98.5"/>
					<path class="st24" d="M1.4,98.5V1c0,0,0,0,0,0L1.4,98.5C1.3,98.5,1.3,98.5,1.4,98.5"/>
					<path class="st25" d="M1.3,98.6V0.9c0,0,0,0,0,0L1.3,98.6C1.3,98.6,1.3,98.6,1.3,98.6"/>
					<path class="st26" d="M1.3,98.6V0.9c0,0,0,0,0,0L1.3,98.6C1.2,98.6,1.3,98.6,1.3,98.6"/>
					<path class="st26" d="M1.2,98.6V0.8c0,0,0,0,0,0L1.2,98.6C1.2,98.7,1.2,98.7,1.2,98.6"/>
				</g>
			</g>
			<g class="st2">
				<defs>
					<path id="SVGID_15_" class="st2" d="M1.2,0.8l97.9,0c0,0-0.4,0.4-1,1l-95.9,0C1.7,1.2,1.2,0.8,1.2,0.8z"/>
				</defs>
				<clipPath id="SVGID_16_">
					<use xlink:href="#SVGID_15_"  style="overflow:visible;"/>
				</clipPath>
				<g class="st41">
					<path class="st4" d="M99.1,0.8H1.2c0,0,0,0,0,0L99.1,0.8C99.1,0.8,99.1,0.8,99.1,0.8"/>
					<path class="st5" d="M99.1,0.8H1.2c0,0,0,0,0,0L99.1,0.8C99.1,0.9,99.1,0.9,99.1,0.8"/>
					<path class="st6" d="M99.1,0.9H1.3c0,0,0,0,0,0L99.1,0.9C99.1,0.9,99.1,0.9,99.1,0.9"/>
					<path class="st7" d="M99,0.9H1.3c0,0,0,0,0,0L99,0.9C99,0.9,99,0.9,99,0.9"/>
					<path class="st8" d="M99,0.9H1.3c0,0,0,0,0,0L99,0.9C99,0.9,99,0.9,99,0.9"/>
					<path class="st9" d="M99,0.9H1.3c0,0,0,0,0,0L99,0.9C99,0.9,99,0.9,99,0.9"/>
					<path class="st10" d="M99,0.9H1.4c0,0,0,0,0,0L99,0.9C99,1,99,1,99,0.9"/>
					<path class="st11" d="M99,1H1.4c0,0,0,0,0,0L99,1C98.9,1,98.9,1,99,1"/>
					<path class="st12" d="M98.9,1H1.4c0,0,0,0,0,0L98.9,1C98.9,1,98.9,1,98.9,1"/>
					<path class="st13" d="M98.9,1H1.4c0,0,0,0,0,0L98.9,1C98.9,1.1,98.9,1.1,98.9,1"/>
					<path class="st14" d="M98.8,1.1H1.5c0,0,0,0,0,0L98.8,1.1C98.8,1.1,98.8,1.1,98.8,1.1"/>
					<path class="st15" d="M98.8,1.1H1.5c0,0,0,0,0.1,0.1L98.8,1.1C98.8,1.2,98.8,1.1,98.8,1.1"/>
					<path class="st16" d="M98.7,1.2H1.6c0,0,0,0,0.1,0.1L98.7,1.2C98.7,1.2,98.7,1.2,98.7,1.2"/>
					<path class="st17" d="M98.7,1.2h-97c0,0,0,0,0.1,0.1L98.7,1.2C98.6,1.3,98.7,1.3,98.7,1.2"/>
					<path class="st18" d="M98.6,1.3H1.7c0,0,0,0,0.1,0.1L98.6,1.3C98.6,1.3,98.6,1.3,98.6,1.3"/>
					<path class="st19" d="M98.6,1.4H1.8c0,0,0,0,0.1,0.1L98.6,1.4C98.5,1.4,98.5,1.4,98.6,1.4"/>
					<path class="st20" d="M98.5,1.4H1.8c0,0,0,0,0.1,0.1L98.5,1.4C98.5,1.5,98.5,1.4,98.5,1.4"/>
					<path class="st21" d="M98.4,1.5H1.9c0,0,0,0,0.1,0.1L98.4,1.5C98.4,1.5,98.4,1.5,98.4,1.5"/>
					<path class="st22" d="M98.4,1.5H1.9c0,0,0,0,0.1,0.1L98.4,1.5C98.4,1.6,98.4,1.6,98.4,1.5"/>
					<path class="st23" d="M98.3,1.6H2c0,0,0,0,0.1,0.1L98.3,1.6C98.3,1.6,98.3,1.6,98.3,1.6"/>
					<path class="st24" d="M98.3,1.6H2c0,0,0,0,0,0L98.3,1.6C98.3,1.7,98.3,1.7,98.3,1.6"/>
					<path class="st25" d="M98.2,1.7H2.1c0,0,0,0,0,0L98.2,1.7C98.2,1.7,98.2,1.7,98.2,1.7"/>
					<path class="st26" d="M98.2,1.7h-96c0,0,0,0,0,0L98.2,1.7C98.2,1.8,98.2,1.8,98.2,1.7"/>
					<path class="st26" d="M98.1,1.8H2.2c0,0,0,0,0,0L98.1,1.8C98.1,1.8,98.1,1.8,98.1,1.8"/>
				</g>
			</g>
			<g>
				<rect x="1.2" y="98.7" class="st42" width="97.9" height="0.1"/>
			</g>
			<g>
				<rect x="2.2" y="97.7" class="st42" width="95.9" height="0.1"/>
			</g>
			<g class="st2">
				<defs>
					<path id="SVGID_17_" class="st2" d="M98.1,97.8c0.6,0.6,1,1,1,1l-97.9,0c0,0,0.4-0.4,1-1C2.2,97.8,98.1,97.8,98.1,97.8z"/>
				</defs>
				<clipPath id="SVGID_18_">
					<use xlink:href="#SVGID_17_"  style="overflow:visible;"/>
				</clipPath>
				<g class="st43">
					<path class="st26" d="M2.2,97.8h95.9c0,0,0,0,0,0L2.2,97.8C2.2,97.8,2.2,97.8,2.2,97.8"/>
					<path class="st26" d="M2.2,97.8h95.9c0,0,0,0,0,0L2.2,97.8C2.2,97.9,2.2,97.9,2.2,97.8"/>
					<path class="st25" d="M2.1,97.9h96c0,0,0,0,0,0L2.1,97.9C2.1,97.9,2.1,97.9,2.1,97.9"/>
					<path class="st24" d="M2.1,97.9h96.1c0,0,0,0,0,0L2.1,97.9C2.1,98,2.1,98,2.1,97.9"/>
					<path class="st23" d="M2,98h96.2c0,0,0,0,0.1,0.1L2,98C2,98,2,98,2,98"/>
					<path class="st22" d="M2,98h96.3c0,0,0,0,0.1,0.1L2,98C2,98.1,2,98.1,2,98"/>
					<path class="st21" d="M1.9,98.1h96.5c0,0,0,0,0.1,0.1L1.9,98.1C1.9,98.1,1.9,98.1,1.9,98.1"/>
					<path class="st20" d="M1.9,98.2h96.6c0,0,0,0,0.1,0.1L1.9,98.2C1.8,98.2,1.9,98.2,1.9,98.2"/>
					<path class="st19" d="M1.8,98.2h96.7c0,0,0,0,0.1,0.1L1.8,98.2C1.8,98.3,1.8,98.2,1.8,98.2"/>
					<path class="st18" d="M1.8,98.3h96.8c0,0,0,0,0.1,0.1L1.8,98.3C1.7,98.3,1.7,98.3,1.8,98.3"/>
					<path class="st17" d="M1.7,98.3h96.9c0,0,0,0,0.1,0.1L1.7,98.3C1.7,98.4,1.7,98.4,1.7,98.3"/>
					<path class="st16" d="M1.6,98.4h97c0,0,0,0,0.1,0.1L1.6,98.4C1.6,98.4,1.6,98.4,1.6,98.4"/>
					<path class="st15" d="M1.6,98.4h97.2c0,0,0,0,0.1,0.1L1.6,98.4C1.6,98.5,1.6,98.5,1.6,98.4"/>
					<path class="st14" d="M1.5,98.5h97.3c0,0,0,0,0,0L1.5,98.5C1.5,98.5,1.5,98.5,1.5,98.5"/>
					<path class="st13" d="M1.5,98.5h97.4c0,0,0,0,0,0L1.5,98.5C1.5,98.6,1.5,98.6,1.5,98.5"/>
					<path class="st12" d="M1.4,98.6h97.4c0,0,0,0,0,0L1.4,98.6C1.4,98.6,1.4,98.6,1.4,98.6"/>
					<path class="st11" d="M1.4,98.6h97.5c0,0,0,0,0,0L1.4,98.6C1.4,98.6,1.4,98.6,1.4,98.6"/>
					<path class="st10" d="M1.4,98.7H99c0,0,0,0,0,0L1.4,98.7C1.4,98.7,1.4,98.7,1.4,98.7"/>
					<path class="st9" d="M1.4,98.7H99c0,0,0,0,0,0L1.4,98.7C1.3,98.7,1.3,98.7,1.4,98.7"/>
					<path class="st8" d="M1.3,98.7H99c0,0,0,0,0,0L1.3,98.7C1.3,98.7,1.3,98.7,1.3,98.7"/>
					<path class="st7" d="M1.3,98.7H99c0,0,0,0,0,0L1.3,98.7C1.3,98.7,1.3,98.7,1.3,98.7"/>
					<path class="st6" d="M1.3,98.7H99c0,0,0,0,0,0L1.3,98.7C1.3,98.8,1.3,98.8,1.3,98.7"/>
					<path class="st5" d="M1.3,98.8h97.8c0,0,0,0,0,0L1.3,98.8C1.3,98.8,1.3,98.8,1.3,98.8"/>
					<path class="st4" d="M1.2,98.8h97.8c0,0,0,0,0,0L1.2,98.8C1.2,98.8,1.2,98.8,1.2,98.8"/>
				</g>
			</g>
			<g class="st2">
				<defs>
					<path id="SVGID_19_" class="st2" d="M1.2,98.8c0.6-0.6,1-1,1-1l95.9,0c0,0,0.4,0.5,1,1C99.1,98.8,1.2,98.8,1.2,98.8z"/>
				</defs>
				<clipPath id="SVGID_20_">
					<use xlink:href="#SVGID_19_"  style="overflow:visible;"/>
				</clipPath>
				<g class="st44">
					<path class="st26" d="M99.1,98.8H1.2c0,0,0,0,0,0L99.1,98.8C99.1,98.8,99.1,98.8,99.1,98.8"/>
					<path class="st1" d="M99.1,98.8H1.2c0,0,0,0,0,0L99.1,98.8C99.1,98.8,99.1,98.8,99.1,98.8"/>
					<path class="st28" d="M99,98.8H1.3c0,0,0,0,0,0L99,98.8C99,98.7,99,98.7,99,98.8"/>
					<path class="st29" d="M99,98.7H1.3c0,0,0,0,0,0L99,98.7C99,98.7,99,98.7,99,98.7"/>
					<path class="st30" d="M99,98.7H1.4c0,0,0,0,0,0L99,98.7C98.9,98.6,98.9,98.6,99,98.7"/>
					<path class="st31" d="M98.9,98.6H1.4c0,0,0,0,0,0L98.9,98.6C98.9,98.6,98.9,98.6,98.9,98.6"/>
					<path class="st32" d="M98.9,98.6H1.5c0,0,0,0,0.1-0.1L98.9,98.6C98.8,98.5,98.8,98.6,98.9,98.6"/>
					<path class="st33" d="M98.8,98.5H1.5c0,0,0,0,0.1-0.1L98.8,98.5C98.8,98.5,98.8,98.5,98.8,98.5"/>
					<path class="st34" d="M98.8,98.5H1.6c0,0,0.1-0.1,0.1-0.1L98.8,98.5C98.7,98.4,98.7,98.4,98.8,98.5"/>
					<path class="st35" d="M98.7,98.4h-97c0,0,0.1-0.1,0.1-0.1h96.7C98.6,98.3,98.6,98.3,98.7,98.4"/>
					<path class="st34" d="M98.5,98.2H1.8c0,0,0,0,0.1-0.1L98.5,98.2C98.5,98.2,98.5,98.2,98.5,98.2"/>
					<path class="st33" d="M98.5,98.2H1.9c0,0,0,0,0,0L98.5,98.2C98.5,98.2,98.5,98.2,98.5,98.2"/>
					<path class="st32" d="M98.4,98.1H1.9c0,0,0,0,0,0L98.4,98.1C98.4,98.1,98.4,98.1,98.4,98.1"/>
					<path class="st31" d="M98.4,98.1H1.9c0,0,0,0,0,0L98.4,98.1C98.4,98.1,98.4,98.1,98.4,98.1"/>
					<path class="st30" d="M98.4,98.1H1.9c0,0,0,0,0,0L98.4,98.1C98.4,98.1,98.4,98.1,98.4,98.1"/>
					<path class="st29" d="M98.4,98.1H2c0,0,0,0,0,0L98.4,98.1C98.4,98.1,98.4,98.1,98.4,98.1"/>
					<path class="st28" d="M98.3,98H2c0,0,0,0,0,0L98.3,98C98.3,98,98.3,98,98.3,98"/>
					<path class="st1" d="M98.3,98H2c0,0,0,0,0,0L98.3,98C98.3,98,98.3,98,98.3,98"/>
					<path class="st26" d="M98.3,98H2c0,0,0,0,0,0L98.3,98C98.3,98,98.3,98,98.3,98"/>
					<path class="st26" d="M98.3,98H2c0,0,0,0,0,0L98.3,98C98.3,98,98.3,98,98.3,98"/>
					<path class="st25" d="M98.3,98H2.1c0,0,0,0,0,0L98.3,98C98.3,98,98.3,98,98.3,98"/>
					<path class="st24" d="M98.3,98H2.1c0,0,0,0,0,0L98.3,98C98.2,97.9,98.2,97.9,98.3,98"/>
					<path class="st23" d="M98.2,97.9H2.1c0,0,0,0,0,0L98.2,97.9C98.2,97.9,98.2,97.9,98.2,97.9"/>
					<path class="st22" d="M98.2,97.9H2.1c0,0,0,0,0,0L98.2,97.9C98.2,97.9,98.2,97.9,98.2,97.9"/>
					<path class="st21" d="M98.2,97.9H2.1c0,0,0,0,0,0L98.2,97.9C98.2,97.9,98.2,97.9,98.2,97.9"/>
					<path class="st20" d="M98.2,97.9h-96c0,0,0,0,0,0L98.2,97.9C98.2,97.9,98.2,97.9,98.2,97.9"/>
					<polyline class="st19" points="98.2,97.9 2.2,97.9 2.2,97.9 98.2,97.9 98.2,97.9 					"/>
					<polyline class="st18" points="98.2,97.9 2.2,97.9 2.2,97.9 98.2,97.9 98.2,97.9 					"/>
					<polyline class="st17" points="98.2,97.9 2.2,97.9 2.2,97.8 98.2,97.8 98.2,97.9 					"/>
					<polyline class="st16" points="98.2,97.8 2.2,97.8 2.2,97.8 98.1,97.8 98.2,97.8 					"/>
					<polyline class="st15" points="98.1,97.8 2.2,97.8 2.2,97.8 98.1,97.8 98.1,97.8 					"/>
					<polyline class="st14" points="98.1,97.8 2.2,97.8 2.2,97.8 98.1,97.8 98.1,97.8 					"/>
					<polyline class="st13" points="98.1,97.8 2.2,97.8 2.2,97.8 98.1,97.8 98.1,97.8 					"/>
					<polyline class="st12" points="98.1,97.8 2.2,97.8 2.2,97.8 98.1,97.8 98.1,97.8 					"/>
					<polyline class="st11" points="98.1,97.8 2.2,97.8 2.2,97.8 98.1,97.8 98.1,97.8 					"/>
					<polyline class="st10" points="98.1,97.8 2.2,97.8 2.2,97.8 98.1,97.8 98.1,97.8 					"/>
					<polyline class="st9" points="98.1,97.8 2.2,97.8 2.2,97.8 98.1,97.8 98.1,97.8 					"/>
					<polyline class="st8" points="98.1,97.8 2.2,97.8 2.2,97.8 98.1,97.8 98.1,97.8 					"/>
					<polyline class="st7" points="98.1,97.8 2.2,97.8 2.2,97.8 98.1,97.8 98.1,97.8 					"/>
				</g>
			</g>
			<g>
				<rect x="1.2" y="0.8" class="st42" width="97.9" height="0.1"/>
			</g>
			<g class="st2">
				<defs>
					<path id="SVGID_21_" class="st2" d="M98.1,2c0.6-0.6,1-1,1-1l0,97.9c0,0-0.4-0.4-1-1C98.1,97.8,98.1,2,98.1,2z"/>
				</defs>
				<clipPath id="SVGID_22_">
					<use xlink:href="#SVGID_21_"  style="overflow:visible;"/>
				</clipPath>
				<g class="st45">
					<path class="st26" d="M98.1,97.8V2c0,0,0,0,0,0L98.1,97.8C98.1,97.9,98.1,97.8,98.1,97.8"/>
					<path class="st1" d="M98.2,97.9V1.9c0,0,0,0,0,0L98.2,97.9C98.2,97.9,98.2,97.9,98.2,97.9"/>
					<path class="st28" d="M98.2,97.9v-96c0,0,0,0,0,0L98.2,97.9C98.2,97.9,98.2,97.9,98.2,97.9"/>
					<path class="st29" d="M98.2,98V1.9c0,0,0,0,0,0L98.2,98C98.3,98,98.3,98,98.2,98"/>
					<path class="st30" d="M98.3,98V1.8c0,0,0,0,0,0L98.3,98C98.3,98,98.3,98,98.3,98"/>
					<path class="st31" d="M98.3,98V1.8c0,0,0,0,0,0L98.3,98C98.4,98.1,98.4,98.1,98.3,98"/>
					<path class="st32" d="M98.4,98.1V1.7c0,0,0,0,0,0L98.4,98.1C98.4,98.1,98.4,98.1,98.4,98.1"/>
					<path class="st33" d="M98.4,98.1V1.7c0,0,0,0,0.1-0.1L98.4,98.1C98.5,98.2,98.4,98.2,98.4,98.1"/>
					<path class="st34" d="M98.5,98.2V1.6c0,0,0,0,0.1-0.1L98.5,98.2C98.5,98.2,98.5,98.2,98.5,98.2"/>
					<path class="st35" d="M98.6,98.3V1.5c0.1-0.1,0.1-0.1,0.2-0.2v97.1C98.7,98.4,98.6,98.3,98.6,98.3"/>
					<path class="st34" d="M98.7,98.5V1.3c0,0,0,0,0,0L98.7,98.5C98.8,98.5,98.8,98.5,98.7,98.5"/>
					<path class="st33" d="M98.8,98.5V1.3c0,0,0,0,0,0L98.8,98.5C98.8,98.5,98.8,98.5,98.8,98.5"/>
					<path class="st32" d="M98.8,98.5V1.3c0,0,0,0,0,0L98.8,98.5C98.8,98.5,98.8,98.5,98.8,98.5"/>
					<path class="st31" d="M98.9,98.6V1.2c0,0,0,0,0,0L98.9,98.6C98.9,98.6,98.9,98.6,98.9,98.6"/>
					<path class="st30" d="M98.9,98.6V1.2c0,0,0,0,0,0L98.9,98.6C98.9,98.6,98.9,98.6,98.9,98.6"/>
					<path class="st29" d="M98.9,98.6V1.2c0,0,0,0,0,0L98.9,98.6C98.9,98.6,98.9,98.6,98.9,98.6"/>
					<path class="st28" d="M98.9,98.6V1.2c0,0,0,0,0,0L98.9,98.6C98.9,98.6,98.9,98.6,98.9,98.6"/>
					<path class="st1" d="M98.9,98.6V1.2c0,0,0,0,0,0L98.9,98.6C99,98.7,98.9,98.6,98.9,98.6"/>
					<path class="st26" d="M99,98.7V1.1c0,0,0,0,0,0L99,98.7C99,98.7,99,98.7,99,98.7"/>
					<path class="st26" d="M99,98.7V1.1c0,0,0,0,0,0L99,98.7C99,98.7,99,98.7,99,98.7"/>
					<path class="st25" d="M99,98.7V1.1c0,0,0,0,0,0L99,98.7C99,98.7,99,98.7,99,98.7"/>
					<path class="st24" d="M99,98.7V1.1c0,0,0,0,0,0L99,98.7C99,98.7,99,98.7,99,98.7"/>
					<path class="st23" d="M99,98.7V1.1c0,0,0,0,0,0L99,98.7C99,98.7,99,98.7,99,98.7"/>
					<path class="st22" d="M99.1,98.8V1c0,0,0,0,0,0L99.1,98.8C99.1,98.8,99.1,98.8,99.1,98.8"/>
					<path class="st21" d="M99.1,98.8V1c0,0,0,0,0,0L99.1,98.8C99.1,98.8,99.1,98.8,99.1,98.8"/>
					<polyline class="st20" points="99.1,98.8 99.1,1 99.1,1 99.1,98.8 99.1,98.8 					"/>
					<polyline class="st19" points="99.1,98.8 99.1,1 99.1,1 99.1,98.8 99.1,98.8 					"/>
					<polyline class="st18" points="99.1,98.8 99.1,1 99.1,1 99.1,98.8 99.1,98.8 					"/>
					<polyline class="st17" points="99.1,98.8 99.1,1 99.1,1 99.1,98.8 99.1,98.8 					"/>
					<polyline class="st16" points="99.1,98.8 99.1,1 99.1,1 99.1,98.8 99.1,98.8 					"/>
					<polyline class="st15" points="99.1,98.8 99.1,1 99.1,1 99.1,98.8 99.1,98.8 					"/>
					<polyline class="st14" points="99.1,98.8 99.1,1 99.1,1 99.1,98.8 99.1,98.8 					"/>
					<polyline class="st13" points="99.1,98.8 99.1,1 99.1,1 99.1,98.8 99.1,98.8 					"/>
					<polyline class="st12" points="99.1,98.8 99.1,1 99.1,1 99.1,98.8 99.1,98.8 					"/>
					<polyline class="st11" points="99.1,98.8 99.1,1 99.1,1 99.1,98.8 99.1,98.8 					"/>
					<polyline class="st10" points="99.1,98.8 99.1,1 99.1,1 99.1,98.8 99.1,98.8 					"/>
					<polyline class="st9" points="99.1,98.8 99.1,1 99.1,1 99.1,98.8 99.1,98.8 					"/>
					<polyline class="st8" points="99.1,98.8 99.1,1 99.1,1 99.1,98.8 99.1,98.8 					"/>
					<polyline class="st7" points="99.1,98.8 99.1,1 99.1,1 99.1,98.8 99.1,98.8 					"/>
				</g>
			</g>
			<g class="st2">
				<defs>
					<path id="SVGID_23_" class="st2" d="M99.1,98.8c-0.6-0.6-1-1-1-1l0-95.9c0,0,0.4-0.4,1-1C99.1,1,99.1,98.8,99.1,98.8z"/>
				</defs>
				<clipPath id="SVGID_24_">
					<use xlink:href="#SVGID_23_"  style="overflow:visible;"/>
				</clipPath>
				<g class="st46">
					<path class="st26" d="M99.1,1v97.9c0,0,0,0,0,0L99.1,1C99.1,1,99.1,1,99.1,1"/>
					<path class="st26" d="M99.1,1v97.8c0,0,0,0,0,0L99.1,1C99.1,1,99.1,1,99.1,1"/>
					<path class="st25" d="M99.1,1v97.7c0,0,0,0,0,0L99.1,1C99,1.1,99.1,1,99.1,1"/>
					<path class="st24" d="M99,1.1v97.6c0,0,0,0,0,0L99,1.1C99,1.1,99,1.1,99,1.1"/>
					<path class="st23" d="M99,1.1v97.6c0,0,0,0-0.1-0.1L99,1.1C98.9,1.2,99,1.1,99,1.1"/>
					<path class="st22" d="M98.9,1.2v97.5c0,0,0,0-0.1-0.1L98.9,1.2C98.9,1.2,98.9,1.2,98.9,1.2"/>
					<path class="st21" d="M98.9,1.2v97.3c0,0,0,0-0.1-0.1L98.9,1.2C98.8,1.3,98.9,1.2,98.9,1.2"/>
					<path class="st20" d="M98.8,1.3v97.2c0,0,0,0-0.1-0.1L98.8,1.3C98.8,1.3,98.8,1.3,98.8,1.3"/>
					<path class="st19" d="M98.8,1.3v97.1c0,0,0,0-0.1-0.1L98.8,1.3C98.7,1.4,98.7,1.4,98.8,1.3"/>
					<path class="st18" d="M98.7,1.4v97c0,0,0,0-0.1-0.1L98.7,1.4C98.7,1.4,98.7,1.4,98.7,1.4"/>
					<path class="st17" d="M98.6,1.5v96.9c0,0,0,0-0.1-0.1L98.6,1.5C98.6,1.5,98.6,1.5,98.6,1.5"/>
					<path class="st16" d="M98.6,1.5v96.8c0,0,0,0-0.1-0.1L98.6,1.5C98.5,1.6,98.6,1.5,98.6,1.5"/>
					<path class="st15" d="M98.5,1.6v96.7c0,0,0,0-0.1-0.1L98.5,1.6C98.5,1.6,98.5,1.6,98.5,1.6"/>
					<path class="st14" d="M98.5,1.6v96.6c0,0,0,0,0,0L98.5,1.6C98.4,1.7,98.5,1.6,98.5,1.6"/>
					<path class="st13" d="M98.4,1.7v96.5c0,0,0,0,0,0L98.4,1.7C98.4,1.7,98.4,1.7,98.4,1.7"/>
					<path class="st12" d="M98.4,1.7v96.4c0,0,0,0,0,0L98.4,1.7C98.4,1.7,98.4,1.7,98.4,1.7"/>
					<path class="st11" d="M98.3,1.7V98c0,0,0,0,0,0L98.3,1.7C98.3,1.8,98.3,1.8,98.3,1.7"/>
					<path class="st10" d="M98.3,1.8V98c0,0,0,0,0,0L98.3,1.8C98.3,1.8,98.3,1.8,98.3,1.8"/>
					<path class="st9" d="M98.3,1.8V98c0,0,0,0,0,0L98.3,1.8C98.3,1.8,98.3,1.8,98.3,1.8"/>
					<path class="st8" d="M98.3,1.8V98c0,0,0,0,0,0L98.3,1.8C98.2,1.9,98.2,1.8,98.3,1.8"/>
					<path class="st7" d="M98.2,1.9v96.1c0,0,0,0,0,0L98.2,1.9C98.2,1.9,98.2,1.9,98.2,1.9"/>
					<path class="st6" d="M98.2,1.9v96c0,0,0,0,0,0L98.2,1.9C98.2,1.9,98.2,1.9,98.2,1.9"/>
					<path class="st5" d="M98.2,1.9v96c0,0,0,0,0,0L98.2,1.9C98.2,1.9,98.2,1.9,98.2,1.9"/>
					<path class="st4" d="M98.2,1.9v96c0,0,0,0,0-0.1L98.2,1.9C98.1,2,98.1,1.9,98.2,1.9"/>
				</g>
			</g>
			<g class="st2">
				<defs>
					<path id="SVGID_25_" class="st2" d="M2.2,2c-0.6-0.6-1-1-1-1l97.9,0c0,0-0.4,0.5-1,1C98.1,2,2.2,2,2.2,2z"/>
				</defs>
				<clipPath id="SVGID_26_">
					<use xlink:href="#SVGID_25_"  style="overflow:visible;"/>
				</clipPath>
				<g class="st47">
					<path class="st26" d="M98.1,2H2.2c0,0,0,0,0,0L98.1,2C98.1,1.9,98.1,2,98.1,2"/>
					<path class="st1" d="M98.2,1.9h-96c0,0,0,0,0,0L98.2,1.9C98.2,1.9,98.2,1.9,98.2,1.9"/>
					<path class="st28" d="M98.2,1.9H2.1c0,0,0,0,0,0L98.2,1.9C98.2,1.9,98.2,1.9,98.2,1.9"/>
					<path class="st29" d="M98.3,1.8H2.1c0,0,0,0,0,0L98.3,1.8C98.3,1.8,98.3,1.8,98.3,1.8"/>
					<path class="st30" d="M98.3,1.8H2c0,0,0,0,0,0L98.3,1.8C98.3,1.8,98.3,1.8,98.3,1.8"/>
					<path class="st31" d="M98.3,1.8H2c0,0,0,0,0,0L98.3,1.8C98.4,1.7,98.4,1.7,98.3,1.8"/>
					<path class="st32" d="M98.4,1.7H1.9c0,0,0,0-0.1-0.1L98.4,1.7C98.4,1.7,98.4,1.7,98.4,1.7"/>
					<path class="st33" d="M98.4,1.7H1.9c0,0,0,0-0.1-0.1L98.4,1.7C98.5,1.6,98.5,1.6,98.4,1.7"/>
					<path class="st34" d="M98.5,1.6H1.8c0,0-0.1-0.1-0.1-0.1L98.5,1.6C98.6,1.5,98.5,1.6,98.5,1.6"/>
					<path class="st35" d="M98.6,1.5H1.8c0,0-0.1-0.1-0.1-0.1h97.1C98.7,1.4,98.6,1.5,98.6,1.5"/>
					<path class="st34" d="M98.7,1.4H1.6c0,0,0,0-0.1-0.1L98.7,1.4C98.8,1.3,98.7,1.4,98.7,1.4"/>
					<path class="st33" d="M98.8,1.3H1.6c0,0,0,0,0,0L98.8,1.3C98.8,1.3,98.8,1.3,98.8,1.3"/>
					<path class="st32" d="M98.8,1.3H1.5c0,0,0,0,0,0L98.8,1.3C98.8,1.3,98.8,1.3,98.8,1.3"/>
					<path class="st31" d="M98.8,1.3H1.5c0,0,0,0,0,0L98.8,1.3C98.9,1.2,98.8,1.2,98.8,1.3"/>
					<path class="st30" d="M98.9,1.2H1.5c0,0,0,0,0,0L98.9,1.2C98.9,1.2,98.9,1.2,98.9,1.2"/>
					<path class="st29" d="M98.9,1.2H1.4c0,0,0,0,0,0L98.9,1.2C98.9,1.2,98.9,1.2,98.9,1.2"/>
					<path class="st28" d="M98.9,1.2H1.4c0,0,0,0,0,0L98.9,1.2C98.9,1.2,98.9,1.2,98.9,1.2"/>
					<path class="st1" d="M98.9,1.2H1.4c0,0,0,0,0,0L98.9,1.2C98.9,1.2,98.9,1.2,98.9,1.2"/>
					<path class="st26" d="M98.9,1.1H1.4c0,0,0,0,0,0L98.9,1.1C99,1.1,99,1.1,98.9,1.1"/>
					<path class="st26" d="M99,1.1H1.4c0,0,0,0,0,0L99,1.1C99,1.1,99,1.1,99,1.1"/>
					<path class="st25" d="M99,1.1H1.4c0,0,0,0,0,0L99,1.1C99,1.1,99,1.1,99,1.1"/>
					<path class="st24" d="M99,1.1H1.3c0,0,0,0,0,0L99,1.1C99,1.1,99,1.1,99,1.1"/>
					<path class="st23" d="M99,1.1H1.3c0,0,0,0,0,0L99,1.1C99,1.1,99,1.1,99,1.1"/>
					<path class="st22" d="M99,1.1H1.3c0,0,0,0,0,0L99,1.1C99.1,1,99,1,99,1.1"/>
					<path class="st21" d="M99.1,1H1.3c0,0,0,0,0,0L99.1,1C99.1,1,99.1,1,99.1,1"/>
					<path class="st20" d="M99.1,1H1.3c0,0,0,0,0,0L99.1,1C99.1,1,99.1,1,99.1,1"/>
					<polyline class="st19" points="99.1,1 1.3,1 1.2,1 99.1,1 99.1,1 					"/>
					<polyline class="st18" points="99.1,1 1.2,1 1.2,1 99.1,1 99.1,1 					"/>
					<polyline class="st17" points="99.1,1 1.2,1 1.2,1 99.1,1 99.1,1 					"/>
					<polyline class="st16" points="99.1,1 1.2,1 1.2,1 99.1,1 99.1,1 					"/>
					<polyline class="st15" points="99.1,1 1.2,1 1.2,1 99.1,1 99.1,1 					"/>
					<polyline class="st14" points="99.1,1 1.2,1 1.2,1 99.1,1 99.1,1 					"/>
					<polyline class="st13" points="99.1,1 1.2,1 1.2,1 99.1,1 99.1,1 					"/>
					<polyline class="st12" points="99.1,1 1.2,1 1.2,1 99.1,1 99.1,1 					"/>
					<polyline class="st11" points="99.1,1 1.2,1 1.2,1 99.1,1 99.1,1 					"/>
					<polyline class="st10" points="99.1,1 1.2,1 1.2,1 99.1,1 99.1,1 					"/>
					<polyline class="st9" points="99.1,1 1.2,1 1.2,1 99.1,1 99.1,1 					"/>
					<polyline class="st8" points="99.1,1 1.2,1 1.2,1 99.1,1 99.1,1 					"/>
					<polyline class="st7" points="99.1,1 1.2,1 1.2,1 99.1,1 99.1,1 					"/>
				</g>
			</g>
			<g class="st2">
				<defs>
					<path id="SVGID_27_" class="st2" d="M1.2,1c0.6,0.6,1,1,1,1l0,95.9c0,0-0.4,0.5-1,1C1.2,98.8,1.2,1,1.2,1z"/>
				</defs>
				<clipPath id="SVGID_28_">
					<use xlink:href="#SVGID_27_"  style="overflow:visible;"/>
				</clipPath>
				<g class="st48">
					<path class="st26" d="M1.2,98.8V1c0,0,0,0,0,0L1.2,98.8C1.2,98.8,1.2,98.8,1.2,98.8"/>
					<path class="st1" d="M1.2,98.8V1c0,0,0,0,0,0L1.2,98.8C1.3,98.8,1.3,98.8,1.2,98.8"/>
					<path class="st28" d="M1.3,98.8V1c0,0,0,0,0,0L1.3,98.8C1.3,98.7,1.3,98.7,1.3,98.8"/>
					<path class="st29" d="M1.3,98.7V1.1c0,0,0,0,0,0L1.3,98.7C1.4,98.7,1.3,98.7,1.3,98.7"/>
					<path class="st30" d="M1.4,98.7V1.1c0,0,0,0,0,0L1.4,98.7C1.4,98.6,1.4,98.7,1.4,98.7"/>
					<path class="st31" d="M1.4,98.6V1.2c0,0,0,0,0,0L1.4,98.6C1.4,98.6,1.4,98.6,1.4,98.6"/>
					<path class="st32" d="M1.5,98.6V1.2c0,0,0,0,0,0L1.5,98.6C1.5,98.5,1.5,98.6,1.5,98.6"/>
					<path class="st33" d="M1.5,98.5V1.3c0,0,0,0,0.1,0.1L1.5,98.5C1.5,98.5,1.5,98.5,1.5,98.5"/>
					<path class="st34" d="M1.6,98.5V1.3c0,0,0,0,0.1,0.1L1.6,98.5C1.6,98.4,1.6,98.5,1.6,98.5"/>
					<path class="st35" d="M1.6,98.4v-97c0.1,0.1,0.1,0.1,0.2,0.2v96.6C1.8,98.3,1.7,98.3,1.6,98.4"/>
					<path class="st34" d="M1.8,98.2V1.6c0,0,0,0,0,0L1.8,98.2C1.9,98.2,1.8,98.2,1.8,98.2"/>
					<path class="st33" d="M1.9,98.2V1.6c0,0,0,0,0,0L1.9,98.2C1.9,98.1,1.9,98.2,1.9,98.2"/>
					<path class="st32" d="M1.9,98.1V1.7c0,0,0,0,0,0L1.9,98.1C1.9,98.1,1.9,98.1,1.9,98.1"/>
					<path class="st31" d="M1.9,98.1V1.7c0,0,0,0,0,0L1.9,98.1C2,98.1,1.9,98.1,1.9,98.1"/>
					<path class="st30" d="M2,98.1V1.7c0,0,0,0,0,0L2,98.1C2,98.1,2,98.1,2,98.1"/>
					<path class="st29" d="M2,98.1V1.7c0,0,0,0,0,0L2,98.1C2,98,2,98,2,98.1"/>
					<path class="st28" d="M2,98V1.8c0,0,0,0,0,0L2,98C2,98,2,98,2,98"/>
					<path class="st1" d="M2,98V1.8c0,0,0,0,0,0L2,98C2,98,2,98,2,98"/>
					<path class="st26" d="M2,98V1.8c0,0,0,0,0,0L2,98C2.1,98,2,98,2,98"/>
					<path class="st26" d="M2.1,98V1.8c0,0,0,0,0,0L2.1,98C2.1,98,2.1,98,2.1,98"/>
					<path class="st25" d="M2.1,98V1.8c0,0,0,0,0,0L2.1,98C2.1,97.9,2.1,97.9,2.1,98"/>
					<path class="st24" d="M2.1,97.9V1.9c0,0,0,0,0,0L2.1,97.9C2.1,97.9,2.1,97.9,2.1,97.9"/>
					<path class="st23" d="M2.1,97.9v-96c0,0,0,0,0,0L2.1,97.9C2.1,97.9,2.1,97.9,2.1,97.9"/>
					<path class="st22" d="M2.1,97.9v-96c0,0,0,0,0,0L2.1,97.9C2.1,97.9,2.1,97.9,2.1,97.9"/>
					<path class="st21" d="M2.1,97.9v-96c0,0,0,0,0,0L2.1,97.9C2.2,97.9,2.2,97.9,2.1,97.9"/>
					<polyline class="st20" points="2.2,97.9 2.2,1.9 2.2,1.9 2.2,97.9 2.2,97.9 					"/>
					<polyline class="st19" points="2.2,97.9 2.2,1.9 2.2,1.9 2.2,97.9 2.2,97.9 					"/>
					<polyline class="st18" points="2.2,97.9 2.2,1.9 2.2,1.9 2.2,97.8 2.2,97.9 					"/>
					<polyline class="st17" points="2.2,97.8 2.2,1.9 2.2,1.9 2.2,97.8 2.2,97.8 					"/>
					<polyline class="st16" points="2.2,97.8 2.2,1.9 2.2,1.9 2.2,97.8 2.2,97.8 					"/>
					<polyline class="st15" points="2.2,97.8 2.2,1.9 2.2,1.9 2.2,97.8 2.2,97.8 					"/>
					<polyline class="st14" points="2.2,97.8 2.2,1.9 2.2,1.9 2.2,97.8 2.2,97.8 					"/>
					<polyline class="st13" points="2.2,97.8 2.2,1.9 2.2,2 2.2,97.8 2.2,97.8 					"/>
					<polyline class="st12" points="2.2,97.8 2.2,2 2.2,2 2.2,97.8 2.2,97.8 					"/>
					<polyline class="st11" points="2.2,97.8 2.2,2 2.2,2 2.2,97.8 2.2,97.8 					"/>
					<polyline class="st10" points="2.2,97.8 2.2,2 2.2,2 2.2,97.8 2.2,97.8 					"/>
					<polyline class="st9" points="2.2,97.8 2.2,2 2.2,2 2.2,97.8 2.2,97.8 					"/>
					<polyline class="st8" points="2.2,97.8 2.2,2 2.2,2 2.2,97.8 2.2,97.8 					"/>
					<polyline class="st7" points="2.2,97.8 2.2,2 2.2,2 2.2,97.8 2.2,97.8 					"/>
				</g>
			</g>
			<g class="st2">
				<defs>
					<path id="SVGID_29_" class="st2" d="M2.2,97.8c-0.6,0.6-1,1-1,1L1.2,1c0,0,0.4,0.5,1,1C2.2,2,2.2,97.8,2.2,97.8z"/>
				</defs>
				<clipPath id="SVGID_30_">
					<use xlink:href="#SVGID_29_"  style="overflow:visible;"/>
				</clipPath>
				<g class="st49">
					<path class="st26" d="M2.2,2v95.9c0,0,0,0,0,0L2.2,2C2.2,2,2.2,2,2.2,2"/>
					<path class="st26" d="M2.2,2v95.9c0,0,0,0,0,0L2.2,2C2.2,1.9,2.2,1.9,2.2,2"/>
					<path class="st25" d="M2.1,1.9v96c0,0,0,0,0,0L2.1,1.9C2.1,1.9,2.1,1.9,2.1,1.9"/>
					<path class="st24" d="M2.1,1.9v96.1c0,0,0,0,0,0L2.1,1.9C2.1,1.8,2.1,1.8,2.1,1.9"/>
					<path class="st23" d="M2.1,1.8V98C2,98,2,98,2,98L2.1,1.8C2,1.8,2,1.8,2.1,1.8"/>
					<path class="st22" d="M2,1.8V98c0,0,0,0-0.1,0.1L2,1.8C2,1.7,2,1.7,2,1.8"/>
					<path class="st21" d="M1.9,1.7v96.4c0,0,0,0-0.1,0.1L1.9,1.7C1.9,1.7,1.9,1.7,1.9,1.7"/>
					<path class="st20" d="M1.9,1.7v96.5c0,0,0,0-0.1,0.1L1.9,1.7C1.9,1.6,1.9,1.6,1.9,1.7"/>
					<path class="st19" d="M1.8,1.6v96.6c0,0,0,0-0.1,0.1L1.8,1.6C1.8,1.6,1.8,1.6,1.8,1.6"/>
					<path class="st18" d="M1.8,1.5v96.7c0,0,0,0-0.1,0.1L1.8,1.5C1.7,1.5,1.8,1.5,1.8,1.5"/>
					<path class="st17" d="M1.7,1.5v96.8c0,0,0,0-0.1,0.1L1.7,1.5C1.7,1.4,1.7,1.5,1.7,1.5"/>
					<path class="st16" d="M1.7,1.4v96.9c0,0,0,0-0.1,0.1L1.7,1.4C1.6,1.4,1.6,1.4,1.7,1.4"/>
					<path class="st15" d="M1.6,1.4v97.1c0,0,0,0-0.1,0.1L1.6,1.4C1.6,1.3,1.6,1.4,1.6,1.4"/>
					<path class="st14" d="M1.6,1.3v97.2c0,0,0,0,0,0L1.6,1.3C1.5,1.3,1.5,1.3,1.6,1.3"/>
					<path class="st13" d="M1.5,1.3v97.3c0,0,0,0,0,0L1.5,1.3C1.5,1.2,1.5,1.3,1.5,1.3"/>
					<path class="st12" d="M1.5,1.2v97.4c0,0,0,0,0,0L1.5,1.2C1.4,1.2,1.4,1.2,1.5,1.2"/>
					<path class="st11" d="M1.4,1.2v97.4c0,0,0,0,0,0L1.4,1.2C1.4,1.2,1.4,1.2,1.4,1.2"/>
					<path class="st10" d="M1.4,1.2v97.5c0,0,0,0,0,0L1.4,1.2C1.4,1.1,1.4,1.1,1.4,1.2"/>
					<path class="st9" d="M1.4,1.1v97.6c0,0,0,0,0,0L1.4,1.1C1.3,1.1,1.4,1.1,1.4,1.1"/>
					<path class="st8" d="M1.3,1.1v97.6c0,0,0,0,0,0L1.3,1.1C1.3,1.1,1.3,1.1,1.3,1.1"/>
					<path class="st7" d="M1.3,1.1v97.6c0,0,0,0,0,0L1.3,1.1C1.3,1.1,1.3,1.1,1.3,1.1"/>
					<path class="st6" d="M1.3,1v97.7c0,0,0,0,0,0L1.3,1C1.3,1,1.3,1,1.3,1"/>
					<path class="st5" d="M1.3,1v97.7c0,0,0,0,0,0L1.3,1C1.3,1,1.3,1,1.3,1"/>
					<path class="st4" d="M1.3,1v97.8c0,0,0,0,0,0L1.3,1C1.2,1,1.2,1,1.3,1"/>
				</g>
			</g>
			<g class="st2">
				<defs>
					<path id="SVGID_31_" class="st2" d="M99.1,1c-0.6,0.6-1,1-1,1L2.2,2c0,0-0.4-0.4-1-1C1.2,1,99.1,1,99.1,1z"/>
				</defs>
				<clipPath id="SVGID_32_">
					<use xlink:href="#SVGID_31_"  style="overflow:visible;"/>
				</clipPath>
				<g class="st50">
					<path class="st26" d="M1.2,1h97.9c0,0,0,0,0,0L1.2,1C1.2,1,1.2,1,1.2,1"/>
					<path class="st26" d="M1.2,1h97.9c0,0,0,0,0,0L1.2,1C1.3,1,1.2,1,1.2,1"/>
					<path class="st25" d="M1.3,1h97.8c0,0,0,0,0,0L1.3,1C1.3,1.1,1.3,1.1,1.3,1"/>
					<path class="st24" d="M1.3,1.1H99c0,0,0,0,0,0L1.3,1.1C1.4,1.1,1.3,1.1,1.3,1.1"/>
					<path class="st23" d="M1.4,1.1H99c0,0,0,0-0.1,0.1L1.4,1.1C1.4,1.2,1.4,1.1,1.4,1.1"/>
					<path class="st22" d="M1.4,1.2h97.5c0,0,0,0-0.1,0.1L1.4,1.2C1.5,1.2,1.4,1.2,1.4,1.2"/>
					<path class="st21" d="M1.5,1.2h97.4c0,0,0,0-0.1,0.1L1.5,1.2C1.5,1.3,1.5,1.3,1.5,1.2"/>
					<path class="st20" d="M1.5,1.3h97.3c0,0,0,0-0.1,0.1L1.5,1.3C1.6,1.3,1.5,1.3,1.5,1.3"/>
					<path class="st19" d="M1.6,1.4h97.2c0,0,0,0-0.1,0.1L1.6,1.4C1.6,1.4,1.6,1.4,1.6,1.4"/>
					<path class="st18" d="M1.6,1.4h97c0,0,0,0-0.1,0.1L1.6,1.4C1.7,1.5,1.7,1.4,1.6,1.4"/>
					<path class="st17" d="M1.7,1.5h96.9c0,0,0,0-0.1,0.1L1.7,1.5C1.7,1.5,1.7,1.5,1.7,1.5"/>
					<path class="st16" d="M1.8,1.5h96.8c0,0,0,0-0.1,0.1L1.8,1.5C1.8,1.6,1.8,1.6,1.8,1.5"/>
					<path class="st15" d="M1.8,1.6h96.7c0,0,0,0-0.1,0.1L1.8,1.6C1.9,1.6,1.8,1.6,1.8,1.6"/>
					<path class="st14" d="M1.9,1.6h96.6c0,0,0,0,0,0L1.9,1.6C1.9,1.7,1.9,1.7,1.9,1.6"/>
					<path class="st13" d="M1.9,1.7h96.5c0,0,0,0,0,0L1.9,1.7C2,1.7,1.9,1.7,1.9,1.7"/>
					<path class="st12" d="M2,1.7h96.4c0,0,0,0,0,0L2,1.7C2,1.8,2,1.7,2,1.7"/>
					<path class="st11" d="M2,1.8h96.3c0,0,0,0,0,0L2,1.8C2,1.8,2,1.8,2,1.8"/>
					<path class="st10" d="M2,1.8h96.3c0,0,0,0,0,0L2,1.8C2.1,1.8,2,1.8,2,1.8"/>
					<path class="st9" d="M2.1,1.8h96.2c0,0,0,0,0,0L2.1,1.8C2.1,1.8,2.1,1.8,2.1,1.8"/>
					<path class="st8" d="M2.1,1.8h96.2c0,0,0,0,0,0L2.1,1.8C2.1,1.9,2.1,1.9,2.1,1.8"/>
					<path class="st7" d="M2.1,1.9h96.1c0,0,0,0,0,0L2.1,1.9C2.1,1.9,2.1,1.9,2.1,1.9"/>
					<path class="st6" d="M2.1,1.9h96.1c0,0,0,0,0,0L2.1,1.9C2.1,1.9,2.1,1.9,2.1,1.9"/>
					<path class="st5" d="M2.1,1.9h96c0,0,0,0,0,0L2.1,1.9C2.2,1.9,2.2,1.9,2.1,1.9"/>
					<path class="st4" d="M2.2,1.9h96c0,0,0,0,0,0L2.2,1.9C2.2,2,2.2,1.9,2.2,1.9"/>
				</g>
			</g>
		</g>
	</g>
</g>
</svg>
