<?xml version="1.0" encoding="utf-8"?>
<!-- Generator: Adobe Illustrator 24.3.0, SVG Export Plug-In . SVG Version: 6.00 Build 0)  -->
<svg version="1.1" id="Layer_1" xmlns="http://www.w3.org/2000/svg" xmlns:xlink="http://www.w3.org/1999/xlink" x="0px" y="0px"
	 viewBox="0 0 100 100" style="enable-background:new 0 0 100 100;" xml:space="preserve">
<style type="text/css">
	.st0{fill:#FFFFFF;}
	.st1{fill:#231F20;}
	.st2{enable-background:new    ;}
	.st3{clip-path:url(#SVGID_2_);enable-background:new    ;}
	.st4{fill:#141213;}
	.st5{fill:#151313;}
	.st6{fill:#161314;}
	.st7{fill:#161414;}
	.st8{fill:#171415;}
	.st9{fill:#181516;}
	.st10{fill:#191616;}
	.st11{fill:#191617;}
	.st12{fill:#1A1718;}
	.st13{fill:#1B1818;}
	.st14{fill:#1B1819;}
	.st15{fill:#1C191A;}
	.st16{fill:#1D191A;}
	.st17{fill:#1D1A1B;}
	.st18{fill:#1E1B1C;}
	.st19{fill:#1F1B1C;}
	.st20{fill:#201C1D;}
	.st21{fill:#201D1D;}
	.st22{fill:#211D1E;}
	.st23{fill:#221E1F;}
	.st24{fill:#3D3A3B;}
	.st25{fill:#484546;}
	.st26{fill:#514E4E;}
	.st27{fill:#585556;}
	.st28{fill:#5E5B5C;}
	.st29{fill:#646162;}
	.st30{fill:#696667;}
	.st31{fill:#6E6B6C;}
	.st32{clip-path:url(#SVGID_4_);enable-background:new    ;}
	.st33{fill:#121011;}
	.st34{fill:#131111;}
	.st35{fill:#141112;}
	.st36{clip-path:url(#SVGID_6_);enable-background:new    ;}
	.st37{clip-path:url(#SVGID_8_);enable-background:new    ;}
	.st38{clip-path:url(#SVGID_10_);enable-background:new    ;}
	.st39{clip-path:url(#SVGID_12_);enable-background:new    ;}
	.st40{clip-path:url(#SVGID_14_);enable-background:new    ;}
	.st41{clip-path:url(#SVGID_16_);enable-background:new    ;}
	.st42{fill:#141212;}
	.st43{clip-path:url(#SVGID_18_);enable-background:new    ;}
	.st44{clip-path:url(#SVGID_20_);enable-background:new    ;}
	.st45{clip-path:url(#SVGID_22_);enable-background:new    ;}
	.st46{clip-path:url(#SVGID_24_);enable-background:new    ;}
	.st47{clip-path:url(#SVGID_26_);enable-background:new    ;}
	.st48{clip-path:url(#SVGID_28_);enable-background:new    ;}
	.st49{clip-path:url(#SVGID_30_);enable-background:new    ;}
	.st50{clip-path:url(#SVGID_32_);enable-background:new    ;}
</style>
<rect x="0.7" y="0.1" class="st0" width="99.6" height="99.1"/>
<path class="st1" d="M77.1,27.2c-1-2.4-2.3-4.8-3.6-7C71,16,68.2,11.7,64.2,8.8C62,7.3,59.7,5.9,57,5.5c-1.3-0.3-2.4-0.3-3.6,0.2
	c-1.1,0.5-2.2,1.3-3.4,1.4c-1.6,0.3-3.8-0.6-5.5-0.6c-1.6-0.1-3.3,0.1-4.9,0.6C33,9,28.2,14.9,25.3,20.8c-4.1,8.5-5.5,18.4-6.8,27.6
	c-0.5,3.2-0.7,6.4-1,9.6c-0.3,3.2-0.1,6.5,0.4,9.6c0.4,2.6,0.6,5.1,1.6,7.6c0.9,2.1,2.1,4,3.2,5.9c0.9,1.5,1.8,3.1,3.1,4.3
	c2.3,2.3,5.3,3.2,7.5,5.8c1.2,1.5,2.3,2.4,3.9,3.6c-0.4-0.9-0.5-1.9-1.3-2.5c1.1,0.5,2,1.1,3,1.6c-0.7-0.4-1.2-1.7-1.4-2.4
	c0.7,0.5,1.2,1.4,2.1,1.7c-0.1-1-0.9-1.6-1.4-2.5c0.3,0.1,0.5,0.2,0.8,0.4c-2.8-1.5-4.2-4.6-4.8-7.6c-0.3-1.5-0.5-3.1-0.5-4.6
	c0-1.9,0.5-4,0-5.9c-0.6-2.2-2.3-4.1-3.1-6.1c-1.6-4-1.4-8.2-2.5-12.2c-0.7-2.6-1.5-5.2-1.5-7.9c0-1.4,0.5-2.6,1.6-3.4
	c1.1-0.8,2.6-1.1,3.2-2.4c0.4-1,0.3-2.3,0.2-3.3c0.2,1,0.1,2,0.3,2.9c0.1,0.6,0.4,1.2,0.5,1.8c0.4-0.8,0.4-1.7,0.6-2.5
	c0.2,0.6,0.1,1.3,0.3,1.8c0.4-1.1,0.4-2.3,1.1-3.2c0.5,1.2-0.4,3.4,1.2,4c0.7-0.8,0.5-2,0.6-3c0,0.6,0.1,1.3,0.4,1.9
	c1.1-2.1,0.5-4.8,1.6-6.7c-0.3,0.8,0.2,1.6,0.4,2.4c0.3,1.3,0.4,2.6,0.5,3.9c-0.2-1.1,0.3-5.1,1.9-3.2c1,1.3,1.2,3.2,1.8,4.7
	c0-0.2,0.2-0.5,0.2-0.6c0.3,0.4,0.7,0.7,1.1,1.1c0.2-0.8,0.2-1.7,0-2.5c0.5,0.8,1,2.4,2,2.7c1.2,0.4,1.4-0.9,1-1.8
	c0.3,0.7,0.5,1.5,1,2.1c0.3-0.4,0.4-0.9,0.2-1.4c0.4,0.5,0.8,1.2,1.4,1.5c0-0.5,0-1,0-1.5c0.2,0.4,0.5,0.6,0.7,0.9
	c-0.3-0.3,0.2-3.6,0.2-4.1c0-1.4,0-2.7-0.1-4.1c-0.1-3-0.4-5.9-0.2-8.8c0.4,1.4,1.5,2.3,2.1,3.7c0.6,1.4,0.7,3,0.6,4.6
	c-0.1,3.2,0.6,5.9,1,8.9c-0.3-1.8-0.7-5,1-6.4c0.6,1.4,0.7,2.4,0.9,4c0.1,0.6,0.2,2.7,1.2,2.7c1,0,0.7-2.3,0.6-2.9
	c0.3,0.9,0.3,2.3,1.1,2.9c0.1-0.3,0.4-0.5,0.4-0.7c0.2,1.4,2.5,2.4,3.6,1.5c1.4-1.1,0.4-5.2,0.4-6.8c0.4,1.7,0.5,3.4,1.3,5
	c0.5,1.2,1.4,1.7,2.6,1.8c1.2,0.1,2.3-1.5,3.5-0.6c1.9,1.4,1.7,4.7,1.4,6.8c-0.5,4.6-2.3,9-3.9,13.4c-0.8,2.3-2.5,4-3.1,6.4
	c-0.5,2.3-0.3,4.6-0.2,6.8c0.1,2.2-0.5,4.3-0.4,6.6c0.6-0.4,2.1-2.6,2.9-1.6c1.2,1.5-2.2,4.9-2.8,6c-0.9,1.6-1.3,3.5-1.8,5.2
	c0.5-0.5,1.1-1.1,1.6-1.5c-0.4,1.1-0.9,2.1-1.4,3.2c0.8-1.4,2.4-1.8,3.4-3.1c0.8-1.1,1.4-3.2,3.1-3.3c0.2,0.4,0.3,0.7,0.5,1
	c2.7-1,4.3-4.1,5-6.8c0.1,0.3,0.4,0.6,0.7,0.6c0.4,0,0.8-0.9,1-1.1c5.5-7.4,2.8-16.5,5.2-24.7c-0.2,0.6,0.5,2.4,0.6,3.2
	c0.2,1.4,0.3,2.7,0.3,4.1c0,2.7-0.4,5.4-0.9,8.1c1.1-6,1.4-12.1,1.2-18.2C82.5,45.3,80.6,35.6,77.1,27.2z"/>
<g>
	<g>
		<g class="st2">
			<g class="st2">
				<defs>
					<path id="SVGID_1_" class="st2" d="M1,98.4L1,0.5c0,0,0.4,0.4,1,1l0,95.9C1.5,97.9,1,98.3,1,98.4z"/>
				</defs>
				<clipPath id="SVGID_2_">
					<use xlink:href="#SVGID_1_"  style="overflow:visible;"/>
				</clipPath>
				<g class="st3">
					<polyline class="st4" points="1,0.5 1,98.4 1,98.4 1,0.5 1,0.5 					"/>
					<polyline class="st5" points="1,0.5 1,98.4 1,98.4 1,0.5 1,0.5 					"/>
					<polyline class="st6" points="1,0.5 1,98.4 1,98.4 1,0.5 1,0.5 					"/>
					<polyline class="st7" points="1,0.5 1,98.4 1,98.4 1,0.5 1,0.5 					"/>
					<polyline class="st8" points="1,0.5 1,98.4 1,98.4 1,0.5 1,0.5 					"/>
					<polyline class="st9" points="1,0.5 1,98.4 1.1,98.3 1.1,0.5 1,0.5 					"/>
					<polyline class="st10" points="1.1,0.5 1.1,98.3 1.1,98.3 1.1,0.5 1.1,0.5 					"/>
					<polyline class="st11" points="1.1,0.5 1.1,98.3 1.1,98.3 1.1,0.5 1.1,0.5 					"/>
					<polyline class="st12" points="1.1,0.5 1.1,98.3 1.1,98.3 1.1,0.5 1.1,0.5 					"/>
					<polyline class="st13" points="1.1,0.5 1.1,98.3 1.1,98.3 1.1,0.5 1.1,0.5 					"/>
					<polyline class="st14" points="1.1,0.5 1.1,98.3 1.1,98.3 1.1,0.5 1.1,0.5 					"/>
					<polyline class="st15" points="1.1,0.5 1.1,98.3 1.1,98.3 1.1,0.5 1.1,0.5 					"/>
					<polyline class="st16" points="1.1,0.5 1.1,98.3 1.1,98.3 1.1,0.5 1.1,0.5 					"/>
					<polyline class="st17" points="1.1,0.5 1.1,98.3 1.1,98.3 1.1,0.5 1.1,0.5 					"/>
					<path class="st18" d="M1.1,0.5v97.8c0,0,0,0,0,0L1.1,0.5C1.1,0.5,1.1,0.5,1.1,0.5"/>
					<path class="st19" d="M1.1,0.6v97.7c0,0,0,0,0,0L1.1,0.6C1.1,0.6,1.1,0.6,1.1,0.6"/>
					<path class="st20" d="M1.1,0.6v97.7c0,0,0,0,0,0L1.1,0.6C1.1,0.6,1.1,0.6,1.1,0.6"/>
					<path class="st21" d="M1.1,0.6v97.7c0,0,0,0,0,0L1.1,0.6C1.1,0.6,1.1,0.6,1.1,0.6"/>
					<path class="st22" d="M1.2,0.6v97.6c0,0,0,0,0,0L1.2,0.6C1.2,0.6,1.2,0.6,1.2,0.6"/>
					<path class="st23" d="M1.2,0.6v97.6c0,0,0,0,0,0L1.2,0.6C1.2,0.6,1.2,0.6,1.2,0.6"/>
					<path class="st23" d="M1.2,0.6v97.6c0,0,0,0,0,0L1.2,0.6C1.2,0.7,1.2,0.6,1.2,0.6"/>
					<path class="st1" d="M1.2,0.7v97.5c0,0,0,0,0,0L1.2,0.7C1.2,0.7,1.2,0.7,1.2,0.7"/>
					<path class="st24" d="M1.2,0.7v97.5c0,0,0,0,0,0L1.2,0.7C1.2,0.7,1.2,0.7,1.2,0.7"/>
					<path class="st25" d="M1.3,0.7v97.4c0,0,0,0,0,0L1.3,0.7C1.3,0.7,1.3,0.7,1.3,0.7"/>
					<path class="st26" d="M1.3,0.7v97.4c0,0,0,0,0,0L1.3,0.7C1.3,0.7,1.3,0.7,1.3,0.7"/>
					<path class="st27" d="M1.3,0.7v97.4c0,0,0,0,0,0L1.3,0.7C1.3,0.8,1.3,0.7,1.3,0.7"/>
					<path class="st28" d="M1.3,0.8v97.3c0,0,0,0,0,0L1.3,0.8C1.3,0.8,1.3,0.8,1.3,0.8"/>
					<path class="st29" d="M1.3,0.8V98c0,0,0,0,0,0L1.3,0.8C1.4,0.8,1.4,0.8,1.3,0.8"/>
					<path class="st30" d="M1.4,0.8V98c0,0,0,0,0,0L1.4,0.8C1.4,0.8,1.4,0.8,1.4,0.8"/>
					<path class="st31" d="M1.4,0.9V98c0.1-0.1,0.1-0.1,0.2-0.2V1.1C1.5,1,1.5,0.9,1.4,0.9"/>
					<path class="st30" d="M1.6,1.1v96.7c0,0,0,0,0.1-0.1L1.6,1.1C1.7,1.1,1.6,1.1,1.6,1.1"/>
					<path class="st29" d="M1.7,1.1v96.6c0,0,0,0,0.1-0.1L1.7,1.1C1.7,1.2,1.7,1.1,1.7,1.1"/>
					<path class="st28" d="M1.7,1.2v96.5c0,0,0,0,0,0L1.7,1.2C1.8,1.2,1.8,1.2,1.7,1.2"/>
					<path class="st27" d="M1.8,1.2v96.4c0,0,0,0,0,0L1.8,1.2C1.8,1.3,1.8,1.2,1.8,1.2"/>
					<path class="st26" d="M1.8,1.3v96.3c0,0,0,0,0,0L1.8,1.3C1.9,1.3,1.9,1.3,1.8,1.3"/>
					<path class="st25" d="M1.9,1.3v96.2c0,0,0,0,0,0L1.9,1.3C1.9,1.3,1.9,1.3,1.9,1.3"/>
					<path class="st24" d="M1.9,1.4v96.1c0,0,0,0,0,0L1.9,1.4C2,1.4,1.9,1.4,1.9,1.4"/>
					<path class="st1" d="M2,1.4v96c0,0,0,0,0,0L2,1.4C2,1.4,2,1.4,2,1.4"/>
					<path class="st23" d="M2,1.4v95.9c0,0,0,0,0,0L2,1.4C2,1.5,2,1.5,2,1.4"/>
				</g>
			</g>
			<g class="st2">
				<defs>
					<path id="SVGID_3_" class="st2" d="M2,1.5l0,95.9c0,0-0.4,0.4-1,1L1,0.5C1.6,1,2,1.5,2,1.5z"/>
				</defs>
				<clipPath id="SVGID_4_">
					<use xlink:href="#SVGID_3_"  style="overflow:visible;"/>
				</clipPath>
				<g class="st32">
					<path class="st33" d="M2,97.4V1.5c0,0,0,0,0-0.1L2,97.4C2,97.4,2,97.4,2,97.4"/>
					<path class="st34" d="M2,97.4v-96c0,0,0,0,0,0L2,97.4C2,97.4,2,97.4,2,97.4"/>
					<path class="st35" d="M2,97.4v-96c0,0,0,0,0,0L2,97.4C2,97.4,2,97.4,2,97.4"/>
					<path class="st4" d="M2,97.4v-96c0,0,0,0,0,0L2,97.4C1.9,97.5,2,97.4,2,97.4"/>
					<path class="st5" d="M1.9,97.5V1.4c0,0,0,0,0,0L1.9,97.5C1.9,97.5,1.9,97.5,1.9,97.5"/>
					<path class="st6" d="M1.9,97.5V1.4c0,0,0,0,0,0L1.9,97.5C1.9,97.5,1.9,97.5,1.9,97.5"/>
					<path class="st7" d="M1.9,97.5V1.3c0,0,0,0,0,0L1.9,97.5C1.9,97.5,1.9,97.5,1.9,97.5"/>
					<path class="st8" d="M1.9,97.5V1.3c0,0,0,0,0,0L1.9,97.5C1.8,97.6,1.8,97.5,1.9,97.5"/>
					<path class="st9" d="M1.8,97.6V1.3c0,0,0,0,0,0L1.8,97.6C1.8,97.6,1.8,97.6,1.8,97.6"/>
					<path class="st10" d="M1.8,97.6V1.2c0,0,0,0,0,0L1.8,97.6C1.8,97.6,1.8,97.6,1.8,97.6"/>
					<path class="st11" d="M1.7,97.6V1.2c0,0,0,0,0,0L1.7,97.6C1.7,97.7,1.7,97.7,1.7,97.6"/>
					<path class="st12" d="M1.7,97.7V1.1c0,0,0,0-0.1-0.1L1.7,97.7C1.7,97.7,1.7,97.7,1.7,97.7"/>
					<path class="st13" d="M1.6,97.7V1.1c0,0,0,0-0.1-0.1L1.6,97.7C1.6,97.8,1.6,97.8,1.6,97.7"/>
					<path class="st14" d="M1.6,97.8V1c0,0,0,0-0.1-0.1L1.6,97.8C1.5,97.8,1.6,97.8,1.6,97.8"/>
					<path class="st15" d="M1.5,97.9V1c0,0,0,0-0.1-0.1L1.5,97.9C1.5,97.9,1.5,97.9,1.5,97.9"/>
					<path class="st16" d="M1.5,97.9v-97c0,0,0,0-0.1-0.1L1.5,97.9C1.4,98,1.5,97.9,1.5,97.9"/>
					<path class="st17" d="M1.4,98V0.8c0,0,0,0-0.1-0.1L1.4,98C1.4,98,1.4,98,1.4,98"/>
					<path class="st18" d="M1.4,98V0.8c0,0,0,0-0.1-0.1L1.4,98C1.3,98.1,1.3,98.1,1.4,98"/>
					<path class="st19" d="M1.3,98.1V0.7c0,0,0,0-0.1-0.1L1.3,98.1C1.3,98.1,1.3,98.1,1.3,98.1"/>
					<path class="st20" d="M1.2,98.1V0.7c0,0,0,0-0.1-0.1L1.2,98.1C1.2,98.2,1.2,98.2,1.2,98.1"/>
					<path class="st21" d="M1.2,98.2V0.6c0,0,0,0,0,0L1.2,98.2C1.2,98.2,1.2,98.2,1.2,98.2"/>
					<path class="st22" d="M1.2,98.2V0.6c0,0,0,0,0,0L1.2,98.2C1.1,98.3,1.1,98.3,1.2,98.2"/>
					<path class="st23" d="M1.1,98.3V0.5c0,0,0,0,0,0L1.1,98.3C1.1,98.3,1.1,98.3,1.1,98.3"/>
					<path class="st23" d="M1.1,98.3V0.5c0,0,0,0,0,0L1.1,98.3C1,98.3,1.1,98.3,1.1,98.3"/>
				</g>
			</g>
			<g class="st2">
				<defs>
					<path id="SVGID_5_" class="st2" d="M1,98.3C1,98.3,1,98.3,1,98.3L1,98.3L1,98.3z M1.5,97.8c-0.3,0.3-0.4,0.4-0.5,0.5l97.9,0
						c-0.6-0.6-1-1-1-1L2,97.4C2,97.4,1.8,97.5,1.5,97.8z"/>
				</defs>
				<clipPath id="SVGID_6_">
					<use xlink:href="#SVGID_5_"  style="overflow:visible;"/>
				</clipPath>
				<g class="st36">
					<path class="st33" d="M98,97.4H2c0,0,0,0,0,0L98,97.4C98,97.4,98,97.4,98,97.4"/>
					<path class="st34" d="M98,97.4H2c0,0,0,0,0,0L98,97.4C98,97.4,98,97.4,98,97.4"/>
					<path class="st35" d="M98,97.4H2c0,0,0,0,0,0L98,97.4C98,97.4,98,97.4,98,97.4"/>
					<path class="st4" d="M98,97.4H2c0,0,0,0,0,0L98,97.4C98.1,97.4,98.1,97.4,98,97.4"/>
					<path class="st5" d="M98.1,97.5H1.9c0,0,0,0,0,0L98.1,97.5C98.1,97.5,98.1,97.5,98.1,97.5"/>
					<path class="st6" d="M98.1,97.5H1.9c0,0,0,0,0,0L98.1,97.5C98.1,97.5,98.1,97.5,98.1,97.5"/>
					<path class="st7" d="M98.1,97.5H1.9c0,0,0,0,0,0L98.1,97.5C98.1,97.5,98.1,97.5,98.1,97.5"/>
					<path class="st8" d="M98.1,97.5H1.9c0,0,0,0,0,0L98.1,97.5C98.2,97.5,98.1,97.5,98.1,97.5"/>
					<path class="st9" d="M98.2,97.6H1.8c0,0,0,0,0,0L98.2,97.6C98.2,97.6,98.2,97.6,98.2,97.6"/>
					<path class="st10" d="M98.2,97.6H1.8c0,0,0,0,0,0L98.2,97.6C98.2,97.6,98.2,97.6,98.2,97.6"/>
					<path class="st11" d="M98.2,97.6H1.8c0,0,0,0,0,0L98.2,97.6C98.3,97.7,98.3,97.6,98.2,97.6"/>
					<path class="st12" d="M98.3,97.7H1.7c0,0,0,0-0.1,0.1L98.3,97.7C98.3,97.7,98.3,97.7,98.3,97.7"/>
					<path class="st13" d="M98.3,97.7H1.7c0,0,0,0-0.1,0.1L98.3,97.7C98.4,97.8,98.4,97.7,98.3,97.7"/>
					<path class="st14" d="M98.4,97.8H1.6c0,0,0,0-0.1,0.1L98.4,97.8C98.4,97.8,98.4,97.8,98.4,97.8"/>
					<path class="st15" d="M98.5,97.8H1.5c0,0,0,0-0.1,0.1L98.5,97.8C98.5,97.9,98.5,97.9,98.5,97.8"/>
					<path class="st16" d="M98.5,97.9h-97c0,0,0,0-0.1,0.1L98.5,97.9C98.6,97.9,98.5,97.9,98.5,97.9"/>
					<path class="st17" d="M98.6,98H1.4c0,0,0,0-0.1,0.1L98.6,98C98.6,98,98.6,98,98.6,98"/>
					<path class="st18" d="M98.6,98H1.4c0,0,0,0-0.1,0.1L98.6,98C98.7,98.1,98.7,98,98.6,98"/>
					<path class="st19" d="M98.7,98.1H1.3c0,0,0,0-0.1,0.1L98.7,98.1C98.7,98.1,98.7,98.1,98.7,98.1"/>
					<path class="st20" d="M98.8,98.1H1.3c0,0,0,0-0.1,0.1L98.8,98.1C98.8,98.2,98.8,98.1,98.8,98.1"/>
					<path class="st21" d="M98.8,98.2H1.2c0,0,0,0,0,0L98.8,98.2C98.8,98.2,98.8,98.2,98.8,98.2"/>
					<path class="st22" d="M98.9,98.2H1.2c0,0,0,0,0,0L98.9,98.2C98.9,98.3,98.9,98.2,98.9,98.2"/>
					<path class="st23" d="M98.9,98.3H1.1c0,0,0,0,0,0L98.9,98.3C98.9,98.3,98.9,98.3,98.9,98.3"/>
					<path class="st23" d="M99,98.3H1.1c0,0,0,0,0,0L99,98.3C99,98.3,99,98.3,99,98.3"/>
				</g>
			</g>
			<g class="st2">
				<defs>
					<path id="SVGID_7_" class="st2" d="M99,98.4H1c0,0,0.4-0.5,1-1l95.9,0C98.5,97.9,99,98.3,99,98.4z"/>
				</defs>
				<clipPath id="SVGID_8_">
					<use xlink:href="#SVGID_7_"  style="overflow:visible;"/>
				</clipPath>
				<g class="st37">
					<polyline class="st4" points="1,98.4 99,98.4 99,98.4 1,98.4 1,98.4 					"/>
					<polyline class="st5" points="1,98.4 99,98.4 99,98.4 1,98.4 1,98.4 					"/>
					<polyline class="st6" points="1,98.4 99,98.4 99,98.4 1,98.4 1,98.4 					"/>
					<polyline class="st7" points="1,98.4 99,98.4 99,98.4 1,98.4 1,98.4 					"/>
					<polyline class="st8" points="1,98.4 99,98.4 99,98.3 1.1,98.3 1,98.4 					"/>
					<polyline class="st9" points="1.1,98.3 99,98.3 99,98.3 1.1,98.3 1.1,98.3 					"/>
					<polyline class="st10" points="1.1,98.3 99,98.3 99,98.3 1.1,98.3 1.1,98.3 					"/>
					<polyline class="st11" points="1.1,98.3 99,98.3 98.9,98.3 1.1,98.3 1.1,98.3 					"/>
					<polyline class="st12" points="1.1,98.3 98.9,98.3 98.9,98.3 1.1,98.3 1.1,98.3 					"/>
					<polyline class="st13" points="1.1,98.3 98.9,98.3 98.9,98.3 1.1,98.3 1.1,98.3 					"/>
					<polyline class="st14" points="1.1,98.3 98.9,98.3 98.9,98.3 1.1,98.3 1.1,98.3 					"/>
					<polyline class="st15" points="1.1,98.3 98.9,98.3 98.9,98.3 1.1,98.3 1.1,98.3 					"/>
					<polyline class="st16" points="1.1,98.3 98.9,98.3 98.9,98.3 1.1,98.3 1.1,98.3 					"/>
					<path class="st17" d="M1.1,98.3h97.8c0,0,0,0,0,0L1.1,98.3C1.1,98.3,1.1,98.3,1.1,98.3"/>
					<path class="st18" d="M1.1,98.3h97.8c0,0,0,0,0,0L1.1,98.3C1.1,98.3,1.1,98.3,1.1,98.3"/>
					<path class="st19" d="M1.1,98.3h97.8c0,0,0,0,0,0L1.1,98.3C1.1,98.3,1.1,98.3,1.1,98.3"/>
					<path class="st20" d="M1.1,98.3h97.7c0,0,0,0,0,0L1.1,98.3C1.1,98.3,1.1,98.3,1.1,98.3"/>
					<path class="st21" d="M1.2,98.2h97.7c0,0,0,0,0,0L1.2,98.2C1.2,98.2,1.2,98.2,1.2,98.2"/>
					<path class="st22" d="M1.2,98.2h97.7c0,0,0,0,0,0L1.2,98.2C1.2,98.2,1.2,98.2,1.2,98.2"/>
					<path class="st23" d="M1.2,98.2h97.6c0,0,0,0,0,0L1.2,98.2C1.2,98.2,1.2,98.2,1.2,98.2"/>
					<path class="st23" d="M1.2,98.2h97.6c0,0,0,0,0,0L1.2,98.2C1.2,98.2,1.2,98.2,1.2,98.2"/>
					<path class="st1" d="M1.2,98.2h97.6c0,0,0,0,0,0L1.2,98.2C1.2,98.2,1.2,98.2,1.2,98.2"/>
					<path class="st24" d="M1.2,98.1h97.5c0,0,0,0,0,0L1.2,98.1C1.3,98.1,1.3,98.1,1.2,98.1"/>
					<path class="st25" d="M1.3,98.1h97.5c0,0,0,0,0,0L1.3,98.1C1.3,98.1,1.3,98.1,1.3,98.1"/>
					<path class="st26" d="M1.3,98.1h97.4c0,0,0,0,0,0L1.3,98.1C1.3,98.1,1.3,98.1,1.3,98.1"/>
					<path class="st27" d="M1.3,98.1h97.4c0,0,0,0,0,0L1.3,98.1C1.3,98.1,1.3,98.1,1.3,98.1"/>
					<path class="st28" d="M1.3,98.1h97.3c0,0,0,0,0,0L1.3,98.1C1.4,98,1.3,98.1,1.3,98.1"/>
					<path class="st29" d="M1.4,98h97.3c0,0,0,0,0,0L1.4,98C1.4,98,1.4,98,1.4,98"/>
					<path class="st30" d="M1.4,98h97.2c0,0,0,0-0.1-0.1L1.4,98C1.4,98,1.4,98,1.4,98"/>
					<path class="st31" d="M1.5,97.9h97.1c0,0-0.1-0.1-0.1-0.1H1.6C1.5,97.8,1.5,97.9,1.5,97.9"/>
					<path class="st30" d="M1.6,97.8h96.8c0,0-0.1-0.1-0.1-0.1L1.6,97.8C1.6,97.7,1.6,97.8,1.6,97.8"/>
					<path class="st29" d="M1.7,97.7h96.7c0,0,0,0-0.1-0.1L1.7,97.7C1.7,97.7,1.7,97.7,1.7,97.7"/>
					<path class="st28" d="M1.7,97.7h96.6c0,0,0,0-0.1-0.1L1.7,97.7C1.8,97.6,1.7,97.6,1.7,97.7"/>
					<path class="st27" d="M1.8,97.6h96.5c0,0,0,0,0,0L1.8,97.6C1.8,97.6,1.8,97.6,1.8,97.6"/>
					<path class="st26" d="M1.8,97.6h96.4c0,0,0,0,0,0L1.8,97.6C1.9,97.5,1.8,97.5,1.8,97.6"/>
					<path class="st25" d="M1.9,97.5h96.3c0,0,0,0,0,0L1.9,97.5C1.9,97.5,1.9,97.5,1.9,97.5"/>
					<path class="st24" d="M1.9,97.5h96.2c0,0,0,0,0,0L1.9,97.5C1.9,97.4,1.9,97.5,1.9,97.5"/>
					<path class="st1" d="M2,97.4H98c0,0,0,0,0,0L2,97.4C2,97.4,2,97.4,2,97.4"/>
					<path class="st23" d="M2,97.4h96c0,0,0,0,0,0L2,97.4C2,97.4,2,97.4,2,97.4"/>
				</g>
			</g>
			<g class="st2">
				<defs>
					<path id="SVGID_9_" class="st2" d="M98,97.4V1.5c0,0,0.4-0.5,1-1v97.9C98.4,97.8,98,97.4,98,97.4z"/>
				</defs>
				<clipPath id="SVGID_10_">
					<use xlink:href="#SVGID_9_"  style="overflow:visible;"/>
				</clipPath>
				<g class="st38">
					<polyline class="st4" points="98,1.5 98,97.4 98,97.4 98,1.5 98,1.5 					"/>
					<polyline class="st5" points="98,1.5 98,97.4 98,97.4 98,1.5 98,1.5 					"/>
					<polyline class="st6" points="98,1.5 98,97.4 98,97.4 98,1.5 98,1.5 					"/>
					<polyline class="st7" points="98,1.5 98,97.4 98,97.4 98,1.5 98,1.5 					"/>
					<polyline class="st8" points="98,1.5 98,97.4 98,97.4 98,1.5 98,1.5 					"/>
					<polyline class="st9" points="98,1.5 98,97.4 98,97.4 98,1.5 98,1.5 					"/>
					<polyline class="st10" points="98,1.5 98,97.4 98,97.4 98,1.5 98,1.5 					"/>
					<polyline class="st11" points="98,1.5 98,97.4 98,97.4 98,1.5 98,1.5 					"/>
					<polyline class="st12" points="98,1.5 98,97.4 98,97.4 98,1.5 98,1.5 					"/>
					<polyline class="st13" points="98,1.5 98,97.4 98,97.4 98,1.5 98,1.5 					"/>
					<polyline class="st14" points="98,1.5 98,97.4 98,97.4 98,1.5 98,1.5 					"/>
					<polyline class="st15" points="98,1.5 98,97.4 98,97.4 98,1.5 98,1.5 					"/>
					<polyline class="st16" points="98,1.5 98,97.4 98,97.4 98,1.5 98,1.5 					"/>
					<polyline class="st17" points="98,1.5 98,97.4 98,97.4 98,1.4 98,1.5 					"/>
					<path class="st18" d="M98,1.4v96c0,0,0,0,0,0L98,1.4C98,1.4,98,1.4,98,1.4"/>
					<path class="st19" d="M98,1.4v96c0,0,0,0,0,0L98,1.4C98,1.4,98,1.4,98,1.4"/>
					<path class="st20" d="M98,1.4v96c0,0,0,0,0,0L98,1.4C98,1.4,98,1.4,98,1.4"/>
					<path class="st21" d="M98.1,1.4v96c0,0,0,0,0,0L98.1,1.4C98.1,1.4,98.1,1.4,98.1,1.4"/>
					<path class="st22" d="M98.1,1.4v96.1c0,0,0,0,0,0L98.1,1.4C98.1,1.4,98.1,1.4,98.1,1.4"/>
					<path class="st23" d="M98.1,1.4v96.1c0,0,0,0,0,0L98.1,1.4C98.1,1.3,98.1,1.4,98.1,1.4"/>
					<path class="st23" d="M98.1,1.3v96.2c0,0,0,0,0,0L98.1,1.3C98.1,1.3,98.1,1.3,98.1,1.3"/>
					<path class="st1" d="M98.1,1.3v96.2c0,0,0,0,0,0L98.1,1.3C98.1,1.3,98.1,1.3,98.1,1.3"/>
					<path class="st24" d="M98.2,1.3v96.2c0,0,0,0,0,0L98.2,1.3C98.2,1.3,98.2,1.3,98.2,1.3"/>
					<path class="st25" d="M98.2,1.3v96.3c0,0,0,0,0,0L98.2,1.3C98.2,1.3,98.2,1.3,98.2,1.3"/>
					<path class="st26" d="M98.2,1.3v96.3c0,0,0,0,0,0L98.2,1.3C98.2,1.2,98.2,1.3,98.2,1.3"/>
					<path class="st27" d="M98.2,1.2v96.4c0,0,0,0,0,0L98.2,1.2C98.2,1.2,98.2,1.2,98.2,1.2"/>
					<path class="st28" d="M98.2,1.2v96.4c0,0,0,0,0,0L98.2,1.2C98.3,1.2,98.2,1.2,98.2,1.2"/>
					<path class="st29" d="M98.3,1.2v96.5c0,0,0,0,0,0L98.3,1.2C98.3,1.2,98.3,1.2,98.3,1.2"/>
					<path class="st30" d="M98.3,1.2v96.5c0,0,0,0,0,0L98.3,1.2C98.3,1.1,98.3,1.1,98.3,1.2"/>
					<path class="st31" d="M98.3,1.1v96.6c0.1,0.1,0.1,0.1,0.2,0.2v-97C98.5,1,98.4,1,98.3,1.1"/>
					<path class="st30" d="M98.5,0.9v97c0,0,0,0,0.1,0.1L98.5,0.9C98.6,0.9,98.6,0.9,98.5,0.9"/>
					<path class="st29" d="M98.6,0.8V98c0,0,0,0,0.1,0.1L98.6,0.8C98.6,0.8,98.6,0.8,98.6,0.8"/>
					<path class="st28" d="M98.7,0.8V98c0,0,0,0,0,0L98.7,0.8C98.7,0.8,98.7,0.8,98.7,0.8"/>
					<path class="st27" d="M98.7,0.7v97.4c0,0,0,0,0,0L98.7,0.7C98.7,0.7,98.7,0.7,98.7,0.7"/>
					<path class="st26" d="M98.8,0.7v97.4c0,0,0,0,0,0L98.8,0.7C98.8,0.7,98.8,0.7,98.8,0.7"/>
					<path class="st25" d="M98.8,0.6v97.5c0,0,0,0,0,0L98.8,0.6C98.8,0.6,98.8,0.6,98.8,0.6"/>
					<path class="st24" d="M98.8,0.6v97.6c0,0,0,0,0,0L98.8,0.6C98.9,0.6,98.9,0.6,98.8,0.6"/>
					<path class="st1" d="M98.9,0.6v97.7c0,0,0,0,0,0L98.9,0.6C98.9,0.5,98.9,0.5,98.9,0.6"/>
					<path class="st23" d="M98.9,0.5v97.8c0,0,0,0,0,0L98.9,0.5C99,0.5,98.9,0.5,98.9,0.5"/>
				</g>
			</g>
			<g class="st2">
				<defs>
					<path id="SVGID_11_" class="st2" d="M99,0.5l0,97.9c0,0-0.4-0.5-1-1l0-95.9C98.5,0.9,99,0.5,99,0.5z"/>
				</defs>
				<clipPath id="SVGID_12_">
					<use xlink:href="#SVGID_11_"  style="overflow:visible;"/>
				</clipPath>
				<g class="st39">
					<path class="st33" d="M99,98.4V0.5c0,0,0,0,0,0L99,98.4C98.9,98.3,99,98.4,99,98.4"/>
					<path class="st34" d="M98.9,98.3V0.5c0,0,0,0,0,0L98.9,98.3C98.9,98.3,98.9,98.3,98.9,98.3"/>
					<path class="st35" d="M98.9,98.3V0.6c0,0,0,0,0,0L98.9,98.3C98.9,98.3,98.9,98.3,98.9,98.3"/>
					<path class="st4" d="M98.9,98.3V0.6c0,0,0,0,0,0L98.9,98.3C98.9,98.3,98.9,98.3,98.9,98.3"/>
					<path class="st5" d="M98.9,98.2V0.6c0,0,0,0,0,0L98.9,98.2C98.8,98.2,98.9,98.2,98.9,98.2"/>
					<path class="st6" d="M98.8,98.2V0.6c0,0,0,0,0,0L98.8,98.2C98.8,98.2,98.8,98.2,98.8,98.2"/>
					<path class="st7" d="M98.8,98.2V0.6c0,0,0,0,0,0L98.8,98.2C98.8,98.2,98.8,98.2,98.8,98.2"/>
					<path class="st8" d="M98.8,98.2V0.7c0,0,0,0,0,0L98.8,98.2C98.8,98.1,98.8,98.2,98.8,98.2"/>
					<path class="st9" d="M98.7,98.1V0.7c0,0,0,0,0,0L98.7,98.1C98.7,98.1,98.7,98.1,98.7,98.1"/>
					<path class="st10" d="M98.7,98.1V0.7c0,0,0,0,0,0L98.7,98.1C98.7,98.1,98.7,98.1,98.7,98.1"/>
					<path class="st11" d="M98.7,98.1V0.8c0,0,0,0,0,0L98.7,98.1C98.6,98,98.7,98,98.7,98.1"/>
					<path class="st12" d="M98.6,98V0.8c0,0,0,0-0.1,0.1L98.6,98C98.6,98,98.6,98,98.6,98"/>
					<path class="st13" d="M98.6,97.9V0.9c0,0,0,0-0.1,0.1L98.6,97.9C98.5,97.9,98.5,97.9,98.6,97.9"/>
					<path class="st14" d="M98.5,97.9V0.9c0,0,0,0-0.1,0.1L98.5,97.9C98.5,97.8,98.5,97.9,98.5,97.9"/>
					<path class="st15" d="M98.4,97.8V1c0,0,0,0-0.1,0.1L98.4,97.8C98.4,97.8,98.4,97.8,98.4,97.8"/>
					<path class="st16" d="M98.4,97.8V1.1c0,0,0,0-0.1,0.1L98.4,97.8C98.4,97.7,98.4,97.8,98.4,97.8"/>
					<path class="st17" d="M98.3,97.7V1.1c0,0,0,0-0.1,0.1L98.3,97.7C98.3,97.7,98.3,97.7,98.3,97.7"/>
					<path class="st18" d="M98.3,97.7V1.2c0,0,0,0-0.1,0.1L98.3,97.7C98.2,97.6,98.3,97.6,98.3,97.7"/>
					<path class="st19" d="M98.2,97.6V1.2c0,0,0,0-0.1,0.1L98.2,97.6C98.2,97.6,98.2,97.6,98.2,97.6"/>
					<path class="st20" d="M98.2,97.5V1.3c0,0,0,0-0.1,0.1L98.2,97.5C98.1,97.5,98.2,97.5,98.2,97.5"/>
					<path class="st21" d="M98.1,97.5V1.3c0,0,0,0,0,0L98.1,97.5C98.1,97.5,98.1,97.5,98.1,97.5"/>
					<path class="st22" d="M98.1,97.5V1.4c0,0,0,0,0,0L98.1,97.5C98,97.4,98.1,97.4,98.1,97.5"/>
					<path class="st23" d="M98,97.4v-96c0,0,0,0,0,0L98,97.4C98,97.4,98,97.4,98,97.4"/>
					<path class="st23" d="M98,97.4V1.5c0,0,0,0,0,0L98,97.4C98,97.3,98,97.4,98,97.4"/>
				</g>
			</g>
			<g class="st2">
				<defs>
					<path id="SVGID_13_" class="st2" d="M98,1.5L2,1.5c0,0-0.4-0.5-1-1l97.9,0C98.4,1,98,1.5,98,1.5z"/>
				</defs>
				<clipPath id="SVGID_14_">
					<use xlink:href="#SVGID_13_"  style="overflow:visible;"/>
				</clipPath>
				<g class="st40">
					<polyline class="st4" points="2,1.5 98,1.5 98,1.5 2,1.5 2,1.5 					"/>
					<polyline class="st5" points="2,1.5 98,1.5 98,1.5 2,1.5 2,1.5 					"/>
					<polyline class="st6" points="2,1.5 98,1.5 98,1.5 2,1.5 2,1.5 					"/>
					<polyline class="st7" points="2,1.5 98,1.5 98,1.5 2,1.5 2,1.5 					"/>
					<polyline class="st8" points="2,1.5 98,1.5 98,1.5 2,1.5 2,1.5 					"/>
					<polyline class="st9" points="2,1.5 98,1.5 98,1.5 2,1.5 2,1.5 					"/>
					<polyline class="st10" points="2,1.5 98,1.5 98,1.5 2,1.5 2,1.5 					"/>
					<polyline class="st11" points="2,1.5 98,1.5 98,1.5 2,1.5 2,1.5 					"/>
					<polyline class="st12" points="2,1.5 98,1.5 98,1.5 2,1.5 2,1.5 					"/>
					<polyline class="st13" points="2,1.5 98,1.5 98,1.5 2,1.5 2,1.5 					"/>
					<polyline class="st14" points="2,1.5 98,1.5 98,1.5 2,1.5 2,1.5 					"/>
					<polyline class="st15" points="2,1.5 98,1.5 98,1.5 2,1.5 2,1.5 					"/>
					<polyline class="st16" points="2,1.5 98,1.5 98,1.4 2,1.4 2,1.5 					"/>
					<path class="st17" d="M2,1.4h96c0,0,0,0,0,0L2,1.4C2,1.4,2,1.4,2,1.4"/>
					<path class="st18" d="M2,1.4h96c0,0,0,0,0,0L2,1.4C2,1.4,2,1.4,2,1.4"/>
					<path class="st19" d="M2,1.4H98c0,0,0,0,0,0L2,1.4C2,1.4,2,1.4,2,1.4"/>
					<path class="st20" d="M2,1.4h96.1c0,0,0,0,0,0L2,1.4C1.9,1.4,2,1.4,2,1.4"/>
					<path class="st21" d="M1.9,1.4h96.1c0,0,0,0,0,0L1.9,1.4C1.9,1.4,1.9,1.4,1.9,1.4"/>
					<path class="st22" d="M1.9,1.4h96.2c0,0,0,0,0,0L1.9,1.4C1.9,1.4,1.9,1.4,1.9,1.4"/>
					<path class="st23" d="M1.9,1.3h96.2c0,0,0,0,0,0L1.9,1.3C1.9,1.3,1.9,1.3,1.9,1.3"/>
					<path class="st23" d="M1.9,1.3h96.2c0,0,0,0,0,0L1.9,1.3C1.9,1.3,1.9,1.3,1.9,1.3"/>
					<path class="st1" d="M1.9,1.3h96.3c0,0,0,0,0,0L1.9,1.3C1.9,1.3,1.9,1.3,1.9,1.3"/>
					<path class="st24" d="M1.8,1.3h96.3c0,0,0,0,0,0L1.8,1.3C1.8,1.3,1.8,1.3,1.8,1.3"/>
					<path class="st25" d="M1.8,1.3h96.4c0,0,0,0,0,0L1.8,1.3C1.8,1.3,1.8,1.3,1.8,1.3"/>
					<path class="st26" d="M1.8,1.2h96.4c0,0,0,0,0,0L1.8,1.2C1.8,1.2,1.8,1.2,1.8,1.2"/>
					<path class="st27" d="M1.8,1.2h96.4c0,0,0,0,0,0L1.8,1.2C1.8,1.2,1.8,1.2,1.8,1.2"/>
					<path class="st28" d="M1.8,1.2h96.5c0,0,0,0,0,0L1.8,1.2C1.7,1.2,1.7,1.2,1.8,1.2"/>
					<path class="st29" d="M1.7,1.2h96.6c0,0,0,0,0,0L1.7,1.2C1.7,1.1,1.7,1.2,1.7,1.2"/>
					<path class="st30" d="M1.7,1.1h96.6c0,0,0,0,0.1-0.1L1.7,1.1C1.7,1.1,1.7,1.1,1.7,1.1"/>
					<path class="st31" d="M1.6,1.1h96.7c0,0,0.1-0.1,0.1-0.1h-97C1.5,1,1.6,1,1.6,1.1"/>
					<path class="st30" d="M1.5,0.9h97c0,0,0.1-0.1,0.1-0.1L1.5,0.9C1.4,0.9,1.5,0.9,1.5,0.9"/>
					<path class="st29" d="M1.4,0.9h97.2c0,0,0,0,0.1-0.1L1.4,0.9C1.4,0.8,1.4,0.8,1.4,0.9"/>
					<path class="st28" d="M1.4,0.8h97.3c0,0,0,0,0.1-0.1L1.4,0.8C1.3,0.8,1.3,0.8,1.4,0.8"/>
					<path class="st27" d="M1.3,0.7h97.4c0,0,0,0,0,0L1.3,0.7C1.3,0.7,1.3,0.7,1.3,0.7"/>
					<path class="st26" d="M1.3,0.7h97.5c0,0,0,0,0,0L1.3,0.7C1.2,0.7,1.2,0.7,1.3,0.7"/>
					<path class="st25" d="M1.2,0.7h97.6c0,0,0,0,0,0L1.2,0.7C1.2,0.6,1.2,0.6,1.2,0.7"/>
					<path class="st24" d="M1.2,0.6h97.7c0,0,0,0,0,0L1.2,0.6C1.1,0.6,1.2,0.6,1.2,0.6"/>
					<path class="st1" d="M1.1,0.6h97.8c0,0,0,0,0,0L1.1,0.6C1.1,0.5,1.1,0.5,1.1,0.6"/>
					<path class="st23" d="M1.1,0.5h97.9c0,0,0,0,0,0L1.1,0.5C1.1,0.5,1.1,0.5,1.1,0.5"/>
				</g>
			</g>
			<g class="st2">
				<defs>
					<path id="SVGID_15_" class="st2" d="M1,0.5l97.9,0c0,0-0.4,0.4-1,1L2,1.5C1.5,0.9,1,0.5,1,0.5z"/>
				</defs>
				<clipPath id="SVGID_16_">
					<use xlink:href="#SVGID_15_"  style="overflow:visible;"/>
				</clipPath>
				<g class="st41">
					<path class="st33" d="M99,0.5H1c0,0,0,0,0,0L99,0.5C99,0.5,99,0.5,99,0.5"/>
					<path class="st34" d="M98.9,0.5H1.1c0,0,0,0,0,0L98.9,0.5C98.9,0.5,98.9,0.5,98.9,0.5"/>
					<path class="st35" d="M98.9,0.6H1.1c0,0,0,0,0,0L98.9,0.6C98.9,0.6,98.9,0.6,98.9,0.6"/>
					<path class="st4" d="M98.9,0.6H1.1c0,0,0,0,0,0L98.9,0.6C98.9,0.6,98.9,0.6,98.9,0.6"/>
					<path class="st5" d="M98.9,0.6H1.1c0,0,0,0,0,0L98.9,0.6C98.9,0.6,98.9,0.6,98.9,0.6"/>
					<path class="st6" d="M98.8,0.6H1.2c0,0,0,0,0,0L98.8,0.6C98.8,0.6,98.8,0.6,98.8,0.6"/>
					<path class="st7" d="M98.8,0.6H1.2c0,0,0,0,0,0L98.8,0.6C98.8,0.7,98.8,0.6,98.8,0.6"/>
					<path class="st8" d="M98.8,0.7H1.2c0,0,0,0,0,0L98.8,0.7C98.8,0.7,98.8,0.7,98.8,0.7"/>
					<path class="st9" d="M98.8,0.7H1.2c0,0,0,0,0,0L98.8,0.7C98.7,0.7,98.8,0.7,98.8,0.7"/>
					<path class="st10" d="M98.7,0.7H1.3c0,0,0,0,0,0L98.7,0.7C98.7,0.8,98.7,0.7,98.7,0.7"/>
					<path class="st11" d="M98.7,0.8H1.3c0,0,0,0,0,0L98.7,0.8C98.7,0.8,98.7,0.8,98.7,0.8"/>
					<path class="st12" d="M98.6,0.8H1.4c0,0,0,0,0.1,0.1L98.6,0.8C98.6,0.8,98.6,0.8,98.6,0.8"/>
					<path class="st13" d="M98.6,0.9H1.4c0,0,0,0,0.1,0.1L98.6,0.9C98.5,0.9,98.6,0.9,98.6,0.9"/>
					<path class="st14" d="M98.5,0.9h-97c0,0,0,0,0.1,0.1L98.5,0.9C98.5,1,98.5,0.9,98.5,0.9"/>
					<path class="st15" d="M98.5,1H1.5c0,0,0,0,0.1,0.1L98.5,1C98.4,1,98.4,1,98.5,1"/>
					<path class="st16" d="M98.4,1H1.6c0,0,0,0,0.1,0.1L98.4,1C98.4,1.1,98.4,1.1,98.4,1"/>
					<path class="st17" d="M98.3,1.1H1.7c0,0,0,0,0.1,0.1L98.3,1.1C98.3,1.1,98.3,1.1,98.3,1.1"/>
					<path class="st18" d="M98.3,1.2H1.7c0,0,0,0,0.1,0.1L98.3,1.2C98.2,1.2,98.3,1.2,98.3,1.2"/>
					<path class="st19" d="M98.2,1.2H1.8c0,0,0,0,0.1,0.1L98.2,1.2C98.2,1.3,98.2,1.2,98.2,1.2"/>
					<path class="st20" d="M98.2,1.3H1.8c0,0,0,0,0.1,0.1L98.2,1.3C98.1,1.3,98.2,1.3,98.2,1.3"/>
					<path class="st21" d="M98.1,1.3H1.9c0,0,0,0,0,0L98.1,1.3C98.1,1.4,98.1,1.3,98.1,1.3"/>
					<path class="st22" d="M98.1,1.4H1.9c0,0,0,0,0,0L98.1,1.4C98,1.4,98.1,1.4,98.1,1.4"/>
					<path class="st23" d="M98,1.4H2c0,0,0,0,0,0L98,1.4C98,1.5,98,1.4,98,1.4"/>
					<path class="st23" d="M98,1.5H2c0,0,0,0,0,0L98,1.5C98,1.5,98,1.5,98,1.5"/>
				</g>
			</g>
			<g>
				<rect x="1" y="98.4" class="st42" width="97.9" height="0.1"/>
			</g>
			<g>
				<rect x="2" y="97.4" class="st42" width="95.9" height="0.1"/>
			</g>
			<g class="st2">
				<defs>
					<path id="SVGID_17_" class="st2" d="M98,97.5c0.6,0.6,1,1,1,1L1,98.5c0,0,0.4-0.4,1-1C2,97.5,98,97.5,98,97.5z"/>
				</defs>
				<clipPath id="SVGID_18_">
					<use xlink:href="#SVGID_17_"  style="overflow:visible;"/>
				</clipPath>
				<g class="st43">
					<path class="st23" d="M2,97.5H98c0,0,0,0,0,0L2,97.5C2,97.5,2,97.5,2,97.5"/>
					<path class="st23" d="M2,97.5H98c0,0,0,0,0,0L2,97.5C2,97.6,2,97.5,2,97.5"/>
					<path class="st22" d="M2,97.6h96c0,0,0,0,0,0L2,97.6C2,97.6,2,97.6,2,97.6"/>
					<path class="st21" d="M1.9,97.6h96.1c0,0,0,0,0,0L1.9,97.6C1.9,97.7,1.9,97.6,1.9,97.6"/>
					<path class="st20" d="M1.9,97.7h96.2c0,0,0,0,0.1,0.1L1.9,97.7C1.8,97.7,1.9,97.7,1.9,97.7"/>
					<path class="st19" d="M1.8,97.7h96.3c0,0,0,0,0.1,0.1L1.8,97.7C1.8,97.8,1.8,97.7,1.8,97.7"/>
					<path class="st18" d="M1.8,97.8h96.5c0,0,0,0,0.1,0.1L1.8,97.8C1.7,97.8,1.8,97.8,1.8,97.8"/>
					<path class="st17" d="M1.7,97.8h96.6c0,0,0,0,0.1,0.1L1.7,97.8C1.7,97.9,1.7,97.9,1.7,97.8"/>
					<path class="st16" d="M1.7,97.9h96.7c0,0,0,0,0.1,0.1L1.7,97.9C1.6,97.9,1.6,97.9,1.7,97.9"/>
					<path class="st15" d="M1.6,98h96.8c0,0,0,0,0.1,0.1L1.6,98C1.6,98,1.6,98,1.6,98"/>
					<path class="st14" d="M1.5,98h96.9c0,0,0,0,0.1,0.1L1.5,98C1.5,98.1,1.5,98,1.5,98"/>
					<path class="st13" d="M1.5,98.1h97c0,0,0,0,0.1,0.1L1.5,98.1C1.4,98.1,1.5,98.1,1.5,98.1"/>
					<path class="st12" d="M1.4,98.1h97.2c0,0,0,0,0.1,0.1L1.4,98.1C1.4,98.2,1.4,98.2,1.4,98.1"/>
					<path class="st11" d="M1.4,98.2h97.3c0,0,0,0,0,0L1.4,98.2C1.3,98.2,1.4,98.2,1.4,98.2"/>
					<path class="st10" d="M1.3,98.2h97.4c0,0,0,0,0,0L1.3,98.2C1.3,98.3,1.3,98.2,1.3,98.2"/>
					<path class="st9" d="M1.3,98.3h97.4c0,0,0,0,0,0L1.3,98.3C1.3,98.3,1.3,98.3,1.3,98.3"/>
					<path class="st8" d="M1.2,98.3h97.5c0,0,0,0,0,0L1.2,98.3C1.2,98.3,1.2,98.3,1.2,98.3"/>
					<path class="st7" d="M1.2,98.3h97.6c0,0,0,0,0,0L1.2,98.3C1.2,98.4,1.2,98.3,1.2,98.3"/>
					<path class="st6" d="M1.2,98.4h97.6c0,0,0,0,0,0L1.2,98.4C1.2,98.4,1.2,98.4,1.2,98.4"/>
					<path class="st5" d="M1.2,98.4h97.7c0,0,0,0,0,0L1.2,98.4C1.1,98.4,1.2,98.4,1.2,98.4"/>
					<path class="st4" d="M1.1,98.4h97.7c0,0,0,0,0,0L1.1,98.4C1.1,98.4,1.1,98.4,1.1,98.4"/>
					<path class="st35" d="M1.1,98.4h97.8c0,0,0,0,0,0L1.1,98.4C1.1,98.4,1.1,98.4,1.1,98.4"/>
					<path class="st34" d="M1.1,98.4h97.8c0,0,0,0,0,0L1.1,98.4C1.1,98.5,1.1,98.5,1.1,98.4"/>
					<path class="st33" d="M1.1,98.5h97.8c0,0,0,0,0,0L1.1,98.5C1,98.5,1.1,98.5,1.1,98.5"/>
				</g>
			</g>
			<g class="st2">
				<defs>
					<path id="SVGID_19_" class="st2" d="M1,98.5c0.6-0.6,1-1,1-1l95.9,0c0,0,0.4,0.5,1,1C99,98.5,1,98.5,1,98.5z"/>
				</defs>
				<clipPath id="SVGID_20_">
					<use xlink:href="#SVGID_19_"  style="overflow:visible;"/>
				</clipPath>
				<g class="st44">
					<path class="st23" d="M99,98.5H1c0,0,0,0,0,0L99,98.5C98.9,98.5,99,98.5,99,98.5"/>
					<path class="st1" d="M98.9,98.5H1.1c0,0,0,0,0,0L98.9,98.5C98.9,98.5,98.9,98.5,98.9,98.5"/>
					<path class="st24" d="M98.9,98.4H1.1c0,0,0,0,0,0L98.9,98.4C98.9,98.4,98.9,98.4,98.9,98.4"/>
					<path class="st25" d="M98.8,98.4H1.2c0,0,0,0,0,0L98.8,98.4C98.8,98.4,98.8,98.4,98.8,98.4"/>
					<path class="st26" d="M98.8,98.3H1.2c0,0,0,0,0,0L98.8,98.3C98.8,98.3,98.8,98.3,98.8,98.3"/>
					<path class="st27" d="M98.7,98.3H1.3c0,0,0,0,0,0L98.7,98.3C98.7,98.3,98.7,98.3,98.7,98.3"/>
					<path class="st28" d="M98.7,98.3H1.3c0,0,0,0,0.1-0.1L98.7,98.3C98.7,98.2,98.7,98.2,98.7,98.3"/>
					<path class="st29" d="M98.6,98.2H1.4c0,0,0,0,0.1-0.1L98.6,98.2C98.6,98.2,98.6,98.2,98.6,98.2"/>
					<path class="st30" d="M98.6,98.1H1.4c0,0,0.1-0.1,0.1-0.1L98.6,98.1C98.5,98.1,98.6,98.1,98.6,98.1"/>
					<path class="st31" d="M98.5,98.1h-97c0,0,0.1-0.1,0.1-0.1h96.7C98.4,98,98.5,98,98.5,98.1"/>
					<path class="st30" d="M98.4,97.9H1.6c0,0,0,0,0.1-0.1L98.4,97.9C98.3,97.9,98.4,97.9,98.4,97.9"/>
					<path class="st29" d="M98.3,97.9H1.7c0,0,0,0,0,0L98.3,97.9C98.3,97.8,98.3,97.9,98.3,97.9"/>
					<path class="st28" d="M98.3,97.8H1.7c0,0,0,0,0,0L98.3,97.8C98.3,97.8,98.3,97.8,98.3,97.8"/>
					<path class="st27" d="M98.3,97.8H1.8c0,0,0,0,0,0L98.3,97.8C98.2,97.8,98.2,97.8,98.3,97.8"/>
					<path class="st26" d="M98.2,97.8H1.8c0,0,0,0,0,0L98.2,97.8C98.2,97.8,98.2,97.8,98.2,97.8"/>
					<path class="st25" d="M98.2,97.8H1.8c0,0,0,0,0,0L98.2,97.8C98.2,97.7,98.2,97.7,98.2,97.8"/>
					<path class="st24" d="M98.2,97.7H1.8c0,0,0,0,0,0L98.2,97.7C98.2,97.7,98.2,97.7,98.2,97.7"/>
					<path class="st1" d="M98.2,97.7H1.8c0,0,0,0,0,0L98.2,97.7C98.2,97.7,98.2,97.7,98.2,97.7"/>
					<path class="st23" d="M98.1,97.7H1.9c0,0,0,0,0,0L98.1,97.7C98.1,97.7,98.1,97.7,98.1,97.7"/>
					<path class="st23" d="M98.1,97.7H1.9c0,0,0,0,0,0L98.1,97.7C98.1,97.7,98.1,97.7,98.1,97.7"/>
					<path class="st22" d="M98.1,97.7H1.9c0,0,0,0,0,0L98.1,97.7C98.1,97.6,98.1,97.6,98.1,97.7"/>
					<path class="st21" d="M98.1,97.6H1.9c0,0,0,0,0,0L98.1,97.6C98.1,97.6,98.1,97.6,98.1,97.6"/>
					<path class="st20" d="M98.1,97.6H1.9c0,0,0,0,0,0L98.1,97.6C98.1,97.6,98.1,97.6,98.1,97.6"/>
					<path class="st19" d="M98.1,97.6H2c0,0,0,0,0,0L98.1,97.6C98,97.6,98,97.6,98.1,97.6"/>
					<path class="st18" d="M98,97.6H2c0,0,0,0,0,0L98,97.6C98,97.6,98,97.6,98,97.6"/>
					<path class="st17" d="M98,97.6H2c0,0,0,0,0,0L98,97.6C98,97.6,98,97.6,98,97.6"/>
					<polyline class="st16" points="98,97.6 2,97.6 2,97.5 98,97.5 98,97.6 					"/>
					<polyline class="st15" points="98,97.5 2,97.5 2,97.5 98,97.5 98,97.5 					"/>
					<polyline class="st14" points="98,97.5 2,97.5 2,97.5 98,97.5 98,97.5 					"/>
					<polyline class="st13" points="98,97.5 2,97.5 2,97.5 98,97.5 98,97.5 					"/>
					<polyline class="st12" points="98,97.5 2,97.5 2,97.5 98,97.5 98,97.5 					"/>
					<polyline class="st11" points="98,97.5 2,97.5 2,97.5 98,97.5 98,97.5 					"/>
					<polyline class="st10" points="98,97.5 2,97.5 2,97.5 98,97.5 98,97.5 					"/>
					<polyline class="st9" points="98,97.5 2,97.5 2,97.5 98,97.5 98,97.5 					"/>
					<polyline class="st8" points="98,97.5 2,97.5 2,97.5 98,97.5 98,97.5 					"/>
					<polyline class="st7" points="98,97.5 2,97.5 2,97.5 98,97.5 98,97.5 					"/>
					<polyline class="st6" points="98,97.5 2,97.5 2,97.5 98,97.5 98,97.5 					"/>
					<polyline class="st5" points="98,97.5 2,97.5 2,97.5 98,97.5 98,97.5 					"/>
					<polyline class="st4" points="98,97.5 2,97.5 2,97.5 98,97.5 98,97.5 					"/>
				</g>
			</g>
			<g>
				<rect x="1" y="0.5" class="st42" width="97.9" height="0.1"/>
			</g>
			<g class="st2">
				<defs>
					<path id="SVGID_21_" class="st2" d="M98,1.7c0.6-0.6,1-1,1-1l0,97.9c0,0-0.4-0.4-1-1C98,97.5,98,1.7,98,1.7z"/>
				</defs>
				<clipPath id="SVGID_22_">
					<use xlink:href="#SVGID_21_"  style="overflow:visible;"/>
				</clipPath>
				<g class="st45">
					<path class="st23" d="M98,97.5V1.7c0,0,0,0,0,0L98,97.5C98,97.5,98,97.5,98,97.5"/>
					<path class="st1" d="M98,97.6V1.6c0,0,0,0,0,0L98,97.6C98,97.6,98,97.6,98,97.6"/>
					<path class="st24" d="M98,97.6v-96c0,0,0,0,0,0L98,97.6C98.1,97.6,98.1,97.6,98,97.6"/>
					<path class="st25" d="M98.1,97.6V1.5c0,0,0,0,0,0L98.1,97.6C98.1,97.7,98.1,97.7,98.1,97.6"/>
					<path class="st26" d="M98.1,97.7V1.5c0,0,0,0,0,0L98.1,97.7C98.2,97.7,98.1,97.7,98.1,97.7"/>
					<path class="st27" d="M98.2,97.7V1.4c0,0,0,0,0,0L98.2,97.7C98.2,97.8,98.2,97.7,98.2,97.7"/>
					<path class="st28" d="M98.2,97.8V1.4c0,0,0,0,0,0L98.2,97.8C98.3,97.8,98.2,97.8,98.2,97.8"/>
					<path class="st29" d="M98.3,97.8V1.4c0,0,0,0,0.1-0.1L98.3,97.8C98.3,97.9,98.3,97.8,98.3,97.8"/>
					<path class="st30" d="M98.3,97.9V1.3c0,0,0,0,0.1-0.1L98.3,97.9C98.4,97.9,98.3,97.9,98.3,97.9"/>
					<path class="st31" d="M98.4,97.9V1.2c0.1-0.1,0.1-0.1,0.2-0.2v97.1C98.5,98.1,98.5,98,98.4,97.9"/>
					<path class="st30" d="M98.6,98.1V1c0,0,0,0,0,0L98.6,98.1C98.6,98.2,98.6,98.2,98.6,98.1"/>
					<path class="st29" d="M98.6,98.2V1c0,0,0,0,0,0L98.6,98.2C98.7,98.2,98.6,98.2,98.6,98.2"/>
					<path class="st28" d="M98.7,98.2V1c0,0,0,0,0,0L98.7,98.2C98.7,98.2,98.7,98.2,98.7,98.2"/>
					<path class="st27" d="M98.7,98.2V0.9c0,0,0,0,0,0L98.7,98.2C98.7,98.3,98.7,98.2,98.7,98.2"/>
					<path class="st26" d="M98.7,98.3V0.9c0,0,0,0,0,0L98.7,98.3C98.7,98.3,98.7,98.3,98.7,98.3"/>
					<path class="st25" d="M98.7,98.3V0.9c0,0,0,0,0,0L98.7,98.3C98.8,98.3,98.7,98.3,98.7,98.3"/>
					<path class="st24" d="M98.8,98.3V0.9c0,0,0,0,0,0L98.8,98.3C98.8,98.3,98.8,98.3,98.8,98.3"/>
					<path class="st1" d="M98.8,98.3V0.8c0,0,0,0,0,0L98.8,98.3C98.8,98.3,98.8,98.3,98.8,98.3"/>
					<path class="st23" d="M98.8,98.3V0.8c0,0,0,0,0,0L98.8,98.3C98.8,98.4,98.8,98.3,98.8,98.3"/>
					<path class="st23" d="M98.8,98.4V0.8c0,0,0,0,0,0L98.8,98.4C98.8,98.4,98.8,98.4,98.8,98.4"/>
					<path class="st22" d="M98.8,98.4V0.8c0,0,0,0,0,0L98.8,98.4C98.8,98.4,98.8,98.4,98.8,98.4"/>
					<path class="st21" d="M98.9,98.4V0.8c0,0,0,0,0,0L98.9,98.4C98.9,98.4,98.9,98.4,98.9,98.4"/>
					<path class="st20" d="M98.9,98.4V0.7c0,0,0,0,0,0L98.9,98.4C98.9,98.4,98.9,98.4,98.9,98.4"/>
					<path class="st19" d="M98.9,98.4V0.7c0,0,0,0,0,0L98.9,98.4C98.9,98.4,98.9,98.4,98.9,98.4"/>
					<path class="st18" d="M98.9,98.4V0.7c0,0,0,0,0,0L98.9,98.4C98.9,98.5,98.9,98.5,98.9,98.4"/>
					<polyline class="st17" points="98.9,98.5 98.9,0.7 98.9,0.7 98.9,98.5 98.9,98.5 					"/>
					<polyline class="st16" points="98.9,98.5 98.9,0.7 98.9,0.7 98.9,98.5 98.9,98.5 					"/>
					<polyline class="st15" points="98.9,98.5 98.9,0.7 98.9,0.7 98.9,98.5 98.9,98.5 					"/>
					<polyline class="st14" points="98.9,98.5 98.9,0.7 98.9,0.7 98.9,98.5 98.9,98.5 					"/>
					<polyline class="st13" points="98.9,98.5 98.9,0.7 98.9,0.7 98.9,98.5 98.9,98.5 					"/>
					<polyline class="st12" points="98.9,98.5 98.9,0.7 99,0.7 99,98.5 98.9,98.5 					"/>
					<polyline class="st11" points="99,98.5 99,0.7 99,0.7 99,98.5 99,98.5 					"/>
					<polyline class="st10" points="99,98.5 99,0.7 99,0.7 99,98.5 99,98.5 					"/>
					<polyline class="st9" points="99,98.5 99,0.7 99,0.6 99,98.5 99,98.5 					"/>
					<polyline class="st8" points="99,98.5 99,0.6 99,0.6 99,98.5 99,98.5 					"/>
					<polyline class="st7" points="99,98.5 99,0.6 99,0.6 99,98.5 99,98.5 					"/>
					<polyline class="st6" points="99,98.5 99,0.6 99,0.6 99,98.5 99,98.5 					"/>
					<polyline class="st5" points="99,98.5 99,0.6 99,0.6 99,98.5 99,98.5 					"/>
					<polyline class="st4" points="99,98.5 99,0.6 99,0.6 99,98.5 99,98.5 					"/>
				</g>
			</g>
			<g class="st2">
				<defs>
					<path id="SVGID_23_" class="st2" d="M99,98.5c-0.6-0.6-1-1-1-1V1.6c0,0,0.4-0.4,1-1C99,0.7,99,98.5,99,98.5z"/>
				</defs>
				<clipPath id="SVGID_24_">
					<use xlink:href="#SVGID_23_"  style="overflow:visible;"/>
				</clipPath>
				<g class="st46">
					<path class="st23" d="M99,0.7v97.9c0,0,0,0,0,0L99,0.7C99,0.7,99,0.7,99,0.7"/>
					<path class="st23" d="M99,0.7v97.8c0,0,0,0,0,0L99,0.7C98.9,0.7,98.9,0.7,99,0.7"/>
					<path class="st22" d="M98.9,0.7v97.7c0,0,0,0,0,0L98.9,0.7C98.9,0.7,98.9,0.7,98.9,0.7"/>
					<path class="st21" d="M98.9,0.8v97.6c0,0,0,0,0,0L98.9,0.8C98.8,0.8,98.8,0.8,98.9,0.8"/>
					<path class="st20" d="M98.8,0.8v97.6c0,0,0,0-0.1-0.1L98.8,0.8C98.8,0.8,98.8,0.8,98.8,0.8"/>
					<path class="st19" d="M98.8,0.9v97.5c0,0,0,0-0.1-0.1L98.8,0.9C98.7,0.9,98.7,0.9,98.8,0.9"/>
					<path class="st18" d="M98.7,0.9v97.3c0,0,0,0-0.1-0.1L98.7,0.9C98.7,0.9,98.7,0.9,98.7,0.9"/>
					<path class="st17" d="M98.7,1v97.2c0,0,0,0-0.1-0.1L98.7,1C98.6,1,98.6,1,98.7,1"/>
					<path class="st16" d="M98.6,1v97.1c0,0,0,0-0.1-0.1L98.6,1C98.6,1.1,98.6,1,98.6,1"/>
					<path class="st15" d="M98.5,1.1v97c0,0,0,0-0.1-0.1L98.5,1.1C98.5,1.1,98.5,1.1,98.5,1.1"/>
					<path class="st14" d="M98.5,1.1V98c0,0,0,0-0.1-0.1L98.5,1.1C98.4,1.2,98.5,1.2,98.5,1.1"/>
					<path class="st13" d="M98.4,1.2V98c0,0,0,0-0.1-0.1L98.4,1.2C98.4,1.2,98.4,1.2,98.4,1.2"/>
					<path class="st12" d="M98.4,1.3v96.7c0,0,0,0-0.1-0.1L98.4,1.3C98.3,1.3,98.3,1.3,98.4,1.3"/>
					<path class="st11" d="M98.3,1.3v96.6c0,0,0,0,0,0L98.3,1.3C98.3,1.3,98.3,1.3,98.3,1.3"/>
					<path class="st10" d="M98.3,1.4v96.5c0,0,0,0,0,0L98.3,1.4C98.2,1.4,98.2,1.4,98.3,1.4"/>
					<path class="st9" d="M98.2,1.4v96.4c0,0,0,0,0,0L98.2,1.4C98.2,1.4,98.2,1.4,98.2,1.4"/>
					<path class="st8" d="M98.2,1.4v96.3c0,0,0,0,0,0L98.2,1.4C98.2,1.5,98.2,1.4,98.2,1.4"/>
					<path class="st7" d="M98.1,1.5v96.2c0,0,0,0,0,0L98.1,1.5C98.1,1.5,98.1,1.5,98.1,1.5"/>
					<path class="st6" d="M98.1,1.5v96.2c0,0,0,0,0,0L98.1,1.5C98.1,1.5,98.1,1.5,98.1,1.5"/>
					<path class="st5" d="M98.1,1.5v96.1c0,0,0,0,0,0L98.1,1.5C98.1,1.5,98.1,1.5,98.1,1.5"/>
					<path class="st4" d="M98.1,1.5v96.1c0,0,0,0,0,0L98.1,1.5C98.1,1.6,98.1,1.5,98.1,1.5"/>
					<path class="st35" d="M98.1,1.6v96c0,0,0,0,0,0L98.1,1.6C98,1.6,98,1.6,98.1,1.6"/>
					<path class="st34" d="M98,1.6v96c0,0,0,0,0,0L98,1.6C98,1.6,98,1.6,98,1.6"/>
					<path class="st33" d="M98,1.6v96c0,0,0,0,0-0.1L98,1.6C98,1.6,98,1.6,98,1.6"/>
				</g>
			</g>
			<g class="st2">
				<defs>
					<path id="SVGID_25_" class="st2" d="M2,1.7c-0.6-0.6-1-1-1-1l97.9,0c0,0-0.4,0.5-1,1C98,1.7,2,1.7,2,1.7z"/>
				</defs>
				<clipPath id="SVGID_26_">
					<use xlink:href="#SVGID_25_"  style="overflow:visible;"/>
				</clipPath>
				<g class="st47">
					<path class="st23" d="M98,1.7H2c0,0,0,0,0,0L98,1.7C98,1.6,98,1.6,98,1.7"/>
					<path class="st1" d="M98,1.6H2c0,0,0,0,0,0L98,1.6C98,1.6,98,1.6,98,1.6"/>
					<path class="st24" d="M98,1.6H2c0,0,0,0,0,0L98,1.6C98.1,1.5,98.1,1.6,98,1.6"/>
					<path class="st25" d="M98.1,1.5H1.9c0,0,0,0,0,0L98.1,1.5C98.1,1.5,98.1,1.5,98.1,1.5"/>
					<path class="st26" d="M98.1,1.5H1.9c0,0,0,0,0,0L98.1,1.5C98.2,1.5,98.2,1.5,98.1,1.5"/>
					<path class="st27" d="M98.2,1.4H1.8c0,0,0,0,0,0L98.2,1.4C98.2,1.4,98.2,1.4,98.2,1.4"/>
					<path class="st28" d="M98.2,1.4H1.8c0,0,0,0-0.1-0.1L98.2,1.4C98.3,1.4,98.2,1.4,98.2,1.4"/>
					<path class="st29" d="M98.3,1.3H1.7c0,0,0,0-0.1-0.1L98.3,1.3C98.3,1.3,98.3,1.3,98.3,1.3"/>
					<path class="st30" d="M98.3,1.3H1.7c0,0-0.1-0.1-0.1-0.1L98.3,1.3C98.4,1.2,98.4,1.3,98.3,1.3"/>
					<path class="st31" d="M98.4,1.2H1.6c0,0-0.1-0.1-0.1-0.1h97.1C98.5,1.1,98.5,1.2,98.4,1.2"/>
					<path class="st30" d="M98.6,1.1H1.5c0,0,0,0-0.1-0.1L98.6,1.1C98.6,1,98.6,1,98.6,1.1"/>
					<path class="st29" d="M98.6,1H1.4c0,0,0,0,0,0L98.6,1C98.6,1,98.6,1,98.6,1"/>
					<path class="st28" d="M98.6,1H1.4c0,0,0,0,0,0L98.6,1C98.7,0.9,98.7,1,98.6,1"/>
					<path class="st27" d="M98.7,0.9H1.3c0,0,0,0,0,0L98.7,0.9C98.7,0.9,98.7,0.9,98.7,0.9"/>
					<path class="st26" d="M98.7,0.9H1.3c0,0,0,0,0,0L98.7,0.9C98.7,0.9,98.7,0.9,98.7,0.9"/>
					<path class="st25" d="M98.7,0.9H1.3c0,0,0,0,0,0L98.7,0.9C98.7,0.9,98.7,0.9,98.7,0.9"/>
					<path class="st24" d="M98.7,0.9H1.3c0,0,0,0,0,0L98.7,0.9C98.8,0.9,98.8,0.9,98.7,0.9"/>
					<path class="st1" d="M98.8,0.9H1.2c0,0,0,0,0,0L98.8,0.9C98.8,0.8,98.8,0.8,98.8,0.9"/>
					<path class="st23" d="M98.8,0.8H1.2c0,0,0,0,0,0L98.8,0.8C98.8,0.8,98.8,0.8,98.8,0.8"/>
					<path class="st23" d="M98.8,0.8H1.2c0,0,0,0,0,0L98.8,0.8C98.8,0.8,98.8,0.8,98.8,0.8"/>
					<path class="st22" d="M98.8,0.8H1.2c0,0,0,0,0,0L98.8,0.8C98.8,0.8,98.8,0.8,98.8,0.8"/>
					<path class="st21" d="M98.8,0.8H1.2c0,0,0,0,0,0L98.8,0.8C98.9,0.8,98.8,0.8,98.8,0.8"/>
					<path class="st20" d="M98.9,0.8H1.2c0,0,0,0,0,0L98.9,0.8C98.9,0.7,98.9,0.7,98.9,0.8"/>
					<path class="st19" d="M98.9,0.7H1.1c0,0,0,0,0,0L98.9,0.7C98.9,0.7,98.9,0.7,98.9,0.7"/>
					<path class="st18" d="M98.9,0.7H1.1c0,0,0,0,0,0L98.9,0.7C98.9,0.7,98.9,0.7,98.9,0.7"/>
					<path class="st17" d="M98.9,0.7H1.1c0,0,0,0,0,0L98.9,0.7C98.9,0.7,98.9,0.7,98.9,0.7"/>
					<polyline class="st16" points="98.9,0.7 1.1,0.7 1.1,0.7 98.9,0.7 98.9,0.7 					"/>
					<polyline class="st15" points="98.9,0.7 1.1,0.7 1.1,0.7 98.9,0.7 98.9,0.7 					"/>
					<polyline class="st14" points="98.9,0.7 1.1,0.7 1.1,0.7 98.9,0.7 98.9,0.7 					"/>
					<polyline class="st13" points="98.9,0.7 1.1,0.7 1.1,0.7 98.9,0.7 98.9,0.7 					"/>
					<polyline class="st12" points="98.9,0.7 1.1,0.7 1.1,0.7 98.9,0.7 98.9,0.7 					"/>
					<polyline class="st11" points="98.9,0.7 1.1,0.7 1.1,0.7 99,0.7 98.9,0.7 					"/>
					<polyline class="st10" points="99,0.7 1.1,0.7 1.1,0.7 99,0.7 99,0.7 					"/>
					<polyline class="st9" points="99,0.7 1.1,0.7 1.1,0.7 99,0.7 99,0.7 					"/>
					<polyline class="st8" points="99,0.7 1.1,0.7 1,0.6 99,0.6 99,0.7 					"/>
					<polyline class="st7" points="99,0.6 1,0.6 1,0.6 99,0.6 99,0.6 					"/>
					<polyline class="st6" points="99,0.6 1,0.6 1,0.6 99,0.6 99,0.6 					"/>
					<polyline class="st5" points="99,0.6 1,0.6 1,0.6 99,0.6 99,0.6 					"/>
					<polyline class="st4" points="99,0.6 1,0.6 1,0.6 99,0.6 99,0.6 					"/>
				</g>
			</g>
			<g class="st2">
				<defs>
					<path id="SVGID_27_" class="st2" d="M1,0.7c0.6,0.6,1,1,1,1l0,95.9c0,0-0.4,0.5-1,1C1,98.5,1,0.7,1,0.7z"/>
				</defs>
				<clipPath id="SVGID_28_">
					<use xlink:href="#SVGID_27_"  style="overflow:visible;"/>
				</clipPath>
				<g class="st48">
					<path class="st23" d="M1,98.5V0.7c0,0,0,0,0,0L1,98.5C1.1,98.5,1.1,98.5,1,98.5"/>
					<path class="st1" d="M1.1,98.5V0.7c0,0,0,0,0,0L1.1,98.5C1.1,98.5,1.1,98.5,1.1,98.5"/>
					<path class="st24" d="M1.1,98.4V0.7c0,0,0,0,0,0L1.1,98.4C1.2,98.4,1.1,98.4,1.1,98.4"/>
					<path class="st25" d="M1.2,98.4V0.8c0,0,0,0,0,0L1.2,98.4C1.2,98.4,1.2,98.4,1.2,98.4"/>
					<path class="st26" d="M1.2,98.4V0.8c0,0,0,0,0,0L1.2,98.4C1.2,98.3,1.2,98.3,1.2,98.4"/>
					<path class="st27" d="M1.3,98.3V0.9c0,0,0,0,0,0L1.3,98.3C1.3,98.3,1.3,98.3,1.3,98.3"/>
					<path class="st28" d="M1.3,98.3V0.9c0,0,0,0,0,0L1.3,98.3C1.3,98.2,1.3,98.2,1.3,98.3"/>
					<path class="st29" d="M1.3,98.2V1c0,0,0,0,0.1,0.1L1.3,98.2C1.4,98.2,1.4,98.2,1.3,98.2"/>
					<path class="st30" d="M1.4,98.2V1c0,0,0,0,0.1,0.1L1.4,98.2C1.4,98.1,1.4,98.1,1.4,98.2"/>
					<path class="st31" d="M1.5,98.1v-97c0.1,0.1,0.1,0.1,0.2,0.2v96.6C1.6,98,1.5,98,1.5,98.1"/>
					<path class="st30" d="M1.7,97.9V1.3c0,0,0,0,0,0L1.7,97.9C1.7,97.9,1.7,97.9,1.7,97.9"/>
					<path class="st29" d="M1.7,97.8V1.3c0,0,0,0,0,0L1.7,97.8C1.7,97.8,1.7,97.8,1.7,97.8"/>
					<path class="st28" d="M1.7,97.8V1.4c0,0,0,0,0,0L1.7,97.8C1.8,97.8,1.8,97.8,1.7,97.8"/>
					<path class="st27" d="M1.8,97.8V1.4c0,0,0,0,0,0L1.8,97.8C1.8,97.8,1.8,97.8,1.8,97.8"/>
					<path class="st26" d="M1.8,97.8V1.4c0,0,0,0,0,0L1.8,97.8C1.8,97.7,1.8,97.8,1.8,97.8"/>
					<path class="st25" d="M1.8,97.7V1.4c0,0,0,0,0,0L1.8,97.7C1.8,97.7,1.8,97.7,1.8,97.7"/>
					<path class="st24" d="M1.8,97.7V1.4c0,0,0,0,0,0L1.8,97.7C1.9,97.7,1.8,97.7,1.8,97.7"/>
					<path class="st1" d="M1.9,97.7V1.5c0,0,0,0,0,0L1.9,97.7C1.9,97.7,1.9,97.7,1.9,97.7"/>
					<path class="st23" d="M1.9,97.7V1.5c0,0,0,0,0,0L1.9,97.7C1.9,97.7,1.9,97.7,1.9,97.7"/>
					<path class="st23" d="M1.9,97.7V1.5c0,0,0,0,0,0L1.9,97.7C1.9,97.6,1.9,97.7,1.9,97.7"/>
					<path class="st22" d="M1.9,97.6V1.5c0,0,0,0,0,0L1.9,97.6C1.9,97.6,1.9,97.6,1.9,97.6"/>
					<path class="st21" d="M1.9,97.6V1.5c0,0,0,0,0,0L1.9,97.6C1.9,97.6,1.9,97.6,1.9,97.6"/>
					<path class="st20" d="M2,97.6v-96c0,0,0,0,0,0L2,97.6C2,97.6,2,97.6,2,97.6"/>
					<path class="st19" d="M2,97.6v-96c0,0,0,0,0,0L2,97.6C2,97.6,2,97.6,2,97.6"/>
					<path class="st18" d="M2,97.6v-96c0,0,0,0,0,0L2,97.6C2,97.6,2,97.6,2,97.6"/>
					<polyline class="st17" points="2,97.6 2,1.6 2,1.6 2,97.5 2,97.6 					"/>
					<polyline class="st16" points="2,97.5 2,1.6 2,1.6 2,97.5 2,97.5 					"/>
					<polyline class="st15" points="2,97.5 2,1.6 2,1.6 2,97.5 2,97.5 					"/>
					<polyline class="st14" points="2,97.5 2,1.6 2,1.6 2,97.5 2,97.5 					"/>
					<polyline class="st13" points="2,97.5 2,1.6 2,1.6 2,97.5 2,97.5 					"/>
					<polyline class="st12" points="2,97.5 2,1.6 2,1.6 2,97.5 2,97.5 					"/>
					<polyline class="st11" points="2,97.5 2,1.6 2,1.6 2,97.5 2,97.5 					"/>
					<polyline class="st10" points="2,97.5 2,1.6 2,1.6 2,97.5 2,97.5 					"/>
					<polyline class="st9" points="2,97.5 2,1.6 2,1.6 2,97.5 2,97.5 					"/>
					<polyline class="st8" points="2,97.5 2,1.6 2,1.6 2,97.5 2,97.5 					"/>
					<polyline class="st7" points="2,97.5 2,1.6 2,1.6 2,97.5 2,97.5 					"/>
					<polyline class="st6" points="2,97.5 2,1.6 2,1.6 2,97.5 2,97.5 					"/>
					<polyline class="st5" points="2,97.5 2,1.6 2,1.6 2,97.5 2,97.5 					"/>
					<polyline class="st4" points="2,97.5 2,1.6 2,1.6 2,97.5 2,97.5 					"/>
				</g>
			</g>
			<g class="st2">
				<defs>
					<path id="SVGID_29_" class="st2" d="M2,97.5c-0.6,0.6-1,1-1,1L1,0.6c0,0,0.4,0.5,1,1C2,1.7,2,97.5,2,97.5z"/>
				</defs>
				<clipPath id="SVGID_30_">
					<use xlink:href="#SVGID_29_"  style="overflow:visible;"/>
				</clipPath>
				<g class="st49">
					<path class="st23" d="M2,1.7v95.9c0,0,0,0,0,0L2,1.7C2,1.6,2,1.7,2,1.7"/>
					<path class="st23" d="M2,1.6v95.9c0,0,0,0,0,0L2,1.6C2,1.6,2,1.6,2,1.6"/>
					<path class="st22" d="M2,1.6v96c0,0,0,0,0,0L2,1.6C2,1.6,2,1.6,2,1.6"/>
					<path class="st21" d="M1.9,1.5v96.1c0,0,0,0,0,0L1.9,1.5C1.9,1.5,1.9,1.5,1.9,1.5"/>
					<path class="st20" d="M1.9,1.5v96.2c0,0,0,0-0.1,0.1L1.9,1.5C1.9,1.5,1.9,1.5,1.9,1.5"/>
					<path class="st19" d="M1.8,1.5v96.3c0,0,0,0-0.1,0.1L1.8,1.5C1.8,1.4,1.8,1.4,1.8,1.5"/>
					<path class="st18" d="M1.8,1.4v96.4c0,0,0,0-0.1,0.1L1.8,1.4C1.8,1.4,1.8,1.4,1.8,1.4"/>
					<path class="st17" d="M1.7,1.3v96.5c0,0,0,0-0.1,0.1L1.7,1.3C1.7,1.3,1.7,1.3,1.7,1.3"/>
					<path class="st16" d="M1.7,1.3v96.6c0,0,0,0-0.1,0.1L1.7,1.3C1.6,1.2,1.7,1.3,1.7,1.3"/>
					<path class="st15" d="M1.6,1.2v96.7c0,0,0,0-0.1,0.1L1.6,1.2C1.6,1.2,1.6,1.2,1.6,1.2"/>
					<path class="st14" d="M1.6,1.2V98c0,0,0,0-0.1,0.1L1.6,1.2C1.5,1.1,1.5,1.1,1.6,1.2"/>
					<path class="st13" d="M1.5,1.1v96.9c0,0,0,0-0.1,0.1L1.5,1.1C1.5,1.1,1.5,1.1,1.5,1.1"/>
					<path class="st12" d="M1.4,1.1v97.1c0,0,0,0-0.1,0.1L1.4,1.1C1.4,1,1.4,1,1.4,1.1"/>
					<path class="st11" d="M1.4,1v97.2c0,0,0,0,0,0L1.4,1C1.4,1,1.4,1,1.4,1"/>
					<path class="st10" d="M1.3,0.9v97.3c0,0,0,0,0,0L1.3,0.9C1.3,0.9,1.3,0.9,1.3,0.9"/>
					<path class="st9" d="M1.3,0.9v97.4c0,0,0,0,0,0L1.3,0.9C1.3,0.9,1.3,0.9,1.3,0.9"/>
					<path class="st8" d="M1.3,0.9v97.4c0,0,0,0,0,0L1.3,0.9C1.2,0.8,1.3,0.9,1.3,0.9"/>
					<path class="st7" d="M1.2,0.8v97.5c0,0,0,0,0,0L1.2,0.8C1.2,0.8,1.2,0.8,1.2,0.8"/>
					<path class="st6" d="M1.2,0.8v97.6c0,0,0,0,0,0L1.2,0.8C1.2,0.8,1.2,0.8,1.2,0.8"/>
					<path class="st5" d="M1.2,0.8v97.6c0,0,0,0,0,0L1.2,0.8C1.2,0.8,1.2,0.8,1.2,0.8"/>
					<path class="st4" d="M1.2,0.8v97.6c0,0,0,0,0,0L1.2,0.8C1.1,0.7,1.1,0.7,1.2,0.8"/>
					<path class="st35" d="M1.1,0.7v97.7c0,0,0,0,0,0L1.1,0.7C1.1,0.7,1.1,0.7,1.1,0.7"/>
					<path class="st34" d="M1.1,0.7v97.7c0,0,0,0,0,0L1.1,0.7C1.1,0.7,1.1,0.7,1.1,0.7"/>
					<path class="st33" d="M1.1,0.7v97.8c0,0,0,0,0,0L1.1,0.7C1,0.6,1.1,0.7,1.1,0.7"/>
				</g>
			</g>
			<g class="st2">
				<defs>
					<path id="SVGID_31_" class="st2" d="M99,0.7c-0.6,0.6-1,1-1,1L2,1.6c0,0-0.4-0.4-1-1C1,0.7,99,0.7,99,0.7z"/>
				</defs>
				<clipPath id="SVGID_32_">
					<use xlink:href="#SVGID_31_"  style="overflow:visible;"/>
				</clipPath>
				<g class="st50">
					<path class="st23" d="M1,0.7H99c0,0,0,0,0,0L1,0.7C1.1,0.7,1,0.7,1,0.7"/>
					<path class="st23" d="M1.1,0.7H99c0,0,0,0,0,0L1.1,0.7C1.1,0.7,1.1,0.7,1.1,0.7"/>
					<path class="st22" d="M1.1,0.7h97.8c0,0,0,0,0,0L1.1,0.7C1.1,0.8,1.1,0.7,1.1,0.7"/>
					<path class="st21" d="M1.2,0.8h97.7c0,0,0,0,0,0L1.2,0.8C1.2,0.8,1.2,0.8,1.2,0.8"/>
					<path class="st20" d="M1.2,0.8h97.6c0,0,0,0-0.1,0.1L1.2,0.8C1.2,0.9,1.2,0.8,1.2,0.8"/>
					<path class="st19" d="M1.3,0.9h97.5c0,0,0,0-0.1,0.1L1.3,0.9C1.3,0.9,1.3,0.9,1.3,0.9"/>
					<path class="st18" d="M1.3,0.9h97.4c0,0,0,0-0.1,0.1L1.3,0.9C1.3,1,1.3,0.9,1.3,0.9"/>
					<path class="st17" d="M1.4,1h97.3c0,0,0,0-0.1,0.1L1.4,1C1.4,1,1.4,1,1.4,1"/>
					<path class="st16" d="M1.4,1h97.2c0,0,0,0-0.1,0.1L1.4,1C1.5,1.1,1.4,1.1,1.4,1"/>
					<path class="st15" d="M1.5,1.1h97c0,0,0,0-0.1,0.1L1.5,1.1C1.5,1.1,1.5,1.1,1.5,1.1"/>
					<path class="st14" d="M1.5,1.2h96.9c0,0,0,0-0.1,0.1L1.5,1.2C1.6,1.2,1.6,1.2,1.5,1.2"/>
					<path class="st13" d="M1.6,1.2h96.8c0,0,0,0-0.1,0.1L1.6,1.2C1.6,1.3,1.6,1.2,1.6,1.2"/>
					<path class="st12" d="M1.7,1.3h96.7c0,0,0,0-0.1,0.1L1.7,1.3C1.7,1.3,1.7,1.3,1.7,1.3"/>
					<path class="st11" d="M1.7,1.3h96.6c0,0,0,0,0,0L1.7,1.3C1.7,1.4,1.7,1.3,1.7,1.3"/>
					<path class="st10" d="M1.8,1.4h96.5c0,0,0,0,0,0L1.8,1.4C1.8,1.4,1.8,1.4,1.8,1.4"/>
					<path class="st9" d="M1.8,1.4h96.4c0,0,0,0,0,0L1.8,1.4C1.8,1.4,1.8,1.4,1.8,1.4"/>
					<path class="st8" d="M1.8,1.4h96.3c0,0,0,0,0,0L1.8,1.4C1.9,1.5,1.9,1.5,1.8,1.4"/>
					<path class="st7" d="M1.9,1.5h96.3c0,0,0,0,0,0L1.9,1.5C1.9,1.5,1.9,1.5,1.9,1.5"/>
					<path class="st6" d="M1.9,1.5h96.2c0,0,0,0,0,0L1.9,1.5C1.9,1.5,1.9,1.5,1.9,1.5"/>
					<path class="st5" d="M1.9,1.5h96.2c0,0,0,0,0,0L1.9,1.5C1.9,1.5,1.9,1.5,1.9,1.5"/>
					<path class="st4" d="M1.9,1.5h96.1c0,0,0,0,0,0L1.9,1.5C2,1.6,2,1.6,1.9,1.5"/>
					<path class="st35" d="M2,1.6H98c0,0,0,0,0,0L2,1.6C2,1.6,2,1.6,2,1.6"/>
					<path class="st34" d="M2,1.6h96c0,0,0,0,0,0L2,1.6C2,1.6,2,1.6,2,1.6"/>
					<path class="st33" d="M2,1.6h96c0,0,0,0,0,0L2,1.6C2,1.6,2,1.6,2,1.6"/>
				</g>
			</g>
		</g>
	</g>
</g>
</svg>
